<svg
width="31"
height="30"
viewBox="0 0 31 30"
fill="none"
xmlns="http://www.w3.org/2000/svg"
>
<path
  d="M20.1858 14.8945C20.1858 16.129 19.6954 17.3129 18.8225 18.1858C17.9496 19.0587 16.7657 19.5491 15.5313 19.5491C14.2968 19.5491 13.1129 19.0587 12.24 18.1858C11.3671 17.3129 10.8767 16.129 10.8767 14.8945C10.8767 14.6292 10.9046 14.3701 10.9527 14.1188H9.3252V20.3202C9.3252 20.7515 9.67429 21.1006 10.1056 21.1006H20.9585C21.1652 21.1002 21.3633 21.0178 21.5093 20.8715C21.6553 20.7252 21.7373 20.5269 21.7373 20.3202V14.1188H20.1098C20.1579 14.3701 20.1858 14.6292 20.1858 14.8945ZM15.5313 17.9976C15.9389 17.9975 16.3424 17.9171 16.719 17.761C17.0955 17.6049 17.4376 17.3762 17.7258 17.0879C18.0139 16.7997 18.2424 16.4574 18.3983 16.0808C18.5542 15.7042 18.6344 15.3006 18.6343 14.893C18.6342 14.4854 18.5538 14.0818 18.3977 13.7053C18.2417 13.3287 18.0129 12.9866 17.7247 12.6985C17.4364 12.4104 17.0942 12.1818 16.7175 12.0259C16.3409 11.87 15.9373 11.7899 15.5297 11.79C14.7065 11.7902 13.9171 12.1174 13.3352 12.6996C12.7533 13.2818 12.4265 14.0714 12.4267 14.8945C12.4269 15.7177 12.7541 16.5071 13.3363 17.089C13.9185 17.671 14.7081 17.9978 15.5313 17.9976ZM19.2549 11.6364H21.1152C21.2388 11.6364 21.3573 11.5874 21.4448 11.5001C21.5324 11.4129 21.5818 11.2945 21.5822 11.1709V9.31064C21.5822 9.18678 21.533 9.068 21.4454 8.98042C21.3578 8.89284 21.239 8.84364 21.1152 8.84364H19.2549C19.131 8.84364 19.0123 8.89284 18.9247 8.98042C18.8371 9.068 18.7879 9.18678 18.7879 9.31064V11.1709C18.7894 11.4269 18.9989 11.6364 19.2549 11.6364ZM15.5313 0C11.581 0 7.7925 1.56924 4.99923 4.36251C2.20596 7.15578 0.636719 10.9443 0.636719 14.8945C0.636719 18.8448 2.20596 22.6333 4.99923 25.4266C7.7925 28.2199 11.581 29.7891 15.5313 29.7891C17.4872 29.7891 19.4241 29.4038 21.2312 28.6553C23.0382 27.9068 24.6802 26.8097 26.0633 25.4266C27.4464 24.0435 28.5435 22.4015 29.292 20.5944C30.0406 18.7874 30.4258 16.8505 30.4258 14.8945C30.4258 12.9386 30.0406 11.0017 29.292 9.19465C28.5435 7.38756 27.4464 5.7456 26.0633 4.36251C24.6802 2.97942 23.0382 1.8823 21.2312 1.13378C19.4241 0.385259 17.4872 0 15.5313 0ZM23.2888 20.9284C23.2888 21.8764 22.5131 22.6521 21.5651 22.6521H9.49742C8.54945 22.6521 7.77369 21.8764 7.77369 20.9284V8.8607C7.77369 7.91273 8.54945 7.13697 9.49742 7.13697H21.5651C22.5131 7.13697 23.2888 7.91273 23.2888 8.8607V20.9284Z"
  fill="#5f6675"
></path>
</svg>