<svg
width="31"
height="31"
viewBox="0 0 31 31"
fill="none"
xmlns="http://www.w3.org/2000/svg"
>
<path
  d="M15.835 0.96875C7.60884 0.96875 0.94043 7.63716 0.94043 15.8633C0.94043 24.0894 7.60884 30.7578 15.835 30.7578C24.0611 30.7578 30.7295 24.0894 30.7295 15.8633C30.7295 7.63716 24.0611 0.96875 15.835 0.96875ZM12.1889 22.0368H9.17277V12.3305H12.1889V22.0368ZM10.6622 11.1389C9.70959 11.1389 9.09364 10.464 9.09364 9.62931C9.09364 8.77753 9.72821 8.12279 10.701 8.12279C11.6738 8.12279 12.2696 8.77753 12.2882 9.62931C12.2882 10.464 11.6738 11.1389 10.6622 11.1389ZM23.2047 22.0368H20.1885V16.6577C20.1885 15.4056 19.751 14.5554 18.6603 14.5554C17.8271 14.5554 17.3322 15.131 17.1134 15.6849C17.0327 15.8819 17.0126 16.1612 17.0126 16.4389V22.0352H13.9949V15.4258C13.9949 14.214 13.9561 13.2009 13.9158 12.3289H16.5363L16.6743 13.6772H16.7349C17.132 13.0442 18.1048 12.1102 19.7324 12.1102C21.7168 12.1102 23.2047 13.4398 23.2047 16.2977V22.0368Z"
  fill="#5f6675"
></path>
</svg>