<svg
width="32"
height="32"
viewBox="0 0 32 32"
fill="none"
xmlns="http://www.w3.org/2000/svg"
>
<path
  d="M15.606 0C7.03801 0 0.0908203 6.94719 0.0908203 15.5152C0.0908203 24.0831 7.03801 31.0303 15.606 31.0303C24.1739 31.0303 31.1211 24.0831 31.1211 15.5152C31.1211 6.94719 24.1739 0 15.606 0ZM24.4718 8.78615L23.0588 10.1403C22.9341 10.2338 22.8752 10.3861 22.8995 10.5351V20.4987C22.8752 20.6511 22.9341 20.8035 23.0588 20.8935L24.4441 22.2476V22.5489H17.49V22.2615L18.9203 20.8727C19.0623 20.7307 19.0622 20.6892 19.0622 20.4779V12.4156L15.0796 22.5143H14.5428L9.909 12.4156V19.1861C9.86744 19.4701 9.96788 19.7576 10.1687 19.9619L12.0319 22.2164V22.5177H6.74017V22.2164L8.60337 19.9619C8.70154 19.8605 8.7746 19.7375 8.8167 19.6028C8.85879 19.4681 8.86876 19.3254 8.8458 19.1861V11.3593C8.87004 11.1411 8.78692 10.9299 8.62069 10.781L6.96528 8.78615V8.48485H12.1081L16.077 17.1948L19.5713 8.49178H24.4718V8.78615Z"
  fill="#5f6675"
></path>
</svg>