<svg
width="32"
height="32"
viewBox="0 0 32 32"
fill="none"
xmlns="http://www.w3.org/2000/svg"
>
<path
  d="M15.7603 0.96875C7.1894 0.96875 0.245117 7.91303 0.245117 16.4839C0.245117 25.0548 7.1894 31.9991 15.7603 31.9991C24.3311 31.9991 31.2754 25.0548 31.2754 16.4839C31.2754 7.91303 24.3311 0.96875 15.7603 0.96875ZM23.3802 11.5979L20.834 23.5971C20.6463 24.4479 20.1395 24.6544 19.4326 24.254L15.5538 21.3949L13.6832 23.1967C13.4768 23.4032 13.3016 23.5783 12.9012 23.5783L13.1765 19.6307L20.3648 13.1369C20.6776 12.8616 20.2959 12.7052 19.883 12.9805L10.9994 18.5734L7.17063 17.3785C6.33857 17.1158 6.3198 16.5465 7.3458 16.1461L22.3042 10.3779C22.9986 10.1277 23.6054 10.5469 23.3802 11.5979Z"
  fill="#5f6675"
></path>
</svg>