<svg
width="32"
height="32"
viewBox="0 0 32 32"
fill="none"
xmlns="http://www.w3.org/2000/svg"
>
<path
  d="M16.0611 0C7.49216 0 0.545898 6.94626 0.545898 15.5152C0.545898 24.084 7.49216 31.0303 16.0611 31.0303C24.6299 31.0303 31.5762 24.084 31.5762 15.5152C31.5762 6.94626 24.6299 0 16.0611 0ZM22.3722 12.7095C22.3786 12.842 22.3802 12.9745 22.3802 13.1038C22.3802 17.1442 19.3079 21.8004 13.6869 21.8004C12.026 21.8032 10.3996 21.3261 9.00327 20.4267C9.24085 20.4558 9.48489 20.4671 9.73216 20.4671C11.1641 20.4671 12.4813 19.9806 13.5269 19.1596C12.8897 19.1471 12.2722 18.9361 11.7606 18.556C11.249 18.1759 10.8687 17.6457 10.6728 17.0392C11.1304 17.1262 11.6018 17.108 12.0514 16.9859C11.3597 16.846 10.7377 16.4712 10.2909 15.9251C9.84403 15.379 9.59981 14.6951 9.59964 13.9895V13.9523C10.0118 14.1802 10.4837 14.3192 10.9847 14.3354C10.3363 13.9037 9.87727 13.2407 9.70153 12.4818C9.52578 11.723 9.64659 10.9257 10.0392 10.2529C10.8068 11.1968 11.7641 11.9689 12.849 12.5193C13.934 13.0697 15.1224 13.3861 16.3374 13.4481C16.1829 12.7924 16.2494 12.1041 16.5265 11.4901C16.8036 10.8761 17.2758 10.3709 17.8696 10.053C18.4635 9.73501 19.1458 9.62218 19.8104 9.73199C20.475 9.84181 21.0847 10.1681 21.5447 10.6602C22.2286 10.5249 22.8844 10.274 23.4841 9.91838C23.2561 10.6265 22.7789 11.2278 22.1411 11.6105C22.7469 11.5375 23.3384 11.3747 23.8962 11.1273C23.4865 11.7412 22.9704 12.2771 22.3722 12.7095Z"
  fill="#5f6675"
></path>
</svg>