<svg width="56" height="56" viewBox="0 0 56 56" fill="none" xmlns="http://www.w3.org/2000/svg">
<path d="M3.86949 23.7089L1.20088 24.5336C0.934014 24.3563 0.667153 24.108 0.400292 23.7887C0.133431 23.4695 0 23.0261 0 22.4585C0 21.3944 0.649362 20.6495 1.94809 20.2238L4.93693 19.2128H5.92432C6.68932 19.2128 7.29421 19.4345 7.73898 19.8779C8.18375 20.3213 8.40613 20.9244 8.40613 21.687V35.5477C8.21043 35.5832 7.91688 35.6275 7.52549 35.6808C7.15188 35.7517 6.76938 35.7872 6.37798 35.7872C5.98659 35.7872 5.63077 35.7606 5.31054 35.7074C5.0081 35.6541 4.75013 35.5477 4.53664 35.3881C4.32315 35.2285 4.15414 35.0156 4.0296 34.7496C3.92286 34.4658 3.86949 34.1022 3.86949 33.6588V23.7089Z" fill="#06D69D"/>
<path d="M20.884 27.4867C20.884 25.9259 20.6527 24.7199 20.1901 23.8685C19.7454 23.0172 19.1049 22.5915 18.2687 22.5915C17.4326 22.5915 16.7921 23.0172 16.3473 23.8685C15.9204 24.7199 15.7069 25.9259 15.7069 27.4867C15.7069 29.0475 15.9204 30.2624 16.3473 31.1315C16.7921 31.9828 17.4326 32.4085 18.2687 32.4085C19.1049 32.4085 19.7454 31.9828 20.1901 31.1315C20.6527 30.2624 20.884 29.0475 20.884 27.4867ZM25.4473 27.4867C25.4473 28.8524 25.2694 30.0673 24.9136 31.1315C24.5578 32.1956 24.0596 33.0913 23.4192 33.8185C22.7965 34.5279 22.0404 35.0689 21.1508 35.4413C20.2791 35.8138 19.3273 36 18.2954 36C17.2458 36 16.2762 35.8138 15.3866 35.4413C14.5149 35.0689 13.7588 34.5279 13.1183 33.8185C12.4956 33.0913 12.0064 32.1956 11.6506 31.1315C11.3126 30.0673 11.1435 28.8524 11.1435 27.4867C11.1435 26.121 11.3126 24.915 11.6506 23.8685C12.0064 22.8044 12.4956 21.9176 13.1183 21.2081C13.7588 20.481 14.5149 19.9311 15.3866 19.5587C16.2762 19.1862 17.2458 19 18.2954 19C19.3273 19 20.2791 19.1862 21.1508 19.5587C22.0404 19.9311 22.7965 20.481 23.4192 21.2081C24.0596 21.9176 24.5578 22.8044 24.9136 23.8685C25.2694 24.915 25.4473 26.121 25.4473 27.4867Z" fill="#06D69D"/>
<path d="M37.0677 27.4867C37.0677 25.9259 36.8364 24.7199 36.3738 23.8685C35.929 23.0172 35.2886 22.5915 34.4524 22.5915C33.6162 22.5915 32.9758 23.0172 32.531 23.8685C32.104 24.7199 31.8905 25.9259 31.8905 27.4867C31.8905 29.0475 32.104 30.2624 32.531 31.1315C32.9758 31.9828 33.6162 32.4085 34.4524 32.4085C35.2886 32.4085 35.929 31.9828 36.3738 31.1315C36.8364 30.2624 37.0677 29.0475 37.0677 27.4867ZM41.631 27.4867C41.631 28.8524 41.4531 30.0673 41.0973 31.1315C40.7414 32.1956 40.2433 33.0913 39.6028 33.8185C38.9802 34.5279 38.2241 35.0689 37.3345 35.4413C36.4628 35.8138 35.511 36 34.4791 36C33.4294 36 32.4599 35.8138 31.5703 35.4413C30.6986 35.0689 29.9425 34.5279 29.302 33.8185C28.6793 33.0913 28.1901 32.1956 27.8343 31.1315C27.4962 30.0673 27.3272 28.8524 27.3272 27.4867C27.3272 26.121 27.4962 24.915 27.8343 23.8685C28.1901 22.8044 28.6793 21.9176 29.302 21.2081C29.9425 20.481 30.6986 19.9311 31.5703 19.5587C32.4599 19.1862 33.4294 19 34.4791 19C35.511 19 36.4628 19.1862 37.3345 19.5587C38.2241 19.9311 38.9802 20.481 39.6028 21.2081C40.2433 21.9176 40.7414 22.8044 41.0973 23.8685C41.4531 24.915 41.631 26.121 41.631 27.4867Z" fill="#06D69D"/>
<path d="M43.244 24.7465C43.3864 24.0725 43.6621 23.5227 44.0713 23.097C44.4983 22.6714 45.0231 22.4585 45.6458 22.4585C46.2329 22.4585 46.6865 22.6004 47.0068 22.8842C47.327 23.168 47.6828 23.567 48.0742 24.0814L49.7821 26.3161L52.6375 22.4585C53.616 22.4585 54.3899 22.6359 54.9592 22.9906C55.5285 23.3276 55.8132 23.7887 55.8132 24.374C55.8132 24.6046 55.7776 24.8174 55.7065 25.0125C55.6531 25.1899 55.5641 25.3761 55.4396 25.5712C55.3151 25.7663 55.1549 25.988 54.9592 26.2363C54.7635 26.4846 54.5323 26.7773 54.2654 27.1142L52.5041 29.0829L56 33.6854C55.911 34.3594 55.6442 34.8915 55.1994 35.2817C54.7546 35.6719 54.2209 35.867 53.5983 35.867C52.9222 35.8492 52.3796 35.6541 51.9704 35.2817C51.579 34.9092 51.1965 34.457 50.8229 33.9249L49.3818 31.8764L46.6599 35.7872C46.5709 35.7872 46.4731 35.7872 46.3663 35.7872C46.2596 35.8049 46.1706 35.8138 46.0994 35.8138C45.1921 35.8138 44.4983 35.6275 44.0179 35.2551C43.5554 34.8826 43.3241 34.4215 43.3241 33.8717C43.3241 33.446 43.4219 33.0736 43.6176 32.7543C43.8311 32.4173 44.1869 31.965 44.6851 31.3975L46.82 28.9233L43.244 24.7465Z" fill="#06D69D"/>
<rect y="44" width="56" height="4" rx="2" fill="#06D69D"/>
</svg>
