<svg width="56" height="56" viewBox="0 0 56 56" fill="none" xmlns="http://www.w3.org/2000/svg">
<g clip-path="url(#clip0)">
<path d="M9.46185 11.2009L9.10133 11.5613C8.6207 12.0421 7.84206 12.0421 7.36144 11.5614C6.88082 11.0808 6.88082 10.3021 7.36144 9.82146L9.82238 7.36053C10.303 6.87991 11.0817 6.87991 11.5623 7.36053L14.0233 9.82146C14.5039 10.3021 14.5039 11.0808 14.0233 11.5614C13.5427 12.0421 12.7639 12.0421 12.2833 11.5614L11.9228 11.2009V44.0781H19.3876V39.0742H18.1572C17.477 39.0742 16.9267 38.5239 16.9267 37.8438V27.918C16.9267 27.2378 17.477 26.6875 18.1572 26.6875H19.3876V8.23047C19.3876 7.55035 19.938 7 20.6181 7C21.2982 7 21.8486 7.55035 21.8486 8.23047V26.6875H23.079C23.7592 26.6875 24.3095 27.2378 24.3095 27.918V37.8438C24.3095 38.5239 23.7592 39.0742 23.079 39.0742H21.8486V44.0781H29.2314V24.2266H28.0009C27.3208 24.2266 26.7704 23.6762 26.7704 22.9961V13.1523C26.7704 12.4722 27.3208 11.9219 28.0009 11.9219H29.2314V8.23047C29.2314 7.55035 29.7817 7 30.4619 7C31.142 7 31.6923 7.55035 31.6923 8.23047V11.9219H32.9228C33.6029 11.9219 34.1533 12.4722 34.1533 13.1523V22.9961C34.1533 23.6762 33.6029 24.2266 32.9228 24.2266H31.6923V44.0781H39.0751V31.6094H37.8447C37.1645 31.6094 36.6142 31.059 36.6142 30.3789V20.5352C36.6142 19.855 37.1645 19.3047 37.8447 19.3047H39.0751V8.23047C39.0751 7.55035 39.6255 7 40.3056 7C40.9857 7 41.5361 7.55035 41.5361 8.23047V19.3047H42.7665C43.4467 19.3047 43.997 19.855 43.997 20.5352V30.3789C43.997 31.059 43.4467 31.6094 42.7665 31.6094H41.5361V44.0782H44.8L44.4395 43.7177C43.9589 43.2371 43.9589 42.4583 44.4395 41.9777C44.9201 41.4971 45.6988 41.4971 46.1795 41.9777L48.6404 44.4387C49.121 44.9193 49.121 45.698 48.6404 46.1786L46.1795 48.6396C45.6988 49.1202 44.9201 49.1202 44.4395 48.6396C43.9589 48.1589 43.9589 47.3802 44.4395 46.8996L44.8 46.5391H10.6923C10.0122 46.5391 9.46185 45.9887 9.46185 45.3086V11.2009Z" fill="#06D69D"/>
</g>
<defs>
<clipPath id="clip0">
<rect x="7" y="7" width="42" height="42" fill="white"/>
</clipPath>
</defs>
</svg>
