<svg width="566" height="316" viewBox="0 0 566 316" fill="none" xmlns="http://www.w3.org/2000/svg">
<path d="M302.88 315.809L375.26 93.0695C328.218 77.7763 277.542 77.7763 230.5 93.0695L302.88 315.809Z" fill="#021C43"/>
<g style="mix-blend-mode:multiply" opacity="0.15">
<path d="M302.88 315.81L375.26 93.07C374.7 92.88 374.14 92.71 373.58 92.53L371.88 92L302.88 315.81Z" fill="#198AC7"/>
</g>
<path d="M302.88 315.81L239.18 119.75C197.778 133.211 161.697 159.425 136.1 194.64L302.88 315.81Z" fill="#0A6AF1"/>
<g style="mix-blend-mode:multiply" opacity="0.1">
<path d="M302.88 315.81L248.97 149.91C213.935 161.295 183.404 183.478 161.75 213.28L302.88 315.81Z" fill="#0A6AF1"/>
</g>
<g style="mix-blend-mode:multiply" opacity="0.15">
<path d="M302.88 315.81L239.18 119.75L237.18 120.41L235.18 121.09L302.88 315.81Z" fill="#198AC7"/>
</g>
<g style="mix-blend-mode:multiply" opacity="0.15">
<path d="M302.88 315.809L138.88 190.939C138.41 191.549 137.95 192.159 137.49 192.779L136.12 194.639L302.88 315.809Z" fill="#198AC7"/>
</g>
<path d="M302.88 315.81L560.47 128.66C520.942 74.2691 465.215 33.7828 401.27 13L302.88 315.81Z" fill="url(#paint0_linear)"/>
<g style="mix-blend-mode:multiply" opacity="0.1">
<path d="M302.88 315.81L469.88 194.5C444.257 159.236 408.133 132.983 366.68 119.5L302.88 315.81Z" fill="#606675"/>
</g>
<path d="M302.88 315.81L67.99 145.16C31.9528 194.762 12.5423 254.499 12.54 315.81H302.88Z" fill="url(#paint1_linear)"/>
<g style="mix-blend-mode:multiply" opacity="0.1">
<path d="M302.88 315.81L113.28 178.07C84.1985 218.109 68.534 266.324 68.5303 315.81H302.88Z" fill="#606675"/>
</g>
<path d="M302.88 315.81H565.15C565.155 260.423 547.621 206.456 515.06 161.65L302.88 315.81Z" fill="white"/>
<g style="mix-blend-mode:multiply" opacity="0.15">
<path d="M302.88 315.81L517.14 164.55L516.14 163.1L515.09 161.65L302.88 315.81Z" fill="#198AC7"/>
</g>
<g style="mix-blend-mode:multiply" opacity="0.1">
<path d="M302.88 315.809H509.22C509.219 272.235 495.423 229.78 469.81 194.529L302.88 315.809Z" fill="#021C43"/>
</g>
<path d="M514.754 56.5519C508.262 54.8713 504.362 48.2462 506.043 41.7544C507.723 35.2625 514.348 31.3623 520.84 33.0429C527.332 34.7235 531.232 41.3486 529.552 47.8404C527.871 54.3322 521.246 58.2325 514.754 56.5519Z" stroke="#E7E7F1" stroke-width="1.12" stroke-miterlimit="10"/>
<path d="M137.625 143.058C123.728 144.014 111.687 133.523 110.731 119.626C109.775 105.728 120.266 93.6874 134.163 92.7313C148.06 91.7751 160.101 102.266 161.057 116.163C162.014 130.061 151.523 142.102 137.625 143.058Z" stroke="#0A6AF1" stroke-miterlimit="10"/>
<path d="M54.3718 247.823L52.2041 253.047C51.3349 255.146 49.5365 256.891 46.7849 258.057C37.7809 261.902 21.9698 258.177 11.4698 249.734C4.17659 243.878 1.37165 237.283 3.34352 232.512L5.51121 227.289C3.53247 232.06 6.35287 238.648 13.6357 244.523C24.1358 252.965 39.9486 256.691 48.9525 252.846C51.6991 251.666 53.5009 249.921 54.3718 247.823Z" fill="#258A5F"/>
<path d="M54.3772 247.813C57.4251 240.465 48.9585 229.918 35.4666 224.254C21.9747 218.591 8.56654 219.956 5.51866 227.304C2.47079 234.651 10.9374 245.199 24.4293 250.862C37.9212 256.525 51.3293 255.16 54.3772 247.813Z" fill="#32A071"/>
<path d="M42.356 231.933C34.1937 225.517 22.0173 222.72 15.1604 225.676C8.30347 228.633 9.36326 236.23 17.5256 242.642C25.6879 249.055 37.8644 251.855 44.7212 248.897C51.5781 245.939 50.5201 238.345 42.356 231.933Z" fill="url(#paint2_linear)"/>
<path d="M46.858 230.98C46.6289 230.791 46.3999 230.604 46.1709 230.42C46.4045 230.608 46.6335 230.794 46.858 230.98Z" fill="#FFC31B"/>
<path d="M12.431 223.532C21.0966 219.795 36.3064 223.14 46.8821 230.998C56.726 239.178 57.8012 248.623 49.1322 252.363C40.4632 256.104 25.2567 252.754 14.6708 244.89C4.83548 236.712 3.76538 227.269 12.431 223.532ZM44.723 248.897C51.5799 245.941 50.5218 238.345 42.3577 231.933C34.1937 225.521 22.0172 222.72 15.1603 225.676C8.30344 228.633 9.36323 236.23 17.5255 242.642C25.6879 249.055 37.8644 251.855 44.7213 248.897H44.723Z" fill="#06D69D"/>
<path d="M14.6756 244.894L14.6484 244.873L14.6705 244.89L14.6756 244.894Z" fill="#FFC31B"/>
<path d="M14.6479 244.868C14.4057 244.695 14.1636 244.505 13.9248 244.32C14.1636 244.509 14.4057 244.695 14.6479 244.868Z" fill="#FFC31B"/>
<path d="M46.8574 230.979L46.8863 231.001L46.8574 230.979Z" fill="url(#paint3_linear)"/>
<path d="M29.161 235.675C32.1944 235.548 35.6881 235.231 39.467 238.198C42.7305 240.764 42.7563 243.152 40.5113 244.591L41.7618 245.574C42.43 246.093 42.5176 246.722 41.9559 246.957C41.3942 247.192 40.3962 246.969 39.7229 246.438L38.4381 245.429C36.5487 245.929 34.3844 245.844 32.1807 245.203C30.7361 244.783 29.6677 243.677 29.9168 242.894L29.9511 242.787C29.994 242.668 30.0624 242.56 30.1514 242.47C30.2405 242.381 30.348 242.312 30.4664 242.269C30.9096 242.077 31.5795 242.072 32.3146 242.269C33.0865 242.494 33.8935 242.571 34.6936 242.495L29.9185 238.744C26.9899 238.856 23.6765 238.723 20.3271 236.094C17.2147 233.649 17.2508 231.437 18.965 230.139L17.742 229.179C17.0738 228.66 16.9862 228.031 17.5479 227.796C18.1096 227.561 19.1076 227.784 19.7809 228.315L20.9832 229.255C22.4587 228.847 24.2605 228.85 26.2633 229.353C27.7817 229.735 28.9789 230.886 28.7247 231.712C28.6816 231.834 28.6119 231.946 28.5207 232.038C28.4295 232.131 28.3191 232.201 28.1974 232.246C27.792 232.418 27.2046 232.443 26.545 232.278C25.93 232.11 25.2881 232.064 24.6556 232.144L29.161 235.675ZM36.7995 241.675C37.5398 241.023 37.1876 240.227 36.3546 239.57C35.4116 238.831 34.3535 238.63 32.9193 238.627L36.8012 241.675H36.7995ZM25.9782 235.651L22.7146 233.092C22.4484 233.597 22.7232 234.2 23.4567 234.773C24.0974 235.278 24.8188 235.548 25.973 235.651H25.9782Z" fill="white"/>
<path d="M292.383 14.8016C278.365 18.5579 270.064 33.035 273.842 47.137C277.621 61.2391 292.048 69.626 306.067 65.8697C320.086 62.1134 328.387 47.6364 324.608 33.5343C320.83 19.4322 306.402 11.0453 292.383 14.8016Z" fill="url(#paint4_linear)"/>
<path d="M291.607 11.9039C275.972 16.0933 266.741 32.2273 270.944 47.9135C275.148 63.5997 291.208 72.9569 306.844 68.7675C322.479 64.5781 331.709 48.4441 327.506 32.7579C323.303 17.0716 307.242 7.7144 291.607 11.9039Z" stroke="url(#paint5_linear)" stroke-opacity="0.2" stroke-width="6"/>
<path d="M299.227 16.2192C305.996 16.2206 312.503 18.8495 317.393 23.5581C322.283 28.2667 325.179 34.6917 325.476 41.4946C325.491 41.111 325.502 40.7239 325.502 40.3369C325.502 33.3255 322.733 26.6013 317.805 21.6435C312.876 16.6857 306.192 13.9004 299.222 13.9004C292.252 13.9004 285.567 16.6857 280.639 21.6435C275.71 26.6013 272.941 33.3255 272.941 40.3369C272.941 40.7239 272.952 41.111 272.967 41.4946C273.265 34.69 276.161 28.2634 281.053 23.5545C285.946 18.8457 292.456 16.218 299.227 16.2192Z" fill="black"/>
<path d="M299.225 60.6942C310.402 60.6942 319.462 51.5797 319.462 40.3364C319.462 29.093 310.402 19.9785 299.225 19.9785C288.048 19.9785 278.987 29.093 278.987 40.3364C278.987 51.5797 288.048 60.6942 299.225 60.6942Z" fill="url(#paint6_linear)"/>
<path d="M299.225 63.6942C312.075 63.6942 322.462 53.2198 322.462 40.3364C322.462 27.453 312.075 16.9785 299.225 16.9785C286.374 16.9785 275.987 27.453 275.987 40.3364C275.987 53.2198 286.374 63.6942 299.225 63.6942Z" stroke="url(#paint7_linear)" stroke-opacity="0.2" stroke-width="6"/>
<path d="M308.02 46.0174C308.02 40.8165 303.927 39.4722 300.564 38.1348V31.9145C301.255 32.0892 301.881 32.462 302.365 32.9875C302.753 33.3943 303.265 33.657 303.82 33.7326C304.375 33.8083 304.939 33.6924 305.419 33.4039C305.741 33.214 306.017 32.9538 306.226 32.6425C306.434 32.3312 306.571 31.9768 306.625 31.6054C306.68 31.2339 306.65 30.8549 306.54 30.4963C306.429 30.1378 306.24 29.8087 305.986 29.5334C304.554 27.9784 302.663 27.1006 300.564 26.8431V25.1947C300.564 24.9758 300.521 24.759 300.437 24.5567C300.354 24.3544 300.232 24.1705 300.078 24.0157C299.924 23.8609 299.742 23.7381 299.54 23.6543C299.339 23.5705 299.124 23.5273 298.906 23.5273C298.466 23.5273 298.045 23.703 297.734 24.0157C297.423 24.3284 297.249 24.7525 297.249 25.1947V26.8794C293.708 27.5101 290.706 29.9896 290.706 34.2834C290.706 38.8951 294.014 40.6627 297.249 41.9673V48.5418C296.388 48.2992 295.616 47.8099 295.028 47.1336C294.648 46.682 294.123 46.3779 293.544 46.2738C292.965 46.1697 292.369 46.2722 291.857 46.5634L291.685 46.6671C291.375 46.8455 291.106 47.0894 290.898 47.3819C290.69 47.6745 290.548 48.0088 290.48 48.3619C290.413 48.7151 290.422 49.0788 290.507 49.428C290.592 49.7773 290.752 50.1039 290.974 50.3855C292.434 52.1859 294.596 53.3384 297.254 53.6978V55.4654C297.254 55.9078 297.428 56.3321 297.739 56.6451C298.05 56.958 298.471 57.1341 298.911 57.1346C299.351 57.1341 299.773 56.958 300.083 56.6451C300.394 56.3321 300.569 55.9078 300.569 55.4654V53.7376C304.846 53.2226 308.02 50.5099 308.02 46.0174ZM295.775 34.3335C295.765 33.8503 295.901 33.3755 296.164 32.9711C296.427 32.5666 296.805 32.2514 297.249 32.0665V36.559C296.172 35.8678 295.775 35.2095 295.775 34.3266V34.3335ZM300.564 48.6559V43.3029C302.07 44.0079 302.915 44.7509 302.915 46.0485C302.915 47.1975 302.216 48.2723 300.564 48.649V48.6559Z" fill="white"/>
<path d="M513.313 246.979L516.711 253.36C518.764 257.204 518.718 262.218 516.106 267.843C509.858 281.288 491.29 293.139 474.629 294.32C464.94 295.003 458.03 291.915 455.176 286.571L451.777 280.19C454.632 285.536 461.542 288.622 471.233 287.938C487.892 286.767 506.462 274.912 512.71 261.461C515.322 255.846 515.365 250.832 513.313 246.979Z" fill="url(#paint8_linear)"/>
<path d="M511.859 262.397C512.043 262.042 512.219 261.686 512.387 261.329C506.138 274.775 487.568 286.625 470.91 287.803C454.694 288.943 446.266 279.54 451.594 266.634C458.314 253.63 476.336 242.37 492.548 241.23C508.76 240.091 517.192 249.485 511.859 262.397ZM473.518 282.206C486.347 281.295 500.647 272.179 505.461 261.816C510.275 251.454 503.769 243.787 490.939 244.699C478.11 245.61 463.812 254.726 458.996 265.089C454.179 275.451 460.684 283.113 473.513 282.211L473.518 282.206Z" fill="url(#paint9_linear)"/>
<path d="M490.94 244.7C503.77 243.789 510.269 251.462 505.457 261.822C500.646 272.183 486.348 281.31 473.514 282.212C460.68 283.115 454.185 275.448 458.997 265.09C463.809 254.732 478.104 245.598 490.94 244.7Z" fill="#0A6AF1"/>
<path d="M493.541 239.094C510.202 237.922 518.641 247.875 512.395 261.334C512.227 261.693 512.051 262.049 511.867 262.403C517.193 249.483 508.765 240.087 492.549 241.229C476.332 242.371 458.313 253.631 451.598 266.635C451.745 266.282 451.897 265.929 452.064 265.571C458.315 252.118 476.883 240.265 493.541 239.094Z" fill="#0A6AF1"/>
<path d="M484.714 261.307C488.001 262.266 492.124 263.176 489.897 267.968C487.974 272.109 483.169 274.867 478.028 275.699L477.292 277.294C476.898 278.142 475.724 278.889 474.675 278.964C473.626 279.04 473.09 278.411 473.484 277.563L474.252 275.92C471.354 275.803 469.365 274.919 468.461 273.376C467.865 272.364 469.037 270.703 470.867 269.892L471.116 269.782C471.606 269.561 472.129 269.425 472.664 269.379C473.493 269.32 474.175 269.557 474.51 270.063C474.895 270.632 475.534 271.008 476.456 271.179L479.27 265.122C476.116 264.183 473.076 262.82 475.049 258.572C476.884 254.623 481.393 252.088 485.726 251.222L486.449 249.668C486.841 248.82 488.015 248.073 489.066 248C490.117 247.927 490.652 248.554 490.255 249.401L489.548 250.922C491.848 250.99 493.626 251.651 494.623 252.961C495.368 253.953 494.24 255.714 492.315 256.573C491.806 256.806 491.262 256.948 490.706 256.995C489.949 257.05 489.315 256.861 488.989 256.43C488.663 255.999 488.117 255.701 487.383 255.587L484.714 261.307ZM480.212 270.999C482.267 270.518 483.529 269.472 484.021 268.413C484.576 267.218 483.925 266.589 482.498 266.072L480.212 270.999ZM481.583 260.117L483.504 255.983C482.217 256.466 481.275 257.262 480.842 258.189C480.464 259.003 480.638 259.577 481.583 260.117Z" fill="white"/>
<defs>
<linearGradient id="paint0_linear" x1="431.675" y1="13" x2="431.675" y2="315.81" gradientUnits="userSpaceOnUse">
<stop stop-color="#1C6CDD"/>
<stop offset="1" stop-color="#014CB6"/>
</linearGradient>
<linearGradient id="paint1_linear" x1="157.71" y1="145.16" x2="157.71" y2="315.81" gradientUnits="userSpaceOnUse">
<stop stop-color="#3EA88B"/>
<stop offset="1" stop-color="#06D69D"/>
</linearGradient>
<linearGradient id="paint2_linear" x1="29.9411" y1="224.498" x2="29.9411" y2="250.076" gradientUnits="userSpaceOnUse">
<stop stop-color="#3EA88B"/>
<stop offset="1" stop-color="#06D69D"/>
</linearGradient>
<linearGradient id="paint3_linear" x1="46.8719" y1="230.979" x2="46.8719" y2="231.001" gradientUnits="userSpaceOnUse">
<stop stop-color="#3EA88B"/>
<stop offset="1" stop-color="#06D69D"/>
</linearGradient>
<linearGradient id="paint4_linear" x1="306.067" y1="65.8697" x2="292.383" y2="14.8016" gradientUnits="userSpaceOnUse">
<stop stop-color="#00204F"/>
<stop offset="1" stop-color="#07162C"/>
</linearGradient>
<linearGradient id="paint5_linear" x1="306.067" y1="65.8697" x2="292.383" y2="14.8016" gradientUnits="userSpaceOnUse">
<stop stop-color="#FAD5C8"/>
<stop offset="1" stop-color="#F9B8B5"/>
</linearGradient>
<linearGradient id="paint6_linear" x1="299.225" y1="19.9785" x2="299.225" y2="60.6942" gradientUnits="userSpaceOnUse">
<stop stop-color="#00204F"/>
<stop offset="1" stop-color="#07162C"/>
</linearGradient>
<linearGradient id="paint7_linear" x1="299.225" y1="19.9785" x2="299.225" y2="60.6942" gradientUnits="userSpaceOnUse">
<stop stop-color="#FAD5C8"/>
<stop offset="1" stop-color="#F9B8B5"/>
</linearGradient>
<linearGradient id="paint8_linear" x1="451.777" y1="270.703" x2="518.172" y2="270.703" gradientUnits="userSpaceOnUse">
<stop stop-color="#0057D1"/>
<stop offset="0.26" stop-color="#0856C4"/>
<stop offset="0.5" stop-color="#00A0FF"/>
<stop offset="1" stop-color="#0856C4"/>
</linearGradient>
<linearGradient id="paint9_linear" x1="481.727" y1="241.137" x2="481.727" y2="287.897" gradientUnits="userSpaceOnUse">
<stop stop-color="#1C6CDD"/>
<stop offset="1" stop-color="#014CB6"/>
</linearGradient>
</defs>
</svg>
