<svg width="144" height="48" viewBox="0 0 144 48" fill="none" xmlns="http://www.w3.org/2000/svg">
<path d="M132.161 0.000155999H11.4416C11.0015 0.000155999 10.5668 0.000155999 10.1279 0.00255599C9.76053 0.00495598 9.39608 0.011928 9.02517 0.0177959C8.21939 0.0272781 7.4155 0.0981672 6.6205 0.229847C5.82661 0.364394 5.05759 0.618053 4.33945 0.982245C3.62219 1.34952 2.9668 1.82675 2.39708 2.39663C1.82436 2.96491 1.34695 3.62176 0.983217 4.34193C0.618478 5.06067 0.365567 5.83086 0.233219 6.62591C0.0996128 7.41995 0.027718 8.22315 0.0181799 9.0283C0.00704398 9.39622 0.00586798 9.76536 0 10.1333V37.8704C0.00586798 38.243 0.00704398 38.6039 0.0181799 38.9766C0.0277209 39.7817 0.0996157 40.5849 0.233219 41.3789C0.365202 42.1744 0.618128 42.945 0.983217 43.6641C1.34679 44.3819 1.82426 45.0361 2.39708 45.6012C2.96464 46.1736 3.62045 46.6512 4.33945 47.0156C5.05759 47.3808 5.82652 47.636 6.6205 47.7726C7.41564 47.9032 8.21944 47.9741 9.02517 47.9848C9.39608 47.9929 9.76053 47.9976 10.1279 47.9976C10.5668 48 11.0016 48 11.4416 48H132.161C132.593 48 133.031 48 133.462 47.9976C133.828 47.9976 134.203 47.9929 134.568 47.9848C135.373 47.9747 136.175 47.9038 136.968 47.7726C137.765 47.635 138.537 47.3799 139.258 47.0156C139.977 46.651 140.632 46.1734 141.199 45.6012C141.77 45.0339 142.249 44.3802 142.617 43.6641C142.979 42.9445 143.23 42.174 143.36 41.3789C143.493 40.5848 143.568 39.7818 143.582 38.9766C143.587 38.6039 143.587 38.243 143.587 37.8704C143.596 37.4344 143.596 37.0008 143.596 36.5578V11.4435C143.596 11.004 143.596 10.5681 143.587 10.1333C143.587 9.76536 143.587 9.39622 143.582 9.02825C143.568 8.22304 143.493 7.42001 143.36 6.62586C143.229 5.83128 142.979 5.06114 142.617 4.34189C141.876 2.89838 140.701 1.72338 139.258 0.982137C138.537 0.618835 137.765 0.365243 136.968 0.229739C136.175 0.097479 135.373 0.0265652 134.568 0.0176279C134.203 0.011772 133.828 0.00473998 133.462 0.00239999C133.031 0 132.593 0 132.161 0V0.000155999Z" fill="white"/>
<path d="M10.134 46.9506C9.76839 46.9506 9.41161 46.946 9.04886 46.9378C8.2974 46.928 7.5477 46.8626 6.8059 46.7421C6.11421 46.6229 5.44415 46.4014 4.81782 46.0846C4.19723 45.7705 3.63121 45.3586 3.14142 44.8647C2.64455 44.3766 2.23089 43.8105 1.91682 43.1889C1.59928 42.5632 1.37953 41.8925 1.26522 41.2003C1.14177 40.4564 1.07498 39.7042 1.06542 38.9503C1.05781 38.6972 1.04785 37.8545 1.04785 37.8545V10.134C1.04785 10.134 1.05846 9.30427 1.06548 9.06052C1.07463 8.30774 1.14103 7.55674 1.26411 6.81404C1.37864 6.11986 1.59856 5.44727 1.91626 4.81953C2.22918 4.1983 2.64055 3.63181 3.13443 3.14199C3.62775 2.64752 4.19559 2.2335 4.81723 1.91503C5.44212 1.59929 6.11092 1.37926 6.80121 1.2623C7.54544 1.14058 8.29775 1.07478 9.05181 1.06543L10.1346 1.05078H133.456L134.552 1.06602C135.299 1.0749 136.045 1.14012 136.782 1.26113C137.48 1.37955 138.155 1.60112 138.787 1.91855C140.033 2.56036 141.046 3.57577 141.685 4.82245C141.998 5.44586 142.214 6.11297 142.328 6.80115C142.452 7.54995 142.522 8.30684 142.536 9.0658C142.54 9.40563 142.54 9.77067 142.54 10.134C142.549 10.584 142.549 11.0123 142.549 11.4441V36.5584C142.549 36.9944 142.549 37.4198 142.54 37.8487C142.54 38.2389 142.54 38.5964 142.535 38.9643C142.521 39.7097 142.452 40.4531 142.33 41.1885C142.218 41.8858 141.999 42.5617 141.682 43.1925C141.366 43.8074 140.954 44.3686 140.463 44.8553C139.973 45.3519 139.406 45.7662 138.784 46.0823C138.154 46.4015 137.479 46.6239 136.782 46.7421C136.04 46.8632 135.291 46.9286 134.539 46.9378C134.188 46.946 133.82 46.9506 133.462 46.9506L132.162 46.953L10.134 46.9506Z" fill="white"/>
<path fill-rule="evenodd" clip-rule="evenodd" d="M89.6147 34.8914C87.653 34.8914 86.2175 33.9211 86.0522 32.4434L83.7694 32.4433C83.9135 35.1386 86.1448 36.8437 89.4495 36.8437C92.9815 36.8437 95.2022 35.0976 95.2022 32.3097C95.2022 30.13 93.9319 28.9019 90.8745 28.1789L89.2327 27.7757C87.312 27.3012 86.5268 26.6812 86.5268 25.6277C86.5268 24.3059 87.7561 23.3977 89.5526 23.3977C91.3491 23.3977 92.5784 24.2953 92.7131 25.7824H94.9643C94.8917 23.2113 92.733 21.4453 89.5843 21.4453C86.4026 21.4453 84.162 23.2113 84.162 25.7824C84.162 27.859 85.4323 29.1387 88.1686 29.7996L90.0999 30.2648C92.0311 30.7395 92.8467 31.432 92.8467 32.5886C92.8467 33.9211 91.4944 34.8914 89.6147 34.8914ZM50.7625 32.5676H45.0824L43.7183 36.5953H41.3125L46.6926 21.6937H49.1922L54.5722 36.5953H52.1253L50.7625 32.5676ZM45.6707 30.7101H50.1731L47.9535 24.1734H47.8914L45.6707 30.7101ZM61.6574 36.7086C64.3843 36.7086 66.1914 34.5395 66.1914 31.1633C66.1914 27.7965 64.3737 25.6169 61.6164 25.6168C60.1975 25.5711 58.8684 26.309 58.157 27.5375H58.116V25.7305H55.9574V40.1891H58.1874V34.8078H58.239C58.9202 36.0441 60.2479 36.7823 61.6574 36.7086ZM63.8991 31.1636C63.8991 28.9641 62.7624 27.5179 61.0281 27.5179C59.3242 27.5179 58.1781 28.9945 58.1781 31.1636C58.1781 33.3527 59.3242 34.8187 61.0281 34.8187C62.7624 34.8187 63.8991 33.3832 63.8991 31.1636ZM73.6152 36.7086C76.3421 36.7086 78.1491 34.5395 78.1491 31.1633C78.1491 27.7965 76.3316 25.6168 73.5741 25.6168C72.1553 25.5711 70.8261 26.309 70.1147 27.5375H70.0737V25.7305H67.9151V40.189H70.1452V34.8078H70.1968C70.8779 36.0441 72.2056 36.7823 73.6152 36.7086ZM75.8569 31.1636C75.8569 28.9641 74.7202 27.5179 72.9858 27.5179C71.2819 27.5179 70.1358 28.9945 70.1358 31.1636C70.1358 33.3527 71.2819 34.8187 72.9858 34.8187C74.7202 34.8187 75.8569 33.3832 75.8569 31.1636ZM100.015 23.1609V25.732H102.081V27.498H100.015V33.4875C100.015 34.4179 100.429 34.8515 101.337 34.8515C101.582 34.8472 101.827 34.83 102.07 34.7999V36.5554C101.662 36.6317 101.247 36.6662 100.832 36.6585C98.6322 36.6585 97.7744 35.8323 97.7744 33.7253V27.498H96.1947V25.732H97.7744V23.1609H100.015ZM108.43 25.5984C105.291 25.5984 103.278 27.7465 103.278 31.1648C103.278 34.5925 105.271 36.7312 108.43 36.7312C111.591 36.7312 113.584 34.5925 113.584 31.1648C113.584 27.7464 111.58 25.5984 108.43 25.5984ZM111.312 31.1648C111.312 28.8199 110.237 27.4359 108.43 27.4359C106.623 27.4359 105.55 28.8304 105.55 31.1648C105.55 33.5191 106.623 34.8925 108.43 34.8925C110.237 34.8925 111.312 33.5191 111.312 31.1648ZM117.55 25.7304H115.423L115.423 36.5948H117.653V30.1507C117.579 29.4988 117.793 28.8469 118.24 28.3664C118.687 27.8858 119.321 27.6245 119.977 27.6511C120.316 27.6412 120.654 27.6867 120.979 27.7859V25.6999C120.728 25.6438 120.472 25.6158 120.215 25.6167C118.989 25.5699 117.898 26.3892 117.601 27.5796H117.55V25.7304ZM131.261 33.4054C130.961 35.3777 129.04 36.7312 126.583 36.7312C123.422 36.7312 121.46 34.6136 121.46 31.2164C121.46 27.8086 123.433 25.5984 126.489 25.5984C129.495 25.5984 131.385 27.6633 131.385 30.9574V31.7215H123.711V31.8562C123.64 32.665 123.919 33.4657 124.478 34.0545C125.037 34.6432 125.823 34.9634 126.634 34.9335C127.716 35.0349 128.737 34.4135 129.143 33.4054L131.261 33.4054ZM129.154 30.1611H123.722C123.72 29.4276 124.011 28.7237 124.531 28.2059C125.05 27.6881 125.755 27.3993 126.489 27.4037C127.217 27.3881 127.918 27.6767 128.424 28.2002C128.93 28.7236 129.194 29.4343 129.154 30.1611Z" fill="black"/>
<path fill-rule="evenodd" clip-rule="evenodd" d="M70.912 10.125H71.9784V17.6379H70.912V10.125ZM47.9177 11.4591C47.265 10.7699 46.3377 10.4097 45.391 10.4777H42.8047V17.6379H45.391C47.5238 17.6379 48.7601 16.323 48.7601 14.0355C48.8795 13.0938 48.5703 12.1483 47.9177 11.4591ZM45.2668 16.6259H43.9168V11.4902H45.2668C45.9398 11.4528 46.5942 11.7182 47.0512 12.2137C47.5081 12.7092 47.7197 13.383 47.6281 14.0507C47.7269 14.7213 47.5183 15.4007 47.0602 15.9002C46.6022 16.3998 45.9434 16.6664 45.2668 16.6259ZM50.0162 14.9349C49.9235 13.9664 50.3879 13.029 51.2147 12.516C52.0414 12.003 53.0874 12.003 53.9142 12.516C54.7409 13.029 55.2053 13.9664 55.1126 14.9349C55.2071 15.9045 54.7431 16.8436 53.9156 17.3577C53.0882 17.8719 52.0406 17.8719 51.2132 17.3577C50.3857 16.8436 49.9218 15.9045 50.0162 14.9349ZM52.5663 13.0781C53.4898 13.0781 54.0159 13.7631 54.0159 14.9344H54.0159C54.0159 16.1103 53.4898 16.7947 52.5663 16.7947C51.6394 16.7947 51.1179 16.115 51.1179 14.9344C51.1179 13.7631 51.6394 13.0781 52.5663 13.0781ZM61.8874 17.6379H60.7812L59.6644 13.6582H59.58L58.4679 17.6379H57.3722L55.8828 12.2344H56.9644L57.9324 16.3576H58.0121L59.123 12.2344H60.146L61.257 16.3576H61.3413L62.3046 12.2344H63.371L61.8874 17.6379ZM65.6503 12.2339H64.6238L64.6238 17.6374H65.6902V14.4762C65.6519 14.1166 65.7726 13.7583 66.0206 13.4951C66.2686 13.2319 66.6192 13.0901 66.9804 13.1069C67.7691 13.1069 68.1464 13.5388 68.1464 14.4071V17.6373H69.2128V14.1393C69.291 13.611 69.1247 13.0758 68.7608 12.6848C68.397 12.2938 67.8751 12.0895 67.3425 12.1296C66.6547 12.0737 66.0071 12.4603 65.73 13.0923H65.6503V12.2339ZM74.6593 12.5137C73.8325 13.0267 73.368 13.964 73.4606 14.9326C73.3663 15.9023 73.8304 16.8414 74.6579 17.3555C75.4854 17.8696 76.5329 17.8696 77.3604 17.3555C78.1879 16.8414 78.652 15.9023 78.5577 14.9326C78.6502 13.964 78.1857 13.0267 77.359 12.5137C76.5322 12.0006 75.4861 12.0006 74.6593 12.5137ZM77.4604 14.9344C77.4604 13.7631 76.9342 13.0781 76.0108 13.0781C75.0838 13.0781 74.5624 13.7631 74.5624 14.9344C74.5624 16.115 75.0839 16.7947 76.0108 16.7947C76.9342 16.7947 77.4604 16.1103 77.4604 14.9344ZM81.6903 14.4978C80.4048 14.5775 79.6805 15.1383 79.6805 16.1109C79.6824 16.5721 79.8792 17.011 80.2223 17.3191C80.5655 17.6272 81.023 17.7758 81.4817 17.7281C82.1361 17.7583 82.7561 17.4342 83.1048 16.8797H83.1891V17.639H84.2157V13.9471C84.2157 12.8056 83.4516 12.1312 82.0969 12.1312C80.8712 12.1312 79.9981 12.7265 79.8891 13.6547H80.9216C81.0399 13.2726 81.4524 13.0541 82.0477 13.0541C82.7766 13.0541 83.154 13.3763 83.154 13.9471V14.4135L81.6903 14.4978ZM83.154 15.6486V15.1969L81.8344 15.2812C81.0903 15.331 80.7528 15.5842 80.7528 16.0605C80.7528 16.5468 81.1747 16.8298 81.7548 16.8298C82.0982 16.8646 82.4411 16.7585 82.7048 16.5358C82.9686 16.3132 83.1306 15.993 83.154 15.6486ZM87.8602 12.1447C86.495 12.1447 85.6172 13.2264 85.6172 14.9338C85.6172 16.6453 86.4856 17.727 87.8602 17.7269C88.5571 17.7526 89.2107 17.3895 89.5571 16.7842H89.6415V17.6379H90.6633V10.125H89.5969V13.0927H89.5172C89.1952 12.4824 88.5496 12.113 87.8602 12.1447ZM86.7188 14.9349C86.7188 16.081 87.2591 16.7707 88.1626 16.7707C89.0614 16.7707 89.6169 16.0711 89.6169 14.9396C89.6169 13.8135 89.0556 13.1039 88.1626 13.1039C87.2649 13.1039 86.7188 13.7982 86.7188 14.9349H86.7188ZM96.2737 12.516C95.447 13.029 94.9825 13.9664 95.0752 14.9349C94.9808 15.9045 95.4448 16.8436 96.2722 17.3577C97.0997 17.8719 98.1472 17.8719 98.9746 17.3577C99.8021 16.8436 100.266 15.9045 100.172 14.9349C100.264 13.9664 99.7999 13.029 98.9732 12.516C98.1465 12.003 97.1004 12.003 96.2737 12.516ZM99.075 14.9344C99.075 13.7631 98.5488 13.0781 97.6254 13.0781C96.6984 13.0781 96.177 13.7631 96.177 14.9344C96.177 16.115 96.6985 16.7947 97.6254 16.7947C98.5488 16.7947 99.075 16.1103 99.075 14.9344ZM102.629 12.2339H101.603V17.6374H102.669V14.4762C102.631 14.1166 102.752 13.7583 103 13.4951C103.248 13.2319 103.598 13.0901 103.959 13.1069C104.748 13.1069 105.125 13.5388 105.125 14.4071V17.6373H106.192V14.1393C106.27 13.611 106.104 13.0758 105.74 12.6848C105.376 12.2938 104.854 12.0895 104.321 12.1296C103.634 12.0737 102.986 12.4603 102.709 13.0923H102.629V12.2339ZM112.218 10.8891V12.259H113.388V13.1572H112.218V15.9357C112.218 16.5017 112.451 16.7496 112.982 16.7496C113.118 16.7492 113.253 16.7409 113.388 16.725V17.6133C113.197 17.6475 113.003 17.6657 112.808 17.6677C111.622 17.6677 111.15 17.2506 111.15 16.2088V13.1572H110.292V12.2589H111.15V10.8891H112.218ZM115.902 10.125H114.845L114.845 17.6379H115.911V14.482C115.878 14.1112 116.011 13.7448 116.273 13.4807C116.535 13.2165 116.901 13.0817 117.272 13.1121C118.025 13.1121 118.427 13.5492 118.427 14.4123V17.6379H119.495V14.1492C119.565 13.6236 119.398 13.0939 119.038 12.7043C118.678 12.3148 118.163 12.106 117.634 12.1348C116.936 12.0781 116.277 12.4652 115.986 13.1027H115.902V10.125ZM125.713 16.1778C125.414 17.1971 124.428 17.8556 123.372 17.7411C122.651 17.7601 121.959 17.4614 121.478 16.9243C120.997 16.3873 120.777 15.666 120.876 14.952C120.78 14.236 120.999 13.5137 121.477 12.972C121.955 12.4304 122.645 12.1228 123.367 12.129C124.87 12.129 125.777 13.1562 125.777 14.853V15.2251H121.962V15.2848C121.928 15.6858 122.065 16.0824 122.339 16.3771C122.613 16.6718 122.999 16.8373 123.401 16.8328C123.923 16.8955 124.431 16.6367 124.686 16.1778L125.713 16.1778ZM124.691 14.4384H121.962C121.957 14.0658 122.103 13.707 122.366 13.4435C122.63 13.1799 122.988 13.0339 123.361 13.0386C123.729 13.0302 124.083 13.1774 124.336 13.444C124.589 13.7105 124.718 14.0717 124.691 14.4384Z" fill="black"/>
<path fill-rule="evenodd" clip-rule="evenodd" d="M27.7828 10.4648C27.8989 11.9819 27.4192 13.4845 26.4453 14.6536C25.5005 15.8287 24.069 16.5055 22.5612 16.49C22.4653 15.0166 22.9591 13.5655 23.9337 12.4564C24.9207 11.3322 26.295 10.6211 27.7828 10.4648ZM32.5509 19.3779C30.8165 20.4442 29.7493 22.3246 29.723 24.3604C29.7255 26.6636 31.1048 28.7421 33.2261 29.6393C32.8181 30.9646 32.2032 32.2171 31.404 33.3503C30.3308 34.9558 29.2055 36.5243 27.4194 36.5533C26.57 36.5729 25.9966 36.3286 25.3991 36.0741C24.7759 35.8086 24.1265 35.532 23.1102 35.532C22.0324 35.532 21.3539 35.8175 20.6996 36.0929C20.134 36.3309 19.5865 36.5613 18.815 36.5933C17.114 36.6563 15.8141 34.8798 14.7018 33.2894C12.4787 30.0415 10.7476 24.1362 13.0684 20.1181C14.1582 18.1598 16.1959 16.9171 18.4359 16.8447C19.4006 16.8249 20.3263 17.1967 21.1378 17.5227C21.7585 17.772 22.3124 17.9945 22.766 17.9945C23.1648 17.9945 23.7033 17.7808 24.3308 17.5317C25.3193 17.1394 26.5289 16.6593 27.7615 16.7887C29.6768 16.8486 31.4518 17.8082 32.5509 19.3779Z" fill="black"/>
</svg>
