<svg width="66" height="65" viewBox="0 0 66 65" fill="none" xmlns="http://www.w3.org/2000/svg">
<path d="M21.4676 23.3826C21.4676 19.9264 17.2889 18.1955 14.845 20.6394L11.1499 24.3345C10.4224 25.062 10.0137 26.0487 10.0136 27.0776L10.0136 51.3715C10.0136 53.5141 11.7505 55.251 13.8931 55.251L38.1869 55.251C39.2158 55.251 40.2026 54.8423 40.9301 54.1147L44.6252 50.4197C47.0691 47.9758 45.3382 43.797 41.882 43.797L29.268 43.797L51.2895 21.7755C52.8046 20.2604 52.8046 17.8041 51.2895 16.2891L47.8605 12.8601C46.3455 11.3451 43.8892 11.3451 42.3742 12.8601L21.4676 33.7667L21.4676 23.3826Z" fill="url(#paint0_linear)"/>
<defs>
<linearGradient id="paint0_linear" x1="15.7511" y1="19.7333" x2="45.5313" y2="49.5135" gradientUnits="userSpaceOnUse">
<stop stop-color="#3EA88B"/>
<stop offset="1" stop-color="#06D69D"/>
</linearGradient>
</defs>
</svg>
