<svg width="62" height="62" viewBox="0 0 62 62" fill="none" xmlns="http://www.w3.org/2000/svg">
<path d="M13.0479 22.6982C13.0379 22.4724 13.0342 22.2454 13.0342 22.0171C13.0342 12.0946 21.078 4.05078 31.0005 4.05078C40.9229 4.05078 48.9667 12.0946 48.9667 22.0171C48.9667 22.2454 48.963 22.4724 48.953 22.6982L31.0005 31.9406L13.0479 22.6982Z" fill="url(#paint0_linear)"/>
<path d="M31 52.3487C27.7266 55.798 23.0972 57.9487 17.9663 57.9487C8.04378 57.9487 0 49.9049 0 39.9824C0 31.7652 5.51638 24.8367 13.0474 22.6973L27.8353 35.4277L31 52.3487Z" fill="url(#paint1_linear)"/>
<path d="M31.0004 27.6175C28.0888 30.6851 26.2487 34.7806 26.0816 39.3027C18.7588 37.2232 13.3423 30.6152 13.0479 22.6987C14.6109 22.2546 16.2614 22.0176 17.9667 22.0176C23.0976 22.0176 27.727 24.1682 31.0004 27.6175Z" fill="white"/>
<path d="M48.9525 22.6973C56.4836 24.8367 62 31.7652 62 39.9824C62 49.9049 53.9562 57.9487 44.0337 57.9487C38.9028 57.9487 34.2734 55.798 31 52.3487L33.0744 36.1253L48.9525 22.6973Z" fill="url(#paint2_linear)"/>
<path d="M48.9526 22.6987C48.6581 30.6152 43.2416 37.2232 35.9188 39.3027C35.7517 34.7806 33.9116 30.6851 31 27.6175C34.2734 24.1682 38.9028 22.0176 44.0337 22.0176C45.739 22.0176 47.3895 22.2546 48.9526 22.6987Z" fill="white"/>
<path d="M35.9187 39.3024C34.3556 39.7465 32.7052 39.9835 30.9999 39.9835C29.2946 39.9835 27.6442 39.7465 26.0811 39.3024C26.2482 34.7802 28.0883 30.6848 30.9999 27.6172C33.9115 30.6848 35.7516 34.7802 35.9187 39.3024Z" fill="url(#paint3_linear)"/>
<path d="M35.9325 39.9839C35.9325 44.7755 34.0563 49.1292 30.9999 52.3502C27.9436 49.1292 26.0674 44.7755 26.0674 39.9839C26.0674 39.7556 26.0711 39.5285 26.0811 39.3027C27.6442 39.7468 29.2946 39.9839 30.9999 39.9839C32.7052 39.9839 34.3557 39.7468 35.9188 39.3027C35.9287 39.5285 35.9325 39.7556 35.9325 39.9839Z" fill="white"/>
<defs>
<linearGradient id="paint0_linear" x1="31.0005" y1="4.05078" x2="31.0005" y2="31.9406" gradientUnits="userSpaceOnUse">
<stop stop-color="#3EA88B"/>
<stop offset="1" stop-color="#06D69D"/>
</linearGradient>
<linearGradient id="paint1_linear" x1="15.5" y1="22.6973" x2="15.5" y2="57.9487" gradientUnits="userSpaceOnUse">
<stop stop-color="#3EA88B"/>
<stop offset="1" stop-color="#06D69D"/>
</linearGradient>
<linearGradient id="paint2_linear" x1="46.5" y1="22.6973" x2="46.5" y2="57.9487" gradientUnits="userSpaceOnUse">
<stop stop-color="#3EA88B"/>
<stop offset="1" stop-color="#06D69D"/>
</linearGradient>
<linearGradient id="paint3_linear" x1="30.9999" y1="27.6172" x2="30.9999" y2="39.9835" gradientUnits="userSpaceOnUse">
<stop stop-color="#3EA88B"/>
<stop offset="1" stop-color="#06D69D"/>
</linearGradient>
</defs>
</svg>
