<svg width="56" height="56" viewBox="0 0 56 56" fill="none" xmlns="http://www.w3.org/2000/svg">
<path fill-rule="evenodd" clip-rule="evenodd" d="M55.9998 20.7851C55.9998 29.105 49.2318 35.873 40.9119 35.873C32.592 35.873 25.824 29.105 25.824 20.7851C25.824 12.4653 32.592 5.69727 40.9119 5.69727C49.2318 5.69727 55.9998 12.4653 55.9998 20.7851ZM40.6579 8.99709C38.7757 12.2079 34.9117 18.7955 34.5131 19.4598L40.6579 23.2795L46.9687 19.4598L40.6579 8.99709ZM40.824 31.381L34.6792 22.7451L40.824 26.2327L46.8026 22.7451L40.824 31.381Z" fill="#06D69D"/>
<path d="M18.2802 27.2496C19.4689 27.2496 20.4356 28.2163 20.4356 29.405C20.4356 30.5937 19.4689 31.5604 18.2802 31.5604H15.0471V27.2496H18.2802Z" fill="#06D69D"/>
<path d="M18.2802 38.0267H15.0471V33.7158H18.2802C19.4689 33.7158 20.4356 34.6825 20.4356 35.8712C20.4356 37.06 19.4689 38.0267 18.2802 38.0267Z" fill="#06D69D"/>
<path fill-rule="evenodd" clip-rule="evenodd" d="M23.6688 20.7845C23.6688 19.8095 23.7502 18.8531 23.9065 17.9218C21.8642 16.9898 19.5941 16.4705 17.2027 16.4705C8.27469 16.4705 1.03711 23.7081 1.03711 32.6361C1.03711 41.5641 8.27469 48.8017 17.2027 48.8017C24.9414 48.8017 31.4101 43.3639 32.9961 36.1008C27.46 33.2278 23.6688 27.4403 23.6688 20.7845ZM22.591 29.405C22.591 30.6993 22.0069 31.8471 21.1016 32.6381C22.0069 33.4292 22.591 34.5769 22.591 35.8712C22.591 37.8747 21.2115 39.5473 19.3579 40.029V42.3375H17.2025V40.1821H16.1248V42.3375H13.9694V40.1821H11.8139V38.0267H12.8917V27.2496H11.8139V25.0942H13.9694V22.9388H16.1248V25.0942H17.2025V22.9388H19.3579V25.2472C21.2115 25.729 22.591 27.4016 22.591 29.405Z" fill="#06D69D"/>
</svg>
