<svg width="69" height="69" viewBox="0 0 69 69" fill="none" xmlns="http://www.w3.org/2000/svg">
<path d="M50.0862 31.5957C39.884 31.5957 31.666 39.8137 31.666 50.0159C31.666 60.2174 39.884 68.4361 50.0862 68.4361C60.2878 68.4361 68.5064 60.2174 68.5064 50.0159C68.5064 39.8137 60.2878 31.5957 50.0862 31.5957ZM55.754 45.7651H52.9201V44.3481C52.9201 43.4978 52.3528 42.9312 51.5032 42.9312H48.6693C47.819 42.9312 47.2523 43.4978 47.2523 44.3481V45.7651H50.0862V48.599H47.2523V51.4328H50.0862V54.2667H47.2523V55.6837C47.2523 56.5333 47.819 57.1006 48.6693 57.1006H51.5032C52.3528 57.1006 52.9201 56.5333 52.9201 55.6837V54.2667H55.754V55.6837C55.754 58.092 53.9115 59.9345 51.5032 59.9345H48.6693C46.2602 59.9345 44.4185 58.092 44.4185 55.6837V54.2667H41.5846V51.4328H44.4185V48.599H41.5846V45.7651H44.4185V44.3481C44.4185 41.9391 46.2602 40.0973 48.6693 40.0973H51.5032C53.9115 40.0973 55.754 41.9391 55.754 44.3481V45.7651Z" fill="url(#paint0_linear)"/>
<path d="M18.9143 37.2642C29.1159 37.2642 37.3345 29.0456 37.3345 18.844C37.3345 8.64179 29.1159 0.423828 18.9143 0.423828C8.71211 0.423828 0.494141 8.64179 0.494141 18.844C0.494141 29.0456 8.71211 37.2642 18.9143 37.2642ZM13.2466 23.0948H16.0805V24.5118C16.0805 25.3614 16.6471 25.9287 17.4974 25.9287H20.3313C21.1809 25.9287 21.7482 25.3614 21.7482 24.5118V21.6779C21.7482 20.8276 21.1809 20.261 20.3313 20.261H17.4974C15.0883 20.261 13.2466 18.4185 13.2466 16.0101V13.1763C13.2466 10.7672 15.0883 8.92546 17.4974 8.92546V6.09158H20.3313V8.92546C22.7397 8.92546 24.5821 10.7672 24.5821 13.1763V14.5932H21.7482V13.1763C21.7482 12.326 21.1809 11.7593 20.3313 11.7593H17.4974C16.6471 11.7593 16.0805 12.326 16.0805 13.1763V16.0101C16.0805 16.8598 16.6471 17.4271 17.4974 17.4271H20.3313C22.7397 17.4271 24.5821 19.2688 24.5821 21.6779V24.5118C24.5821 26.9202 22.7397 28.7626 20.3313 28.7626V31.5965H17.4974V28.7626C15.0883 28.7626 13.2466 26.9202 13.2466 24.5118V23.0948Z" fill="url(#paint1_linear)"/>
<defs>
<linearGradient id="paint0_linear" x1="50.0862" y1="31.5957" x2="50.0862" y2="68.4361" gradientUnits="userSpaceOnUse">
<stop stop-color="#3EA88B"/>
<stop offset="1" stop-color="#06D69D"/>
</linearGradient>
<linearGradient id="paint1_linear" x1="18.9143" y1="0.423828" x2="18.9143" y2="37.2642" gradientUnits="userSpaceOnUse">
<stop stop-color="#3EA88B"/>
<stop offset="1" stop-color="#06D69D"/>
</linearGradient>
</defs>
</svg>
