<svg width="56" height="56" viewBox="0 0 56 56" fill="none" xmlns="http://www.w3.org/2000/svg">
<g clip-path="url(#clip0)">
<path d="M47.8333 5.83399H8.16671C4.95284 5.82874 2.34315 8.4299 2.3379 11.6439C2.33746 11.9054 2.35463 12.1666 2.38941 12.4257C2.4721 13.0647 3.05715 13.5156 3.69623 13.4329C3.85187 13.4128 4.00182 13.3615 4.13712 13.282C4.65184 12.9825 5.23798 12.8278 5.83341 12.834H14.1401C15.6392 12.8382 16.9711 13.7916 17.4581 15.2093L17.6564 15.8486C18.4592 18.225 20.6851 19.8271 23.1934 19.8339H50.1667C50.7786 19.8344 51.3795 19.9953 51.9097 20.3006C52.0889 20.405 52.2926 20.4597 52.5 20.4593C53.1443 20.4593 53.6667 19.9369 53.6667 19.2926V11.6673C53.6667 8.44565 51.0551 5.83399 47.8333 5.83399Z" fill="white"/>
<path d="M53.0903 18.2889C52.2028 17.7716 51.1938 17.4995 50.1666 17.5002H23.1933C21.6942 17.496 20.3623 16.5426 19.8753 15.1249L19.677 14.4856C18.8742 12.1092 16.6483 10.507 14.14 10.5003H5.8333C4.83087 10.4905 3.84442 10.7508 2.9773 11.254C1.13838 12.2831 -0.000546678 14.2261 1.96856e-07 16.3336V44.3336C1.96856e-07 47.5552 2.61166 50.1669 5.8333 50.1669H50.1666C53.3882 50.1669 55.9999 47.5552 55.9999 44.3336V23.3336C56.0071 21.2513 54.8963 19.3254 53.0903 18.2889Z" fill="url(#paint0_linear)"/>
</g>
<defs>
<linearGradient id="paint0_linear" x1="28" y1="10.5" x2="28" y2="50.1669" gradientUnits="userSpaceOnUse">
<stop stop-color="#3EA88B"/>
<stop offset="1" stop-color="#06D69D"/>
</linearGradient>
<clipPath id="clip0">
<rect width="56" height="56" fill="white"/>
</clipPath>
</defs>
</svg>
