<svg width="164" height="50" viewBox="0 0 164 50" fill="none" xmlns="http://www.w3.org/2000/svg">
<rect x="1.04785" y="1" width="162" height="48" rx="5" stroke="white"/>
<path fill-rule="evenodd" clip-rule="evenodd" d="M58.3362 28.6706V30.8306H63.5202C63.4389 31.848 63.016 32.808 62.3202 33.5546C61.2714 34.6229 59.82 35.1982 58.3242 35.1386C55.143 35.1386 52.5642 32.5598 52.5642 29.3786C52.5642 26.1974 55.143 23.6186 58.3242 23.6186C59.7855 23.5948 61.1967 24.1515 62.2482 25.1666L63.7722 23.6426C62.3381 22.1904 60.377 21.3809 58.3362 21.3986C55.4309 21.2855 52.6966 22.771 51.2104 25.2699C49.7241 27.7687 49.7241 30.8805 51.2104 33.3793C52.6966 35.8782 55.4309 37.3637 58.3362 37.2506C60.4143 37.3445 62.4315 36.535 63.8682 35.0306C65.1254 33.6493 65.7966 31.8335 65.7402 29.9666C65.744 29.5118 65.7038 29.0577 65.6202 28.6106L58.3362 28.6706ZM71.6443 27.0986C68.8292 27.1052 66.5518 29.3915 66.5563 32.2066C66.5607 35.0217 68.8452 37.3008 71.6602 37.2986C74.4753 37.2964 76.7562 35.0137 76.7563 32.1986C76.776 30.8358 76.2417 29.5234 75.2758 28.562C74.3098 27.6005 72.9949 27.0724 71.6322 27.0986H71.6443ZM77.7401 32.2145C77.7312 29.401 80.0026 27.1118 82.816 27.0986C84.1787 27.0724 85.4936 27.6005 86.4595 28.562C87.4255 29.5234 87.9598 30.8358 87.94 32.1986C87.94 35.0121 85.6615 37.2941 82.848 37.2985C80.0345 37.3029 77.7489 35.028 77.7401 32.2145ZM79.8062 33.5416C80.3542 34.6887 81.5476 35.3842 82.8158 35.2955C83.6117 35.2771 84.3665 34.9379 84.9087 34.3549C85.451 33.772 85.7348 32.9947 85.6958 32.1995C85.6927 30.9283 84.9128 29.7882 83.7292 29.3244C82.5456 28.8607 81.1988 29.1676 80.3329 30.0984C79.4671 31.0291 79.2582 32.3946 79.8062 33.5416ZM68.6264 33.55C69.1782 34.6963 70.3752 35.3883 71.644 35.2946H71.632C72.4279 35.2762 73.1827 34.937 73.7249 34.3541C74.2672 33.7711 74.551 32.9939 74.512 32.1986C74.5085 30.9264 73.7271 29.7858 72.542 29.3231C71.3569 28.8604 70.0093 29.1698 69.1447 30.1031C68.2802 31.0364 68.0746 32.4036 68.6264 33.55ZM108.34 27.1C110.33 27.1733 112.067 28.4671 112.708 30.352L112.96 30.892L106.132 33.712C106.56 34.6866 107.54 35.3006 108.604 35.26C109.631 35.2626 110.584 34.7247 111.112 33.844L112.852 35.044C111.905 36.4617 110.309 37.3092 108.604 37.3C107.249 37.3199 105.944 36.7878 104.989 35.8259C104.033 34.864 103.511 33.5552 103.54 32.2C103.457 30.8758 103.926 29.5764 104.835 28.6102C105.745 27.6441 107.013 27.0974 108.34 27.1ZM105.748 32.0561C105.699 31.3063 105.954 30.5683 106.455 30.0084C106.956 29.4485 107.661 29.114 108.412 29.0801C109.203 29.0279 109.949 29.4529 110.308 30.1601L105.748 32.0561ZM102.448 37H100.204V22H102.448V37ZM96.5321 28.2391H96.4481C95.7641 27.4743 94.7862 27.0377 93.7601 27.0391C91.0363 27.1712 88.8957 29.418 88.8957 32.1451C88.8957 34.8721 91.0363 37.119 93.7601 37.2511C94.7895 37.2684 95.7737 36.829 96.4481 36.0511H96.5201V36.7831C96.5201 38.7391 95.4761 39.7831 93.7961 39.7831C92.6517 39.7563 91.637 39.0403 91.2281 37.9711L89.2721 38.7871C90.0253 40.6192 91.8152 41.8109 93.7961 41.7991C96.4241 41.7991 98.5961 40.2511 98.5961 36.4831V27.3991H96.5321V28.2391ZM93.9601 35.2956L93.9639 35.2959H93.9519L93.9601 35.2956ZM95.9822 34.3333C95.4672 34.916 94.7369 35.2635 93.9601 35.2956C92.3574 35.1524 91.1287 33.8094 91.1287 32.1999C91.1287 30.5892 92.3593 29.2453 93.9639 29.1039C94.7392 29.1437 95.4656 29.4948 95.9785 30.0777C96.4913 30.6606 96.7471 31.4258 96.6879 32.1999C96.754 32.9776 96.4991 33.7484 95.9822 34.3333ZM123.22 21.998H117.856V36.998H120.1V31.31H123.232C124.975 31.4352 126.643 30.5762 127.552 29.0839C128.462 27.5917 128.462 25.7163 127.552 24.224C126.643 22.7318 124.975 21.8727 123.232 21.998H123.22ZM120.088 29.1979H123.22L123.268 29.2339C124.69 29.2339 125.842 28.0815 125.842 26.6599C125.842 25.2384 124.69 24.0859 123.268 24.0859H120.088V29.1979ZM137.056 27.0396C135.387 26.9398 133.817 27.8401 133.06 29.3316L135.052 30.1596C135.454 29.42 136.254 28.987 137.092 29.0556C137.668 28.9883 138.246 29.1551 138.697 29.5184C139.149 29.8817 139.435 30.411 139.492 30.9876V31.1436C138.771 30.762 137.968 30.5641 137.152 30.5676C135.004 30.5676 132.832 31.7676 132.832 33.9396C132.875 34.8752 133.295 35.7537 133.995 36.3753C134.696 36.9969 135.618 37.3086 136.552 37.2396C137.703 37.3222 138.808 36.77 139.432 35.7996H139.504V36.9996H141.664V31.2276C141.664 28.5996 139.672 27.0756 137.116 27.0756L137.056 27.0396ZM135.028 33.9871C135.028 34.8871 136.048 35.2591 136.78 35.2591L136.84 35.2951C138.192 35.2621 139.313 34.2384 139.468 32.8951C138.845 32.5475 138.141 32.3735 137.428 32.3911C136.3 32.3911 135.028 32.7871 135.028 33.9871ZM149.536 27.4L146.968 33.904H146.896L144.232 27.4H141.832L145.828 36.496L143.548 41.548H145.888L152.032 27.4H149.536ZM131.608 37H129.364V22H131.608V37Z" fill="white"/>
<path fill-rule="evenodd" clip-rule="evenodd" d="M84.0999 10.3238C82.6843 11.8223 82.6843 14.1652 84.0999 15.6638C85.5604 17.116 87.9195 17.116 89.3799 15.6638C90.8017 14.1677 90.8017 11.8199 89.3799 10.3238C88.6815 9.62027 87.7312 9.22461 86.7399 9.22461C85.7486 9.22461 84.7983 9.62027 84.0999 10.3238ZM57.0521 15.6885C57.6681 15.0455 57.9934 14.178 57.9521 13.2885C57.9522 13.1075 57.9362 12.9268 57.9041 12.7485H54.4121V13.6125H57.0161C56.9984 14.1567 56.7854 14.6764 56.4161 15.0765C55.5937 15.8716 54.3736 16.0937 53.3237 15.6396C52.2737 15.1855 51.6001 14.1444 51.6161 13.0005C51.59 12.2436 51.8734 11.5087 52.401 10.9653C52.9286 10.4218 53.6548 10.1168 54.4121 10.1205C55.1656 10.0794 55.8946 10.3949 56.3801 10.9725L57.0161 10.3365C56.7089 9.9832 56.3224 9.70768 55.8881 9.53254C55.4217 9.33294 54.9195 9.23085 54.4121 9.23254C53.4168 9.21035 52.4568 9.60133 51.7601 10.3125C50.688 11.3917 50.3672 13.0085 50.9462 14.4152C51.5251 15.822 52.891 16.7446 54.4121 16.7565C55.4039 16.7918 56.3639 16.4035 57.0521 15.6885ZM60.2079 10.2884H63.4479V9.40039H59.2479V16.6004H63.4479V15.7124H60.2079V13.4324H63.1599V12.5684H60.2079V10.2884ZM67.384 16.6004H66.46V10.2884H64.444V9.40039H69.448V10.2884H67.384V16.6004ZM72.9759 9.40039V16.6004H73.8999V9.40039H72.9759ZM78.0042 16.6004H77.0802V10.2884H75.0642V9.40039H80.0082V10.2884H78.0042V16.6004ZM84.7841 15.0628C85.8657 16.1398 87.6145 16.1398 88.6961 15.0628C89.7583 13.8918 89.7583 12.1058 88.6961 10.9348C87.6145 9.85768 85.8657 9.85768 84.7841 10.9348C83.7218 12.1058 83.7218 13.8918 84.7841 15.0628ZM91.744 9.40039V16.6004H92.68V10.7324L96.34 16.6004H97.3V9.40039H96.376V15.0044L92.872 9.40039H91.744Z" fill="white"/>
<path d="M84.0999 15.6638L84.0272 15.7325L84.0294 15.7347L84.0999 15.6638ZM84.0999 10.3238L84.029 10.2533L84.0272 10.2551L84.0999 10.3238ZM89.3799 15.6638L89.4505 15.7347L89.4524 15.7327L89.3799 15.6638ZM89.3799 10.3238L89.4524 10.2549L89.4509 10.2533L89.3799 10.3238ZM57.9521 13.2885L57.852 13.2885L57.8523 13.2932L57.9521 13.2885ZM57.0521 15.6885L57.1242 15.7579L57.1244 15.7577L57.0521 15.6885ZM57.9041 12.7485L58.0026 12.7309L57.9878 12.6485H57.9041V12.7485ZM54.4121 12.7485V12.6485H54.3121V12.7485H54.4121ZM54.4121 13.6125H54.3121V13.7125H54.4121V13.6125ZM57.0161 13.6125L57.1161 13.6158L57.1195 13.5125H57.0161V13.6125ZM56.4161 15.0765L56.4858 15.1486L56.4896 15.1444L56.4161 15.0765ZM53.3237 15.6396L53.3634 15.5479L53.3237 15.6396ZM51.6161 13.0005L51.7163 13.0019L51.7161 12.9971L51.6161 13.0005ZM52.401 10.9653L52.4727 11.0349L52.401 10.9653ZM54.4121 10.1205L54.4117 10.2207L54.4176 10.2204L54.4121 10.1205ZM56.3801 10.9725L56.3036 11.0369L56.3738 11.1203L56.4509 11.0432L56.3801 10.9725ZM57.0161 10.3365L57.0869 10.4072L57.1528 10.3413L57.0916 10.2709L57.0161 10.3365ZM55.8881 9.53254L55.8488 9.62449L55.8507 9.62528L55.8881 9.53254ZM54.4121 9.23254L54.4099 9.33254L54.4125 9.33254L54.4121 9.23254ZM51.7601 10.3125L51.8311 10.383L51.8316 10.3825L51.7601 10.3125ZM50.9462 14.4152L50.8537 14.4533L50.9462 14.4152ZM54.4121 16.7565L54.4157 16.6566L54.4129 16.6565L54.4121 16.7565ZM63.4479 10.2884V10.3884H63.5479V10.2884H63.4479ZM60.2079 10.2884V10.1884H60.1079V10.2884H60.2079ZM63.4479 9.40039H63.5479V9.30039H63.4479V9.40039ZM59.2479 9.40039V9.30039H59.1479V9.40039H59.2479ZM59.2479 16.6004H59.1479V16.7004H59.2479V16.6004ZM63.4479 16.6004V16.7004H63.5479V16.6004H63.4479ZM63.4479 15.7124H63.5479V15.6124H63.4479V15.7124ZM60.2079 15.7124H60.1079V15.8124H60.2079V15.7124ZM60.2079 13.4324V13.3324H60.1079V13.4324H60.2079ZM63.1599 13.4324V13.5324H63.2599V13.4324H63.1599ZM63.1599 12.5684H63.2599V12.4684H63.1599V12.5684ZM60.2079 12.5684H60.1079V12.6684H60.2079V12.5684ZM66.46 16.6004H66.36V16.7004H66.46V16.6004ZM67.384 16.6004V16.7004H67.484V16.6004H67.384ZM66.46 10.2884H66.56V10.1884H66.46V10.2884ZM64.444 10.2884H64.344V10.3884H64.444V10.2884ZM64.444 9.40039V9.30039H64.344V9.40039H64.444ZM69.448 9.40039H69.548V9.30039H69.448V9.40039ZM69.448 10.2884V10.3884H69.548V10.2884H69.448ZM67.384 10.2884V10.1884H67.284V10.2884H67.384ZM72.9759 16.6004H72.8759V16.7004H72.9759V16.6004ZM72.9759 9.40039V9.30039H72.8759V9.40039H72.9759ZM73.8999 16.6004V16.7004H73.9999V16.6004H73.8999ZM73.8999 9.40039H73.9999V9.30039H73.8999V9.40039ZM77.0802 16.6004H76.9802V16.7004H77.0802V16.6004ZM78.0042 16.6004V16.7004H78.1042V16.6004H78.0042ZM77.0802 10.2884H77.1802V10.1884H77.0802V10.2884ZM75.0642 10.2884H74.9642V10.3884H75.0642V10.2884ZM75.0642 9.40039V9.30039H74.9642V9.40039H75.0642ZM80.0082 9.40039H80.1082V9.30039H80.0082V9.40039ZM80.0082 10.2884V10.3884H80.1082V10.2884H80.0082ZM78.0042 10.2884V10.1884H77.9042V10.2884H78.0042ZM88.6961 15.0628L88.7667 15.1337L88.7701 15.1299L88.6961 15.0628ZM84.7841 15.0628L84.7099 15.13L84.7135 15.1336L84.7841 15.0628ZM88.6961 10.9348L88.7702 10.8675L88.7666 10.8639L88.6961 10.9348ZM84.7841 10.9348L84.7134 10.8638L84.71 10.8676L84.7841 10.9348ZM91.744 16.6004H91.644V16.7004H91.744V16.6004ZM91.744 9.40039V9.30039H91.644V9.40039H91.744ZM92.68 16.6004V16.7004H92.78V16.6004H92.68ZM92.68 10.7324L92.7649 10.6795L92.58 10.3831V10.7324H92.68ZM96.34 16.6004L96.2552 16.6533L96.2846 16.7004H96.34V16.6004ZM97.3 16.6004V16.7004H97.4V16.6004H97.3ZM97.3 9.40039H97.4V9.30039H97.3V9.40039ZM96.376 9.40039V9.30039H96.276V9.40039H96.376ZM96.376 15.0044L96.2913 15.0574L96.476 15.3529V15.0044H96.376ZM92.872 9.40039L92.9568 9.34737L92.9275 9.30039H92.872V9.40039ZM84.1726 15.5951C82.7934 14.1351 82.7934 11.8524 84.1726 10.3924L84.0272 10.2551C82.5752 11.7922 82.5752 14.1954 84.0272 15.7324L84.1726 15.5951ZM89.3094 15.5929C87.888 17.0063 85.5919 17.0063 84.1705 15.5929L84.0294 15.7347C85.5289 17.2257 87.951 17.2257 89.4505 15.7347L89.3094 15.5929ZM89.3075 10.3927C90.6925 11.8502 90.6925 14.1374 89.3075 15.5949L89.4524 15.7327C90.9108 14.1979 90.9108 11.7896 89.4524 10.2549L89.3075 10.3927ZM86.7399 9.32461C87.7046 9.32461 88.6294 9.70963 89.309 10.3942L89.4509 10.2533C88.7337 9.5309 87.7579 9.12461 86.7399 9.12461V9.32461ZM84.1709 10.3942C84.8505 9.70963 85.7753 9.32461 86.7399 9.32461V9.12461C85.722 9.12461 84.7461 9.5309 84.029 10.2533L84.1709 10.3942ZM57.8523 13.2932C57.8922 14.1553 57.5769 14.9961 56.9799 15.6194L57.1244 15.7577C57.7592 15.0949 58.0945 14.2007 58.052 13.2839L57.8523 13.2932ZM57.8057 12.7662C57.8367 12.9386 57.8522 13.1134 57.8521 13.2885L58.0521 13.2886C58.0522 13.1016 58.0356 12.9149 58.0026 12.7309L57.8057 12.7662ZM54.4121 12.8485H57.9041V12.6485H54.4121V12.8485ZM54.5121 13.6125V12.7485H54.3121V13.6125H54.5121ZM57.0161 13.5125H54.4121V13.7125H57.0161V13.5125ZM56.4896 15.1444C56.8752 14.7266 57.0975 14.184 57.1161 13.6158L56.9162 13.6093C56.8992 14.1295 56.6956 14.6262 56.3427 15.0087L56.4896 15.1444ZM53.284 15.7314C54.371 16.2016 55.6341 15.9716 56.4856 15.1484L56.3466 15.0046C55.5532 15.7716 54.3762 15.9859 53.3634 15.5479L53.284 15.7314ZM51.5162 12.9991C51.4995 14.1833 52.1969 15.2613 53.284 15.7314L53.3634 15.5479C52.3505 15.1098 51.7006 14.1054 51.7161 13.0019L51.5162 12.9991ZM52.3292 10.8956C51.7827 11.4585 51.4891 12.2199 51.5162 13.004L51.7161 12.9971C51.6909 12.2673 51.9641 11.5588 52.4727 11.0349L52.3292 10.8956ZM54.4126 10.0205C53.6281 10.0167 52.8758 10.3327 52.3292 10.8956L52.4727 11.0349C52.9814 10.511 53.6815 10.217 54.4117 10.2205L54.4126 10.0205ZM56.4567 10.9082C55.9509 10.3065 55.1915 9.9778 54.4067 10.0207L54.4176 10.2204C55.1397 10.1809 55.8383 10.4834 56.3036 11.0369L56.4567 10.9082ZM56.9454 10.2658L56.3094 10.9018L56.4509 11.0432L57.0869 10.4072L56.9454 10.2658ZM55.8507 9.62528C56.2703 9.79451 56.6438 10.0607 56.9407 10.4022L57.0916 10.2709C56.774 9.90567 56.3744 9.62085 55.9256 9.4398L55.8507 9.62528ZM54.4125 9.33254C54.9062 9.33089 55.3949 9.43024 55.8488 9.62447L55.9275 9.4406C55.4486 9.23564 54.9328 9.1308 54.4118 9.13254L54.4125 9.33254ZM51.8316 10.3825C52.5089 9.69106 53.4423 9.31095 54.4099 9.33251L54.4144 9.13256C53.3914 9.10976 52.4047 9.5116 51.6887 10.2426L51.8316 10.3825ZM51.0387 14.3772C50.475 13.0076 50.7873 11.4337 51.8311 10.383L51.6892 10.2421C50.5887 11.3498 50.2594 13.0093 50.8537 14.4533L51.0387 14.3772ZM54.4129 16.6565C52.932 16.6449 51.6023 15.7467 51.0387 14.3772L50.8537 14.4533C51.448 15.8973 52.8499 16.8443 54.4114 16.8565L54.4129 16.6565ZM56.9801 15.6192C56.3116 16.3137 55.3791 16.6909 54.4157 16.6566L54.4086 16.8565C55.4288 16.8928 56.4162 16.4933 57.1242 15.7579L56.9801 15.6192ZM63.4479 10.1884H60.2079V10.3884H63.4479V10.1884ZM63.3479 9.40039V10.2884H63.5479V9.40039H63.3479ZM59.2479 9.50039H63.4479V9.30039H59.2479V9.50039ZM59.3479 16.6004V9.40039H59.1479V16.6004H59.3479ZM63.4479 16.5004H59.2479V16.7004H63.4479V16.5004ZM63.3479 15.7124V16.6004H63.5479V15.7124H63.3479ZM60.2079 15.8124H63.4479V15.6124H60.2079V15.8124ZM60.1079 13.4324V15.7124H60.3079V13.4324H60.1079ZM63.1599 13.3324H60.2079V13.5324H63.1599V13.3324ZM63.0599 12.5684V13.4324H63.2599V12.5684H63.0599ZM60.2079 12.6684H63.1599V12.4684H60.2079V12.6684ZM60.1079 10.2884V12.5684H60.3079V10.2884H60.1079ZM66.46 16.7004H67.384V16.5004H66.46V16.7004ZM66.36 10.2884V16.6004H66.56V10.2884H66.36ZM64.444 10.3884H66.46V10.1884H64.444V10.3884ZM64.344 9.40039V10.2884H64.544V9.40039H64.344ZM69.448 9.30039H64.444V9.50039H69.448V9.30039ZM69.548 10.2884V9.40039H69.348V10.2884H69.548ZM67.384 10.3884H69.448V10.1884H67.384V10.3884ZM67.484 16.6004V10.2884H67.284V16.6004H67.484ZM73.0759 16.6004V9.40039H72.8759V16.6004H73.0759ZM73.8999 16.5004H72.9759V16.7004H73.8999V16.5004ZM73.7999 9.40039V16.6004H73.9999V9.40039H73.7999ZM72.9759 9.50039H73.8999V9.30039H72.9759V9.50039ZM77.0802 16.7004H78.0042V16.5004H77.0802V16.7004ZM76.9802 10.2884V16.6004H77.1802V10.2884H76.9802ZM75.0642 10.3884H77.0802V10.1884H75.0642V10.3884ZM74.9642 9.40039V10.2884H75.1642V9.40039H74.9642ZM80.0082 9.30039H75.0642V9.50039H80.0082V9.30039ZM80.1082 10.2884V9.40039H79.9082V10.2884H80.1082ZM78.0042 10.3884H80.0082V10.1884H78.0042V10.3884ZM78.1042 16.6004V10.2884H77.9042V16.6004H78.1042ZM88.6255 14.9919C87.583 16.0301 85.8972 16.0301 84.8546 14.9919L84.7135 15.1336C85.8341 16.2496 87.646 16.2496 88.7666 15.1336L88.6255 14.9919ZM88.622 11.0019C89.6497 12.1348 89.6497 13.8627 88.622 14.9956L88.7701 15.1299C89.867 13.9208 89.867 12.0767 88.7701 10.8676L88.622 11.0019ZM84.8546 11.0056C85.8972 9.9674 87.583 9.9674 88.6255 11.0056L88.7666 10.8639C87.646 9.74797 85.8341 9.74797 84.7135 10.8639L84.8546 11.0056ZM84.8582 14.9956C83.8305 13.8627 83.8305 12.1348 84.8582 11.0019L84.71 10.8676C83.6132 12.0767 83.6132 13.9208 84.71 15.13L84.8582 14.9956ZM91.844 16.6004V9.40039H91.644V16.6004H91.844ZM92.68 16.5004H91.744V16.7004H92.68V16.5004ZM92.58 10.7324V16.6004H92.78V10.7324H92.58ZM96.4249 16.5475L92.7649 10.6795L92.5952 10.7853L96.2552 16.6533L96.4249 16.5475ZM97.3 16.5004H96.34V16.7004H97.3V16.5004ZM97.2 9.40039V16.6004H97.4V9.40039H97.2ZM96.376 9.50039H97.3V9.30039H96.376V9.50039ZM96.476 15.0044V9.40039H96.276V15.0044H96.476ZM92.7873 9.45341L96.2913 15.0574L96.4608 14.9514L92.9568 9.34737L92.7873 9.45341ZM91.744 9.50039H92.872V9.30039H91.744V9.50039Z" fill="white"/>
<path d="M13.5763 10.0469C13.1852 10.5162 12.9878 11.117 13.0243 11.7269V38.2709C12.9878 38.8807 13.1852 39.4816 13.5763 39.9509L13.6603 40.0349L28.5283 25.1789V24.8309L13.6603 9.96289L13.5763 10.0469Z" fill="url(#paint0_linear)"/>
<path d="M33.4483 30.1353L28.5283 25.1793V24.8313L33.4483 19.8633L33.5563 19.9233L39.4483 23.2713C41.1283 24.2193 41.1283 25.7793 39.4483 26.7393L33.5803 30.0753L33.4483 30.1353Z" fill="url(#paint1_linear)"/>
<path d="M33.5927 30.062L28.5287 24.998L13.5767 39.95C14.2831 40.5711 15.3316 40.6013 16.0727 40.022L33.6047 30.062" fill="url(#paint2_linear)"/>
<path d="M33.592 19.9355L16.06 9.97547C15.3189 9.3962 14.2704 9.42645 13.564 10.0475L28.528 24.9995L33.592 19.9355Z" fill="url(#paint3_linear)"/>
<path opacity="0.2" d="M33.4487 29.9551L16.0607 39.8551C15.3491 40.3871 14.3722 40.3871 13.6607 39.8551L13.5767 39.9391L13.6607 40.0231C14.3709 40.5591 15.3504 40.5591 16.0607 40.0231L33.5927 30.0631L33.4487 29.9551Z" fill="black"/>
<path opacity="0.12" fill-rule="evenodd" clip-rule="evenodd" d="M33.4481 29.954L39.4481 26.558C40.0682 26.252 40.5114 25.6759 40.6481 24.998C40.5863 25.7473 40.1286 26.4064 39.4481 26.726L33.5561 30.062L33.4481 29.954ZM13.0217 38.3356C13.0415 38.8635 13.2353 39.3727 13.5763 39.782L13.6603 39.878L13.5763 39.962C13.1967 39.5064 12.9995 38.9269 13.0217 38.3356ZM13.0217 38.3356C13.0224 38.3177 13.0232 38.2998 13.0243 38.282V38.102C13.0196 38.1801 13.0188 38.258 13.0217 38.3356Z" fill="black"/>
<path opacity="0.25" d="M16.0602 10.1429L39.4482 23.4389C40.0683 23.745 40.5114 24.3211 40.6482 24.9989C40.5864 24.2497 40.1287 23.5906 39.4482 23.2709L16.0602 9.97495C14.3802 9.02695 13.0122 9.81895 13.0122 11.7389V11.9189C13.0482 9.98695 14.3922 9.19495 16.0602 10.1429Z" fill="white"/>
<defs>
<linearGradient id="paint0_linear" x1="22.0162" y1="-8.07188" x2="-1.79112" y2="-1.74027" gradientUnits="userSpaceOnUse">
<stop stop-color="#00A0FF"/>
<stop offset="0.01" stop-color="#00A1FF"/>
<stop offset="0.26" stop-color="#00BEFF"/>
<stop offset="0.51" stop-color="#00D2FF"/>
<stop offset="0.76" stop-color="#00DFFF"/>
<stop offset="1" stop-color="#00E3FF"/>
</linearGradient>
<linearGradient id="paint1_linear" x1="41.6443" y1="12.7589" x2="12.6163" y2="12.7589" gradientUnits="userSpaceOnUse">
<stop stop-color="#FFE000"/>
<stop offset="0.41" stop-color="#FFBD00"/>
<stop offset="0.78" stop-color="#FFA500"/>
<stop offset="1" stop-color="#FF9C00"/>
</linearGradient>
<linearGradient id="paint2_linear" x1="13.1373" y1="17.2311" x2="-5.9864" y2="49.399" gradientUnits="userSpaceOnUse">
<stop stop-color="#FF3A44"/>
<stop offset="1" stop-color="#C31162"/>
</linearGradient>
<linearGradient id="paint3_linear" x1="1.89999" y1="5.91468" x2="10.4359" y2="20.2792" gradientUnits="userSpaceOnUse">
<stop stop-color="#32A071"/>
<stop offset="0.07" stop-color="#2DA771"/>
<stop offset="0.48" stop-color="#15CF74"/>
<stop offset="0.8" stop-color="#06E775"/>
<stop offset="1" stop-color="#00F076"/>
</linearGradient>
</defs>
</svg>
