
<svg width="1189" height="1296" viewBox="0 0 1189 1296" fill="none" xmlns="http://www.w3.org/2000/svg">
<path d="M1411.18 -120.482C1447.51 -99.7242 1463.08 -47.8288 1442.32 -11.502C1437.13 -1.12292 1426.75 9.25615 1411.18 19.6352L876.659 331.008C809.194 367.335 726.162 367.335 663.887 331.008L134.554 14.4457C82.6585 -16.6916 82.6585 -94.5347 134.554 -125.672L264.292 -198.326C347.325 -239.842 440.737 -239.842 518.58 -198.326L632.75 -136.051C720.972 -84.1556 829.953 -84.1556 923.364 -136.051L1042.72 -203.515C1115.38 -245.031 1203.6 -245.031 1281.44 -203.515C1276.25 -198.326 1411.18 -120.482 1411.18 -120.482Z" fill="#004DB9"/>
<path d="M1447.88 120.453L980.823 405.621C892.601 462.655 835.516 561.167 835.516 664.865V1209.28C835.516 1276.68 908.17 1318.16 965.255 1281.86L1084.61 1209.28C1162.46 1162.61 1209.16 1079.65 1209.16 991.512V867.075C1209.16 763.377 1261.06 664.865 1354.47 613.016L1468.64 545.613C1541.29 498.949 1588 421.176 1588 333.033V193.041C1577.62 125.638 1504.97 84.159 1447.88 120.453ZM150.497 136.008L591.608 405.621C685.02 462.655 742.105 566.352 742.105 675.234V1188.54C742.105 1266.31 659.072 1312.97 591.608 1271.49L503.386 1219.65C425.542 1172.98 373.647 1084.84 373.647 991.512V882.629C373.647 773.747 316.562 670.05 223.15 613.016L124.549 550.797C46.7059 504.134 0 415.991 0 327.848V218.966C0 141.193 83.0327 94.5288 150.497 136.008Z" fill="url(#paint0_linear)"/>
<defs>
<linearGradient id="paint0_linear" x1="750" y1="813" x2="-249" y2="107" gradientUnits="userSpaceOnUse">
<stop stop-color="#1C6CDD"/>
<stop offset="1" stop-color="#1C6CDD" stop-opacity="0"/>
</linearGradient>
</defs>
</svg>
