<svg width="30" height="41" viewBox="0 0 30 41" fill="none" xmlns="http://www.w3.org/2000/svg">
<path d="M27.5 17.9375H25V10.25C25 4.6125 20.5 0 15 0C9.5 0 5 4.6125 5 10.25V17.9375H2.5C1.25 17.9375 0 19.2188 0 20.5V38.4375C0 39.7188 1.25 41 2.5 41H27.5C28.75 41 30 39.7188 30 38.4375V20.5C30 19.2188 28.75 17.9375 27.5 17.9375ZM17.5 35.875H12.5L13.5 30.2375C12.25 29.725 11.25 28.1875 11.25 26.9062C11.25 24.8563 13 23.0625 15 23.0625C17 23.0625 18.75 24.8563 18.75 26.9062C18.75 28.4438 18 29.725 16.5 30.2375L17.5 35.875ZM20 17.9375H10V10.25C10 7.43125 12.25 5.125 15 5.125C17.75 5.125 20 7.43125 20 10.25V17.9375Z" fill="#06D69D"/>
</svg>
