<svg width="117" height="16" viewBox="0 0 117 16" fill="none" xmlns="http://www.w3.org/2000/svg">
<path d="M35.2712 8.26641C35.7278 8.05307 36.1844 7.94641 36.7551 7.94641V6.34641H36.3556C36.2201 6.34641 36.0847 6.3798 35.9209 6.42016C35.8777 6.43081 35.8325 6.44194 35.7849 6.45307C35.5566 6.50641 35.3283 6.61307 35.1571 6.77307C34.9288 6.93307 34.7576 7.09307 34.5864 7.25307C34.4151 7.46641 34.2439 7.67974 34.1298 7.89307V6.45307H32.4747V13.1731H34.301V9.11974C34.5293 8.74641 34.8147 8.47974 35.2712 8.26641Z" fill="white"/>
<path fill-rule="evenodd" clip-rule="evenodd" d="M38.6386 13.1197C38.9239 13.2264 39.2664 13.2797 39.6088 13.2797C40.1225 13.2797 40.6361 13.1731 41.0927 12.9597C41.5493 12.7464 41.9488 12.4264 42.2342 12.0531V12.4797C42.2912 12.6931 42.4054 12.9064 42.5766 13.0664C42.7478 13.2264 43.0332 13.2797 43.3756 13.2797C43.6194 13.2797 43.8215 13.2408 44.053 13.1963C44.0926 13.1886 44.133 13.1809 44.1747 13.1731V11.7331C44.0034 11.7331 43.8893 11.6797 43.8322 11.6264C43.7751 11.5731 43.7181 11.4131 43.7181 11.2531V9.17307C43.7181 8.26641 43.4327 7.57307 42.862 7.09307C42.2912 6.61307 41.4922 6.39974 40.4649 6.39974C39.4376 6.39974 38.4103 6.66641 37.4971 7.25307L38.0678 8.31974C38.4103 8.05307 38.8098 7.89307 39.2093 7.73307C39.6088 7.57307 39.9512 7.51974 40.3507 7.51974C40.8644 7.51974 41.2639 7.67974 41.5493 7.89307C41.8347 8.10641 41.9488 8.47974 41.9488 8.90641V9.27974C41.7205 9.17307 41.4351 9.11974 41.1498 9.06641C40.8644 9.01307 40.579 9.01307 40.2366 9.01307C39.78 9.01307 39.3805 9.06641 38.981 9.17307C38.5815 9.27974 38.2961 9.38641 38.0107 9.59974C37.7254 9.81307 37.5542 10.0264 37.3829 10.2931C37.2117 10.5597 37.1546 10.8264 37.1546 11.1464C37.1546 11.4664 37.2117 11.7331 37.3259 11.9997C37.44 12.2664 37.6112 12.4797 37.8395 12.6931C38.0678 12.8531 38.3532 13.0131 38.6386 13.1197ZM40.9786 11.8397C40.7503 11.9464 40.4078 11.9997 40.1225 11.9997C39.78 11.9997 39.4946 11.9464 39.2093 11.7864C38.981 11.5731 38.8668 11.3064 38.8668 11.0397C38.8668 10.7731 39.0381 10.5064 39.3234 10.2931C39.6088 10.0797 40.0083 9.97307 40.4649 9.97307C40.6932 9.97307 40.9786 9.97307 41.2068 10.0264C41.4351 10.0264 41.6634 10.0797 41.8917 10.1864V10.9331C41.8917 11.0931 41.8347 11.2531 41.6064 11.4131C41.4922 11.6264 41.2639 11.7331 40.9786 11.8397Z" fill="white"/>
<path fill-rule="evenodd" clip-rule="evenodd" d="M47.1425 13.0131C47.599 13.1731 48.0556 13.2797 48.5122 13.2797C48.9688 13.2797 49.4825 13.1731 49.882 12.9597C50.3386 12.7464 50.7381 12.4264 50.9664 11.9997L51.0234 12.4264C51.0234 12.6397 51.1376 12.8531 51.3659 13.0131C51.5942 13.1731 51.8225 13.2264 52.1649 13.2264C52.332 13.2264 52.4991 13.1978 52.711 13.1616C52.7886 13.1483 52.8722 13.134 52.9639 13.1197V11.6797C52.7927 11.6797 52.6785 11.6264 52.6215 11.5731C52.5644 11.5197 52.5073 11.3597 52.5073 11.1997V3.78641H50.7951V7.62641C50.5668 7.19974 50.2244 6.87974 49.8249 6.66641C49.4254 6.39974 48.9117 6.29307 48.3981 6.29307C47.9415 6.29307 47.4849 6.39974 47.0854 6.55974C46.6859 6.71974 46.3434 6.98641 46.0581 7.30641C45.7727 7.62641 45.5444 7.99974 45.3732 8.42641C45.202 8.79974 45.1449 9.27974 45.1449 9.75974C45.0878 10.2397 45.202 10.7197 45.3732 11.1464C45.4873 11.5731 45.7727 11.9464 46.0581 12.2664C46.3434 12.5864 46.7429 12.8531 47.1425 13.0131ZM49.4824 11.6797C49.3112 11.7331 49.14 11.7864 48.9688 11.7864C48.6834 11.7864 48.3981 11.7864 48.2268 11.6264C47.9986 11.5197 47.7703 11.3597 47.599 11.1997C47.4278 10.9864 47.3137 10.7731 47.1995 10.5597C47.0854 10.2931 47.0283 10.0264 47.0283 9.75974C47.0283 9.49307 47.0283 9.27974 47.1425 9.01307C47.2566 8.79974 47.3707 8.58641 47.542 8.37307C47.6561 8.15974 47.8844 7.99974 48.1127 7.89307C48.341 7.78641 48.5693 7.73307 48.8546 7.73307C49.0829 7.73307 49.2542 7.78641 49.4254 7.83974C49.8249 7.99974 50.1103 8.21307 50.3956 8.53307C50.5098 8.69307 50.6239 8.85307 50.681 9.06641V10.6664C50.6239 10.8264 50.5098 10.9864 50.3956 11.0931C50.2815 11.2531 50.1673 11.3597 49.9961 11.4664C49.9105 11.4931 49.8249 11.5331 49.7393 11.5731C49.6537 11.6131 49.568 11.6531 49.4824 11.6797Z" fill="white"/>
<path fill-rule="evenodd" clip-rule="evenodd" d="M56.1029 13.0131C56.5595 13.1731 57.0732 13.2797 57.6439 13.2797C58.4429 13.2797 59.1278 13.1197 59.8127 12.7997C60.3834 12.4264 60.7829 12.0531 61.0683 11.5197L59.4703 11.0931C59.3561 11.3597 59.1278 11.5731 58.7854 11.7331C58.5 11.8931 58.1005 11.9997 57.7581 11.9997C57.5298 11.9997 57.3015 11.9464 57.0732 11.8931C56.6166 11.7331 56.2742 11.4131 56.0459 11.0397C55.9317 10.8264 55.8176 10.6131 55.8176 10.3464H61.3537C61.4107 10.2397 61.4107 10.1864 61.4107 10.0797V9.75974C61.4107 9.33307 61.3537 8.90641 61.1824 8.47974C61.0112 8.05307 60.7829 7.67974 60.4405 7.35974C60.0981 7.03974 59.6986 6.77307 59.242 6.61307C58.7854 6.45307 58.2717 6.34641 57.701 6.34641C57.0732 6.34641 56.5595 6.39974 56.1029 6.61307C55.6464 6.77307 55.2468 7.03974 54.9044 7.35974C54.562 7.67974 54.3337 8.05307 54.1625 8.47974C53.9912 8.90641 53.8771 9.33307 53.8771 9.81307C53.8771 10.2931 53.9912 10.7197 54.1625 11.1464C54.3337 11.5731 54.562 11.9464 54.9044 12.2664C55.2468 12.5864 55.6464 12.8531 56.1029 13.0131ZM58.9566 7.99974C59.299 8.31974 59.4703 8.74641 59.5273 9.22641H55.8746C55.8746 8.95974 55.9317 8.74641 56.0459 8.53307C56.16 8.31974 56.2742 8.15974 56.4454 7.99974C56.7878 7.67974 57.2444 7.51974 57.701 7.51974C58.1576 7.51974 58.6142 7.67974 58.9566 7.99974Z" fill="white"/>
<path d="M62.4381 6.87974C62.2098 7.41307 62.0956 7.99974 62.0956 8.53307C62.0956 9.11974 62.2668 9.70641 62.4951 10.3464C62.7234 10.8797 63.0659 11.4131 63.4654 11.8397C63.8649 12.2664 64.3786 12.6397 64.9493 12.9064C65.52 13.1731 66.1478 13.3331 66.8327 13.3331C67.2322 13.3331 67.6317 13.2797 68.0312 13.1731C68.4307 13.0664 68.8303 12.9064 69.1727 12.7464C69.5151 12.5864 69.8576 12.3731 70.1429 12.1064C70.4283 11.8397 70.6566 11.5197 70.8278 11.1997L69.2868 10.3464C69.1727 10.6131 69.0015 10.8264 68.8303 10.9864C68.4878 11.3597 68.0312 11.5731 67.5746 11.6797C67.3464 11.7331 67.1181 11.7331 66.8898 11.7331C66.4903 11.7331 66.0907 11.6264 65.7483 11.4664C65.4059 11.3064 65.0634 11.0397 64.8351 10.7731C64.6068 10.5064 64.3785 10.1864 64.2644 9.81307C64.0932 9.43974 64.0361 9.06641 64.0361 8.63974C64.0361 8.26641 64.0932 7.94641 64.2073 7.57307C64.3215 7.25307 64.4927 6.87974 64.721 6.61307C64.9493 6.34641 65.2346 6.07974 65.5771 5.91974C65.9195 5.75974 66.3761 5.65307 66.8327 5.65307C67.061 5.65307 67.2893 5.65307 67.5176 5.70641C67.8029 5.75974 67.9742 5.81307 68.2025 5.91974C68.4307 6.02641 68.602 6.18641 68.7732 6.34641C68.9444 6.50641 69.1156 6.77307 69.2298 6.98641L70.6566 6.02641C70.3142 5.43974 69.8005 4.95974 69.1727 4.58641C68.4878 4.21307 67.7459 4.05307 66.8327 4.05307C66.0907 4.05307 65.4059 4.15974 64.8351 4.42641C64.2644 4.63974 63.7507 5.01307 63.3512 5.43974C62.9517 5.86641 62.6664 6.34641 62.4381 6.87974Z" fill="white"/>
<path fill-rule="evenodd" clip-rule="evenodd" d="M73.6244 13.0131C74.1381 13.1731 74.6517 13.2797 75.2225 13.2797C75.7932 13.2797 76.3068 13.1731 76.7634 13.0131C77.22 12.8531 77.6195 12.5864 77.962 12.2664C78.3044 11.9464 78.5327 11.5731 78.7039 11.1464C78.8751 10.7197 78.9893 10.2397 78.9893 9.81307C78.9893 9.33307 78.8751 8.90641 78.7039 8.47974C78.5327 8.05307 78.3044 7.67974 77.962 7.35974C77.6195 7.03974 77.22 6.77307 76.7634 6.61307C76.3068 6.45307 75.7932 6.34641 75.2225 6.34641C74.5946 6.34641 74.081 6.39974 73.6244 6.61307C73.1678 6.77307 72.7683 7.03974 72.4259 7.35974C72.0834 7.67974 71.8551 8.05307 71.6839 8.47974C71.5127 8.90641 71.3985 9.33307 71.3985 9.81307C71.3985 10.2931 71.5127 10.7197 71.6839 11.1464C71.8551 11.5731 72.0834 11.9464 72.4259 12.2664C72.7683 12.5864 73.1678 12.8531 73.6244 13.0131ZM73.5103 10.6131C73.3961 10.3997 73.339 10.1331 73.339 9.81307C73.339 9.54641 73.3961 9.27974 73.5103 9.01307C73.6244 8.79974 73.7385 8.58641 73.9098 8.37307C74.081 8.21307 74.2522 8.05307 74.4805 7.94641C74.7088 7.83974 74.9371 7.78641 75.2225 7.78641C75.7361 7.78641 76.1927 7.99974 76.5351 8.37307C76.7064 8.58641 76.8205 8.79974 76.9347 9.01307C77.0488 9.27974 77.1059 9.54641 77.1059 9.81307C77.1059 10.0797 77.0488 10.3464 76.9347 10.6131C76.8205 10.8797 76.7064 11.0931 76.5351 11.2531C76.2498 11.6264 75.7361 11.8397 75.2225 11.8397C74.7088 11.8397 74.2522 11.6264 73.9098 11.2531C73.7385 11.0931 73.6244 10.8797 73.5103 10.6131Z" fill="white"/>
<path d="M85.039 13.1197H86.8654L86.9225 8.90641C86.9225 8.58644 86.8654 8.26647 86.8083 7.9465C86.7512 7.6265 86.6371 7.35974 86.4659 7.09307C86.3517 6.87974 86.1234 6.66641 85.8381 6.50641C85.5527 6.34641 85.2103 6.29307 84.7537 6.29307C84.1259 6.29307 83.5551 6.39974 83.0415 6.66641C82.5278 6.93307 82.1854 7.25307 81.9 7.67974V6.45307H80.2449V13.0664H82.0712V9.17307C82.1283 8.95974 82.2425 8.74641 82.3566 8.58641C82.4707 8.42641 82.642 8.26641 82.8132 8.15974C82.9273 8.05307 83.1556 7.94641 83.3268 7.89307C83.3745 7.88194 83.4197 7.87081 83.4629 7.86016C83.6266 7.8198 83.7621 7.78641 83.8976 7.78641C84.2971 7.78641 84.5254 7.89307 84.7537 8.15974C84.9249 8.42641 85.039 8.79974 85.039 9.33307V13.1197Z" fill="white"/>
<path d="M93.3146 13.1197H95.141V8.90641C95.141 8.58641 95.0839 8.26641 95.0268 7.94641C94.9698 7.62641 94.8556 7.35974 94.6844 7.09307C94.5703 6.87974 94.342 6.66641 94.0566 6.50641C93.7712 6.34641 93.4288 6.29307 92.9722 6.29307C92.3444 6.29307 91.7737 6.39974 91.26 6.66641C90.7463 6.93307 90.4039 7.25307 90.1185 7.67974V6.45307H88.4634V13.0664H90.3468V9.17307C90.4039 8.95974 90.5181 8.74641 90.6322 8.58641C90.7464 8.42641 90.9176 8.26641 91.0888 8.15974C91.2029 8.05307 91.4312 7.94641 91.6024 7.89307C91.6501 7.88194 91.6953 7.87081 91.7385 7.86016C91.9022 7.8198 92.0377 7.78641 92.1732 7.78641C92.5727 7.78641 92.801 7.89307 93.0293 8.15974C93.2005 8.42641 93.3146 8.79974 93.3146 9.33307V13.1197Z" fill="white"/>
<path fill-rule="evenodd" clip-rule="evenodd" d="M98.5083 13.0131C98.9649 13.1731 99.4785 13.2797 100.049 13.2797C100.848 13.2797 101.533 13.1197 102.218 12.7997C102.789 12.4264 103.188 12.0531 103.474 11.5197L101.876 11.0931C101.761 11.3597 101.533 11.5731 101.191 11.7331C100.905 11.8931 100.506 11.9997 100.163 11.9997C99.9351 11.9997 99.7068 11.9464 99.4785 11.8931C99.022 11.7331 98.6795 11.4131 98.4512 11.0397C98.3371 10.8264 98.2229 10.6131 98.2229 10.3464H103.759C103.816 10.2397 103.816 10.1864 103.816 10.0797V9.75974C103.816 9.33307 103.759 8.90641 103.588 8.47974C103.417 8.05307 103.188 7.67974 102.846 7.35974C102.503 7.03974 102.104 6.77307 101.647 6.61307C101.191 6.45307 100.677 6.34641 100.106 6.34641C99.4785 6.34641 98.9649 6.39974 98.5083 6.61307C98.0517 6.77307 97.6522 7.03974 97.3098 7.35974C96.9673 7.67974 96.739 8.05307 96.5678 8.47974C96.3966 8.90641 96.2824 9.33307 96.2824 9.81307C96.2824 10.2931 96.3966 10.7197 96.5678 11.1464C96.739 11.5731 96.9673 11.9464 97.3098 12.2664C97.6522 12.5864 98.0517 12.8531 98.5083 13.0131ZM101.362 7.99974C101.704 8.31974 101.876 8.74641 101.933 9.22641H98.28C98.28 8.95974 98.3371 8.74641 98.4512 8.53307C98.5654 8.31974 98.6795 8.15974 98.8507 7.99974C99.1932 7.67974 99.6498 7.51974 100.106 7.51974C100.563 7.51974 101.02 7.67974 101.362 7.99974Z" fill="white"/>
<path d="M104.729 8.47974C104.558 8.90641 104.444 9.33307 104.444 9.81307C104.444 10.2397 104.558 10.7197 104.729 11.1997C104.9 11.6264 105.129 11.9997 105.471 12.3197C105.814 12.6397 106.213 12.9064 106.67 13.0664C107.183 13.2264 107.697 13.3331 108.268 13.3331C109.067 13.3331 109.752 13.1731 110.322 12.8531C110.893 12.4797 111.293 12.1064 111.521 11.5731L109.752 11.0397C109.638 11.3064 109.466 11.4664 109.181 11.6264C108.896 11.7864 108.61 11.8397 108.268 11.8397C107.982 11.8397 107.754 11.7864 107.526 11.6797C107.298 11.5731 107.126 11.4131 106.955 11.2531C106.784 11.0931 106.67 10.8797 106.556 10.6131C106.441 10.3464 106.384 10.0797 106.384 9.81307C106.384 9.54641 106.441 9.27974 106.556 9.01307C106.578 8.97124 106.6 8.92735 106.623 8.88262C106.717 8.69925 106.817 8.5017 106.955 8.37307C107.126 8.15974 107.298 8.05307 107.526 7.94641C107.754 7.83974 107.982 7.78641 108.268 7.78641C108.553 7.78641 108.839 7.89307 109.124 7.99974C109.409 8.15974 109.58 8.37307 109.752 8.58641L111.521 8.05307C111.236 7.57307 110.836 7.14641 110.265 6.82641C109.695 6.50641 109.067 6.34641 108.268 6.34641C107.64 6.34641 107.126 6.39974 106.67 6.61307C106.213 6.77307 105.814 7.03974 105.471 7.35974C105.129 7.67974 104.9 8.05307 104.729 8.47974Z" fill="white"/>
<path d="M116.03 13.1197C116.372 13.0131 116.715 12.9064 116.943 12.7997L116.543 11.4131C116.429 11.4664 116.258 11.5197 116.087 11.5731C115.916 11.6264 115.687 11.6797 115.516 11.6797C115.288 11.6797 115.117 11.6264 115.002 11.5197C114.888 11.4664 114.831 11.2531 114.831 11.0397V7.78641H116.315V6.45307H114.831V4.26641H113.005V6.45307H112.035V7.78641H113.005V11.6264C113.005 11.8931 113.062 12.1597 113.176 12.3731C113.29 12.5864 113.404 12.7464 113.576 12.9064C113.747 13.0131 113.918 13.1197 114.146 13.1731C114.375 13.2264 114.66 13.2797 114.888 13.2797C115.288 13.2797 115.687 13.2264 116.03 13.1197Z" fill="white"/>
<path d="M29.8494 5.6H32.9313L32.9884 4.05333H24.884V5.6H27.966V13.12H29.8494V5.6Z" fill="white"/>
<path d="M15.9234 3.78669L10.7868 6.72002C9.81659 7.30669 9.18878 8.32002 9.18878 9.38669V14.9867C9.18878 15.68 9.9878 16.1067 10.6156 15.7334L11.9283 14.9867C12.7844 14.5067 13.298 13.6534 13.298 12.7467V11.4667C13.298 10.4 13.8688 9.38669 14.8961 8.85336L16.1517 8.16002C16.9507 7.68002 17.4644 6.88002 17.4644 5.97336V4.53336C17.3502 3.84002 16.5512 3.41336 15.9234 3.78669ZM1.65512 3.94669L6.50634 6.72002C7.53366 7.30669 8.16146 8.37336 8.16146 9.49336V14.7734C8.16146 15.5734 7.24829 16.0534 6.50634 15.6267L5.5361 15.0934C4.68 14.6134 4.10927 13.7067 4.10927 12.7467V11.6267C4.10927 10.5067 3.48146 9.44002 2.45415 8.85336L1.36976 8.21336C0.513659 7.73336 0 6.82669 0 5.92002V4.80002C0 4.00002 0.913171 3.52002 1.65512 3.94669Z" fill="#0856C4"/>
<path d="M15.5308 1.3503C15.9303 1.56364 16.1015 2.09697 15.8732 2.4703C15.8161 2.57697 15.702 2.68364 15.5308 2.7903L9.65224 5.9903C8.91029 6.36364 7.99712 6.36364 7.31224 5.9903L1.49077 2.73697C0.920043 2.41697 0.920043 1.61697 1.49077 1.29697L2.9176 0.550305C3.83078 0.123638 4.85809 0.123638 5.71419 0.550305L6.9698 1.1903C7.94004 1.72364 9.13858 1.72364 10.1659 1.1903L11.4786 0.496971C12.2776 0.0703048 13.2478 0.0703048 14.1039 0.496971C14.0469 0.550305 15.5308 1.3503 15.5308 1.3503Z" fill="#0856C4"/>
</svg>
