<svg width="165" height="24" viewBox="0 0 165 24" fill="none" xmlns="http://www.w3.org/2000/svg">
<path d="M46.4416 8.40008H42.0952V19.6801H39.4391V8.40008H35.0928V6.08008H46.522L46.4416 8.40008Z" fill="white"/>
<path d="M51.8342 11.9197C51.0293 11.9197 50.3854 12.0797 49.7415 12.3997C49.0976 12.7197 48.6952 13.1197 48.3732 13.6797V19.7597H45.7976V9.67969H48.1318V11.8397C48.2927 11.5197 48.5342 11.1997 48.7757 10.8797C49.0171 10.6397 49.2586 10.3997 49.5805 10.1597C49.822 9.91969 50.1439 9.75969 50.4659 9.67969C50.7878 9.59969 51.0293 9.51969 51.2708 9.51969H51.5927C51.6732 9.51969 51.7537 9.51969 51.8342 9.51969V11.9197ZM56.583 17.9997C56.9854 17.9997 57.4683 17.9197 57.7903 17.7597C58.1927 17.5997 58.5147 17.4397 58.6757 17.1197C58.9976 16.8797 59.0781 16.6397 59.0781 16.3997V15.2797C58.7561 15.1197 58.4342 15.0397 58.1122 15.0397C57.7903 14.9597 57.3878 14.9597 57.0659 14.9597C56.422 14.9597 55.8586 15.1197 55.4561 15.4397C55.0537 15.7597 54.8122 16.1597 54.8122 16.5597C54.8122 16.9597 54.9732 17.3597 55.2952 17.6797C55.6976 17.9197 56.1 17.9997 56.583 17.9997ZM55.8586 19.9197C55.3757 19.9197 54.8927 19.8397 54.4903 19.6797C54.0878 19.5197 53.6854 19.2797 53.3635 19.0397C53.0415 18.7197 52.8 18.3997 52.6391 17.9997C52.4781 17.5997 52.3976 17.1997 52.3976 16.7197C52.3976 16.2397 52.4781 15.8397 52.7196 15.4397C52.961 15.0397 53.2025 14.7197 53.6049 14.3997C54.0074 14.0797 54.4098 13.9197 54.9732 13.7597C55.5366 13.5997 56.1 13.5197 56.7439 13.5197C57.2269 13.5197 57.6293 13.5197 58.0317 13.5997C58.4342 13.6797 58.8366 13.7597 59.1586 13.9197V13.3597C59.1586 12.7197 58.9976 12.1597 58.5952 11.8397C58.1927 11.5197 57.6293 11.2797 56.9049 11.2797C56.3415 11.2797 55.8586 11.3597 55.2952 11.5997C54.7317 11.8397 54.1683 12.0797 53.6854 12.4797L52.8805 10.8797C54.1683 9.99969 55.6171 9.59969 57.0659 9.59969C58.5147 9.59969 59.6415 9.91969 60.4464 10.6397C61.2513 11.3597 61.6537 12.3997 61.6537 13.7597V16.8797C61.6537 17.1197 61.7342 17.3597 61.8147 17.4397C61.8952 17.5197 62.0561 17.5997 62.2976 17.5997V19.7597C61.8952 19.8397 61.5732 19.9197 61.1708 19.9197C60.6878 19.9197 60.2854 19.8397 60.0439 19.5997C59.8025 19.3597 59.6415 19.0397 59.561 18.7197V18.0797C59.1586 18.6397 58.5952 19.1197 57.9513 19.4397C57.3074 19.7597 56.583 19.9197 55.8586 19.9197ZM69.0586 17.6797C69.3 17.6797 69.5415 17.5997 69.783 17.5197C70.0244 17.4397 70.2659 17.2797 70.5074 17.1997C70.7488 17.0397 70.9098 16.8797 71.0708 16.6397C71.2318 16.4797 71.3927 16.2397 71.4732 15.9997V13.5997C71.3927 13.2797 71.2318 13.0397 71.0708 12.7997C70.6683 12.3197 70.2659 11.9997 69.7025 11.7597C69.461 11.6797 69.2196 11.5997 68.8976 11.5997C68.4952 11.5997 68.1732 11.6797 67.8513 11.8397C67.5293 11.9997 67.2074 12.2397 67.0464 12.5597C66.8049 12.8797 66.6439 13.1997 66.483 13.5197C66.322 13.9197 66.322 14.2397 66.322 14.6397C66.322 15.0397 66.4025 15.4397 66.5635 15.8397C66.7244 16.1597 66.8854 16.4797 67.1269 16.7997C67.3683 17.0397 67.6903 17.2797 68.0122 17.4397C68.2537 17.6797 68.6561 17.6797 69.0586 17.6797ZM68.4147 19.9197C67.7708 19.9197 67.1269 19.7597 66.483 19.5197C65.9196 19.2797 65.3561 18.8797 64.9537 18.3997C64.5513 17.9197 64.1488 17.3597 63.9878 16.7197C63.7464 16.0797 63.5854 15.3597 63.6659 14.6397C63.6659 13.9197 63.7464 13.1997 63.9878 12.6397C64.2293 11.9997 64.5513 11.4397 64.9537 10.9597C65.3561 10.4797 65.8391 10.0797 66.4025 9.83969C66.9659 9.59969 67.6098 9.43969 68.2537 9.43969C68.9781 9.43969 69.7025 9.59969 70.2659 9.99969C70.8293 10.3197 71.3122 10.7997 71.6342 11.4397V5.67969H74.0488V16.7997C74.0488 17.0397 74.1293 17.2797 74.2098 17.3597C74.2903 17.4397 74.4513 17.5197 74.6927 17.5197V19.6797C74.2098 19.7597 73.8878 19.8397 73.5659 19.8397C73.083 19.8397 72.761 19.7597 72.4391 19.5197C72.1171 19.2797 71.9561 18.9597 71.9561 18.6397L71.8757 17.9997C71.5537 18.6397 70.9903 19.1197 70.3464 19.4397C69.783 19.7597 69.0586 19.9197 68.4147 19.9197ZM83.9488 13.8397C83.8683 13.1197 83.6269 12.4797 83.1439 11.9997C82.661 11.5197 82.0171 11.2797 81.3732 11.2797C80.7293 11.2797 80.0854 11.5197 79.6025 11.9997C79.361 12.2397 79.2 12.4797 79.0391 12.7997C78.8781 13.1197 78.7976 13.4397 78.7976 13.8397H83.9488ZM81.2927 19.9197C80.4878 19.9197 79.7635 19.7597 79.1196 19.5197C78.4757 19.2797 77.9122 18.8797 77.4293 18.3997C76.9464 17.9197 76.6244 17.3597 76.383 16.7197C76.1415 16.0797 75.9805 15.4397 75.9805 14.7197C75.9805 13.9997 76.1415 13.3597 76.383 12.7197C76.6244 12.0797 76.9464 11.5197 77.4293 11.0397C77.9122 10.5597 78.4757 10.1597 79.1196 9.91969C79.7635 9.59969 80.4878 9.51969 81.3732 9.51969C82.1781 9.51969 82.9025 9.67969 83.5464 9.91969C84.1903 10.1597 84.7537 10.5597 85.2366 11.0397C85.7196 11.5197 86.0415 12.0797 86.283 12.7197C86.5244 13.3597 86.6049 13.9997 86.6049 14.6397C86.6049 14.7997 86.6049 14.9597 86.6049 15.1197C86.6049 15.2797 86.6049 15.3597 86.5244 15.5197H78.7171C78.7171 15.9197 78.8781 16.2397 79.0391 16.5597C79.361 17.1197 79.8439 17.5997 80.4878 17.8397C80.8098 17.9197 81.1317 17.9997 81.4537 17.9997C81.9366 17.9997 82.5 17.8397 82.9025 17.5997C83.3854 17.3597 83.7074 17.0397 83.8683 16.6397L86.122 17.2797C85.7196 18.0797 85.1561 18.6397 84.3513 19.1997C83.3854 19.6797 82.4196 19.9197 81.2927 19.9197ZM87.5708 12.7997C87.5708 11.9997 87.7317 11.1197 88.0537 10.3197C88.3756 9.51969 88.7781 8.79969 89.3415 8.15969C89.9049 7.51969 90.6293 6.95969 91.4342 6.63969C92.2391 6.23969 93.2049 6.07969 94.2513 6.07969C95.5391 6.07969 96.5854 6.31969 97.5513 6.87969C98.4366 7.43969 99.161 8.15969 99.6439 9.03969L97.6317 10.4797C97.4708 10.1597 97.2293 9.75969 96.9878 9.51969C96.7464 9.27969 96.5049 9.03969 96.183 8.87969C95.861 8.71969 95.6196 8.63969 95.2171 8.55969C94.8952 8.47969 94.5732 8.47969 94.2513 8.47969C93.6074 8.47969 92.9635 8.63969 92.4805 8.87969C91.9976 9.11969 91.5952 9.51969 91.2732 9.91969C90.9513 10.3197 90.7098 10.8797 90.5488 11.3597C90.3878 11.9197 90.3074 12.3997 90.3074 12.9597C90.3074 13.5997 90.3878 14.1597 90.6293 14.7197C90.7903 15.2797 91.1122 15.7597 91.4342 16.1597C91.7561 16.5597 92.2391 16.9597 92.722 17.1997C93.2049 17.4397 93.7683 17.5997 94.3317 17.5997C94.6537 17.5997 94.9757 17.5997 95.2976 17.5197C95.9415 17.3597 96.5854 17.0397 97.0683 16.4797C97.3098 16.2397 97.5513 15.9197 97.7122 15.5197L99.8854 16.7997C99.6439 17.2797 99.322 17.7597 98.9196 18.1597C98.5171 18.5597 98.0342 18.8797 97.5513 19.1197C97.0683 19.3597 96.5049 19.5997 95.9415 19.7597C95.3781 19.9197 94.8147 19.9997 94.2513 19.9997C93.2854 19.9997 92.4 19.7597 91.5952 19.3597C90.7903 18.9597 90.0659 18.3997 89.5025 17.7597C88.9391 17.1197 88.4561 16.3197 88.1342 15.5197C87.8122 14.5597 87.5708 13.6797 87.5708 12.7997ZM103.427 14.7197C103.427 15.1997 103.507 15.5997 103.668 15.9197C103.829 16.3197 103.99 16.6397 104.232 16.8797C104.715 17.4397 105.359 17.7597 106.083 17.7597C106.807 17.7597 107.532 17.4397 107.934 16.8797C108.176 16.6397 108.337 16.3197 108.498 15.9197C108.659 15.5197 108.739 15.1197 108.739 14.7197C108.739 14.3197 108.659 13.9197 108.498 13.5197C108.337 13.1997 108.176 12.8797 107.934 12.5597C107.451 11.9997 106.807 11.6797 106.083 11.6797C105.681 11.6797 105.359 11.7597 105.037 11.9197C104.715 12.0797 104.473 12.3197 104.232 12.5597C103.99 12.8797 103.829 13.1997 103.668 13.5197C103.507 13.9197 103.427 14.3197 103.427 14.7197ZM106.083 19.9197C105.278 19.9197 104.554 19.7597 103.829 19.5197C103.185 19.2797 102.622 18.8797 102.139 18.3997C101.656 17.9197 101.334 17.3597 101.093 16.7197C100.851 16.0797 100.69 15.4397 100.69 14.7197C100.69 13.9997 100.851 13.3597 101.093 12.7197C101.334 12.0797 101.656 11.5197 102.139 11.0397C102.622 10.5597 103.185 10.1597 103.829 9.91969C104.473 9.59969 105.198 9.51969 106.083 9.51969C106.888 9.51969 107.612 9.67969 108.256 9.91969C108.9 10.1597 109.463 10.5597 109.946 11.0397C110.429 11.5197 110.751 12.0797 110.993 12.7197C111.234 13.3597 111.395 13.9997 111.395 14.7197C111.395 15.3597 111.234 16.0797 110.993 16.7197C110.751 17.3597 110.429 17.9197 109.946 18.3997C109.463 18.8797 108.9 19.2797 108.256 19.5197C107.612 19.7597 106.888 19.9197 106.083 19.9197ZM122.502 19.6797H119.927V13.9997C119.927 13.1997 119.766 12.6397 119.524 12.2397C119.202 11.8397 118.881 11.6797 118.317 11.6797C118.076 11.6797 117.834 11.7597 117.512 11.8397C117.271 11.9197 116.949 12.0797 116.788 12.2397C116.546 12.3997 116.305 12.6397 116.144 12.8797C115.983 13.1197 115.822 13.4397 115.742 13.7597V19.5997H113.166V9.67969H115.5V11.5197C115.902 10.8797 116.385 10.3997 117.11 9.99969C117.834 9.59969 118.639 9.43969 119.524 9.43969C120.168 9.43969 120.651 9.51969 121.054 9.75969C121.456 9.99969 121.778 10.3197 121.939 10.6397C122.181 11.0397 122.341 11.4397 122.422 11.9197C122.502 12.3997 122.583 12.8797 122.583 13.3597L122.502 19.6797ZM134.173 19.6797H131.598V13.9997C131.598 13.1997 131.437 12.6397 131.195 12.2397C130.873 11.8397 130.551 11.6797 129.988 11.6797C129.746 11.6797 129.505 11.7597 129.183 11.8397C128.941 11.9197 128.62 12.0797 128.459 12.2397C128.217 12.3997 127.976 12.6397 127.815 12.8797C127.654 13.1197 127.493 13.4397 127.412 13.7597V19.5997H124.756V9.67969H127.09V11.5197C127.493 10.8797 127.976 10.3997 128.7 9.99969C129.424 9.59969 130.229 9.43969 131.115 9.43969C131.759 9.43969 132.242 9.51969 132.644 9.75969C133.046 9.99969 133.368 10.3197 133.529 10.6397C133.771 11.0397 133.932 11.4397 134.012 11.9197C134.093 12.3997 134.173 12.8797 134.173 13.3597V19.6797ZM143.751 13.8397C143.671 13.1197 143.429 12.4797 142.946 11.9997C142.463 11.5197 141.82 11.2797 141.176 11.2797C140.532 11.2797 139.888 11.5197 139.405 11.9997C139.163 12.2397 139.002 12.4797 138.841 12.7997C138.681 13.1197 138.6 13.4397 138.6 13.8397H143.751ZM141.095 19.9197C140.29 19.9197 139.566 19.7597 138.922 19.5197C138.278 19.2797 137.715 18.8797 137.232 18.3997C136.749 17.9197 136.427 17.3597 136.185 16.7197C135.944 16.0797 135.783 15.4397 135.783 14.7197C135.783 13.9997 135.944 13.3597 136.185 12.7197C136.427 12.0797 136.749 11.5197 137.232 11.0397C137.715 10.5597 138.278 10.1597 138.922 9.91969C139.566 9.59969 140.29 9.51969 141.176 9.51969C141.981 9.51969 142.705 9.67969 143.349 9.91969C143.993 10.1597 144.556 10.5597 145.039 11.0397C145.522 11.5197 145.844 12.0797 146.085 12.7197C146.327 13.3597 146.407 13.9997 146.407 14.6397C146.407 14.7997 146.407 14.9597 146.407 15.1197C146.407 15.2797 146.407 15.3597 146.327 15.5197H138.52C138.52 15.9197 138.681 16.2397 138.841 16.5597C139.163 17.1197 139.646 17.5997 140.29 17.8397C140.612 17.9197 140.934 17.9997 141.256 17.9997C141.739 17.9997 142.302 17.8397 142.705 17.5997C143.188 17.3597 143.51 17.0397 143.671 16.6397L145.924 17.2797C145.522 18.0797 144.959 18.6397 144.154 19.1997C143.188 19.6797 142.222 19.9197 141.095 19.9197ZM147.293 14.7197C147.293 13.9997 147.454 13.3597 147.695 12.7197C147.937 12.0797 148.259 11.5197 148.741 11.0397C149.224 10.5597 149.788 10.1597 150.432 9.91969C151.076 9.59969 151.8 9.51969 152.685 9.51969C153.812 9.51969 154.698 9.75969 155.502 10.2397C156.307 10.7197 156.871 11.3597 157.273 12.0797L154.778 12.8797C154.537 12.5597 154.295 12.2397 153.893 11.9997C153.49 11.8397 153.088 11.6797 152.685 11.6797C152.283 11.6797 151.961 11.7597 151.639 11.9197C151.317 12.0797 151.076 12.2397 150.834 12.5597C150.593 12.7997 150.432 13.1997 150.271 13.5197C150.11 13.9197 150.029 14.3197 150.029 14.7197C150.029 15.1197 150.11 15.5197 150.271 15.9197C150.432 16.3197 150.593 16.6397 150.834 16.8797C151.076 17.1197 151.317 17.3597 151.639 17.5197C151.961 17.6797 152.283 17.7597 152.685 17.7597C153.168 17.7597 153.571 17.6797 153.973 17.4397C154.376 17.1997 154.617 16.9597 154.778 16.5597L157.273 17.3597C156.951 18.1597 156.388 18.7197 155.583 19.2797C154.778 19.7597 153.812 19.9997 152.685 19.9997C151.881 19.9997 151.156 19.8397 150.432 19.5997C149.788 19.3597 149.224 18.9597 148.741 18.4797C148.259 17.9997 147.937 17.4397 147.695 16.7997C147.454 16.0797 147.293 15.3597 147.293 14.7197ZM164.92 19.1997C164.598 19.3597 164.115 19.5197 163.632 19.6797C163.149 19.8397 162.585 19.9197 162.022 19.9197C161.7 19.9197 161.298 19.8397 160.976 19.7597C160.654 19.6797 160.412 19.5197 160.171 19.3597C159.929 19.1197 159.768 18.8797 159.607 18.5597C159.446 18.2397 159.366 17.8397 159.366 17.4397V11.6797H157.998V9.67969H159.366V6.39969H161.941V9.67969H164.034V11.6797H161.941V16.5597C161.941 16.8797 162.022 17.1997 162.183 17.2797C162.344 17.4397 162.585 17.5197 162.907 17.5197C163.149 17.5197 163.471 17.4397 163.712 17.3597C163.954 17.2797 164.195 17.1997 164.356 17.1197L164.92 19.1997Z" fill="white"/>
<path d="M22.4561 5.68023L15.2122 10.0802C13.8439 10.9602 12.9585 12.4802 12.9585 14.0802V22.4802C12.9585 23.5202 14.0854 24.1602 14.9707 23.6002L16.8219 22.4802C18.0293 21.7602 18.7537 20.4802 18.7537 19.1202V17.2002C18.7537 15.6002 19.5585 14.0802 21.0073 13.2802L22.778 12.2402C23.9049 11.5202 24.6293 10.3202 24.6293 8.96023V6.80023C24.4683 5.76023 23.3415 5.12023 22.4561 5.68023ZM2.33415 5.92023L9.17561 10.0802C10.6244 10.9602 11.5098 12.5602 11.5098 14.2402V22.1602C11.5098 23.3602 10.222 24.0802 9.17561 23.4402L7.80732 22.6402C6.6 21.9202 5.79512 20.5602 5.79512 19.1202V17.4402C5.79512 15.7602 4.90976 14.1602 3.46098 13.2802L1.93171 12.3202C0.72439 11.6002 0 10.2402 0 8.88023V7.20023C0 6.00023 1.2878 5.28023 2.33415 5.92023Z" fill="white"/>
<path d="M21.9024 2.02563C22.4659 2.34563 22.7073 3.14563 22.3854 3.70563C22.3049 3.86563 22.1439 4.02563 21.9024 4.18563L13.6122 8.98563C12.5659 9.54562 11.278 9.54562 10.3122 8.98563L2.10244 4.10563C1.29756 3.62563 1.29756 2.42563 2.10244 1.94563L4.11463 0.825625C5.40244 0.185625 6.85122 0.185625 8.05854 0.825625L9.82927 1.78562C11.1976 2.58562 12.8878 2.58562 14.3366 1.78562L16.1878 0.745625C17.3146 0.105625 18.6829 0.105625 19.8902 0.745625C19.8098 0.825625 21.9024 2.02563 21.9024 2.02563Z" fill="white"/>
</svg>
