<svg width="56" height="56" viewBox="0 0 56 56" fill="none" xmlns="http://www.w3.org/2000/svg">
<path d="M26.84 47.2832L26.7976 43.2172C23.8639 43.1827 21.1549 42.606 18.6705 41.4871C17.6698 41.0364 17.2289 39.8889 17.5514 38.8398C17.9891 37.4161 19.623 36.7662 21.0119 37.304C22.9479 38.0535 24.8906 38.4575 26.84 38.5159V29.3251C25.1435 28.831 23.9983 28.464 23.4045 28.2239C19.2338 26.7557 17.1484 24.0168 17.1484 20.0073C17.1484 17.3955 18.025 15.3343 19.7781 13.8236C21.5312 12.313 23.8852 11.4589 26.84 11.2612V8H28.9183V11.2189C31.5025 11.2942 33.8367 11.7584 35.9207 12.6117C37.0285 13.0653 37.4598 14.3571 37.0012 15.4629C36.4886 16.6988 35.0602 17.2512 33.792 16.825C32.0886 16.2525 30.464 15.9368 28.9183 15.8778V24.2003C29.0314 24.2427 29.201 24.2992 29.4273 24.3697C29.6535 24.4403 29.9009 24.518 30.1695 24.6027C30.4523 24.6874 30.6431 24.7439 30.7421 24.7721C33.5838 25.7039 35.6126 26.8616 36.8285 28.2451C38.0585 29.6287 38.6735 31.5558 38.6735 34.0264C38.6735 36.6947 37.804 38.8124 36.065 40.3795C34.3261 41.9466 31.9438 42.8642 28.9183 43.1325V47.2832H26.84ZM26.84 23.5015V15.9625C25.6383 16.1178 24.7264 16.499 24.1043 17.1061C23.4822 17.7131 23.1429 18.5955 23.0864 19.7532C23.0864 21.4756 23.9417 22.5979 25.6524 23.1203C25.8504 23.1909 26.2462 23.318 26.84 23.5015ZM28.9183 38.3889C31.5338 37.9653 32.8416 36.4971 32.8416 33.9841C32.8416 32.177 31.7459 30.9064 29.5545 30.1722C29.5121 30.144 29.399 30.1087 29.2152 30.0663C29.0455 30.0099 28.9466 29.9746 28.9183 29.9605V38.3889Z" fill="#06D69D"/>
</svg>
