<svg width="54" height="54" viewBox="0 0 54 54" fill="none" xmlns="http://www.w3.org/2000/svg">
<g clip-path="url(#clip0)">
<path d="M50.9077 32.7016C50.7778 32.7907 34.0908 44.2319 34.0908 44.2319C32.9269 45.0074 31.4884 45.4121 30.0086 45.3045L14.7181 44.1178C13.9223 44.056 13.3081 43.3923 13.3081 42.5942V25.7947C13.3081 25.2706 13.5768 24.7829 14.02 24.5028C17.4876 22.3116 17.2169 22.4817 17.285 22.4414C19.0427 21.4728 21.1093 21.3672 22.9568 22.1522L31.382 25.7301C33.3979 26.5858 34.3099 28.9283 33.4079 30.9231C32.6982 32.4905 31.0124 33.416 29.3075 33.1724C23.7276 32.3755 24.0689 32.3917 23.9635 32.4828C23.8878 32.5485 23.8571 32.6503 23.9081 32.755C23.9763 32.8891 23.6459 32.7773 29.4192 34.0932C30.3954 34.3148 31.403 34.2393 32.3352 33.8745C49.2535 26.5711 48.2429 26.8982 49.1455 26.8982C52.279 26.8982 53.4925 30.9715 50.9077 32.7016Z" fill="#06D69D"/>
<path d="M39.9785 12.7793H37.7568V14.8853H39.9786C40.2598 14.8853 40.5248 14.7756 40.7247 14.5764C41.3827 13.9164 40.9147 12.7793 39.9785 12.7793V12.7793Z" fill="#06D69D"/>
<path d="M39.9785 16.4141H37.7568V18.5201H39.9786C40.2597 18.5201 40.5248 18.4104 40.7247 18.2111C41.381 17.5548 40.9182 16.4141 39.9785 16.4141V16.4141Z" fill="#06D69D"/>
<path d="M38.8576 5.14453C33.0906 5.14453 28.3989 9.83632 28.3989 15.6032C28.3989 21.3701 33.0906 26.0619 38.8576 26.0619C44.6246 26.0619 49.3162 21.3702 49.3162 15.6032C49.3162 9.83622 44.6246 5.14453 38.8576 5.14453V5.14453ZM40.8719 19.8905V20.7131C40.8719 21.1351 40.5298 21.4772 40.1078 21.4772C39.6859 21.4772 39.3437 21.1351 39.3437 20.7131V20.0493H38.2759V20.7131C38.2759 21.1351 37.9338 21.4772 37.5118 21.4772C37.0898 21.4772 36.7477 21.1351 36.7477 20.7131V20.0493H35.8241C35.4021 20.0493 35.06 19.7072 35.06 19.2852C35.06 18.8632 35.4021 18.5211 35.8241 18.5211H36.228C36.228 17.8264 36.228 13.4801 36.228 12.7808H35.8241C35.4021 12.7808 35.06 12.4387 35.06 12.0167C35.06 11.5947 35.4021 11.2526 35.8241 11.2526H36.7477V10.5888C36.7477 10.1668 37.0898 9.82467 37.5118 9.82467C37.9338 9.82467 38.2759 10.1668 38.2759 10.5888V11.2526H39.3437V10.5888C39.3437 10.1668 39.6859 9.82467 40.1078 9.82467C40.5298 9.82467 40.8719 10.1668 40.8719 10.5888V11.4123C42.6338 12.0644 43.1318 14.3186 41.8106 15.6522C43.133 16.9864 42.6328 19.2418 40.8719 19.8905Z" fill="#06D69D"/>
<path d="M9.48783 24.627H5.66731C4.40339 24.627 3.375 25.6552 3.375 26.9193V44.8757C3.375 46.1397 4.40339 47.168 5.66731 47.168H9.48783C10.7518 47.168 11.7801 46.1397 11.7801 44.8757V26.9193C11.7801 25.6553 10.7518 24.627 9.48783 24.627V24.627ZM8.81924 31.2173C8.81924 31.6393 8.47711 31.9815 8.05514 31.9815C7.63316 31.9815 7.29103 31.6393 7.29103 31.2173V29.8802C7.29103 29.4582 7.63316 29.1161 8.05514 29.1161C8.47711 29.1161 8.81924 29.4582 8.81924 29.8802V31.2173Z" fill="#06D69D"/>
</g>
<defs>
<clipPath id="clip0">
<rect x="3.375" y="1.6875" width="48.9375" height="48.9375" fill="white"/>
</clipPath>
</defs>
</svg>
