<svg width="697" height="307" viewBox="0 0 697 307" fill="none" xmlns="http://www.w3.org/2000/svg">
<path fill-rule="evenodd" clip-rule="evenodd" d="M492.785 174.003V172.463C479.72 172.463 473.146 133.705 466.622 95.2366C460.269 57.784 453.963 20.6054 441.758 19.7344V19.8438C429.034 19.8699 422.665 29.3576 416.294 38.8471C409.917 48.3462 403.538 57.8469 390.784 57.8603V57.7539C378.025 57.7539 371.646 66.2745 365.267 74.7968C358.89 83.3157 352.511 91.8363 339.757 91.8496V274.17H390.784V274.277L441.811 274.171V274.061L487.5 274.156L487.5 274.168H553L552.997 274.127L583.501 274.158L583.5 274.17H594.915L594.945 274.17L645.972 274.17V131.111C633.228 131.111 626.85 136.847 620.472 142.583C614.093 148.318 607.715 154.054 594.971 154.054L594.945 154.332V154.107C582.188 154.107 575.809 136.887 569.431 119.667C563.053 102.447 556.674 85.2266 543.917 85.2266V85.8109L543.892 85.2773C531.146 85.2773 524.768 106.951 518.389 128.629C512.011 150.299 505.633 171.974 492.891 172L492.785 174.003ZM237.676 274.169L237.59 264.775L237.756 274.118L288.783 274.171V274.117L339.756 274.17V91.8496C326.973 91.8496 320.588 101.851 314.21 111.843C307.845 121.813 301.486 131.774 288.782 131.774V131.775C276.647 131.774 270.788 122.549 264.644 112.874C257.872 102.21 250.754 91 234.5 91L234.512 91.6832C222.766 94.6173 217.043 132.325 211.322 170.025V170.025C205.368 209.26 199.415 248.487 186.675 248.5V251.752C172.614 249.903 166.127 207.256 159.775 165.495C153.73 125.755 147.807 86.8172 135.595 84.5995V84.0879C122.89 84.0879 116.615 101.477 110.315 118.937C103.964 136.539 97.5865 154.213 84.5682 154.213V154.106C71.8081 154.106 65.423 144.272 59.0397 134.441C52.6596 124.615 46.2812 114.791 33.541 114.791V274.169H84.5679V274.277L135.595 274.171V273.926L186.675 273.994V274.169H237.676ZM671.486 142.635C677.864 148.371 684.242 154.106 696.999 154.106V274.17L645.972 274.223V131.164C658.729 131.164 665.107 136.9 671.486 142.635Z" fill="url(#paint0_linear)"/>
<path d="M697 154.053C696.993 153.544 696.792 153.057 696.437 152.692C696.082 152.327 695.601 152.113 695.092 152.092C684.336 151.562 678.719 146.502 672.784 141.177C666.24 135.296 659.537 129.203 645.946 129.203C632.355 129.203 625.678 135.296 619.134 141.177C612.59 147.059 606.921 152.145 594.919 152.145C583.527 152.145 577.274 135.296 571.233 119.03C564.742 101.465 557.987 83.3181 543.865 83.3181C529.744 83.3181 523.253 105.174 516.471 128.355C510.404 149.099 504.125 170.558 492.838 170.558C481.552 170.558 474.822 129.123 469.259 95.849C462.264 53.9116 456.224 17.8555 441.811 17.8555C427.981 17.8555 421.199 27.9491 414.655 37.7247C408.402 47.0501 402.468 55.872 390.81 55.872C377.06 55.872 370.278 64.9324 363.707 73.7014C357.455 82.0465 351.547 89.9412 339.863 89.9412C326.033 89.9412 319.251 100.538 312.707 110.844C306.427 120.672 300.519 129.945 288.862 129.945C277.205 129.945 271.244 120.831 265.018 111.162C258.447 101.068 251.771 90.6035 237.835 90.6035C223.237 90.524 217.249 128.037 210.202 171.511C204.638 206.11 197.723 249.187 186.622 249.187C175.521 249.187 168.633 203.752 163.043 167.246C156.075 121.52 150.034 82.02 135.595 82.02C121.156 82.02 114.745 100.565 108.227 118.394C102.186 135.005 95.9339 152.172 84.568 152.172C73.2022 152.172 66.9496 143.058 60.7236 133.389C54.1531 123.295 47.4767 112.831 33.5674 112.831V116.778C45.2512 116.778 51.1593 125.891 57.4118 135.535C63.9823 145.655 70.6588 156.093 84.5945 156.093C98.5303 156.093 105.445 137.548 111.963 119.745C118.003 103.134 124.229 85.9674 135.622 85.9674C147.014 85.9674 153.664 131.349 159.148 167.829C166.143 213.581 172.21 253.081 186.622 253.081C201.035 253.081 207.102 215.568 214.096 172.121C219.66 137.522 226.575 94.4714 237.649 94.4714C249.36 94.4714 255.268 103.585 261.494 113.228C268.038 123.348 274.741 133.786 288.65 133.786C302.559 133.786 309.262 123.189 315.833 112.884C322.085 103.081 327.993 93.8091 339.677 93.8091C353.428 93.8091 360.21 84.7487 366.78 75.9797C373.351 67.2108 378.941 59.7134 390.625 59.7134C404.428 59.7134 411.211 49.6198 417.755 39.8441C424.007 30.5188 429.942 21.6969 441.599 21.6969C452.673 21.6969 459.615 63.1309 465.179 96.4318C472.385 138.29 478.426 174.425 492.785 174.425C507.145 174.425 513.424 152.569 520.206 129.388C526.273 108.645 532.552 87.2125 543.812 87.2125C555.072 87.2125 561.457 104.062 567.498 120.354C574.015 137.892 580.745 156.04 594.866 156.04C608.378 156.04 615.16 149.946 621.704 144.065C628.248 138.184 633.891 133.097 645.893 133.097C657.895 133.097 663.829 138.396 670.108 144.065C676.388 149.735 682.746 155.43 694.907 155.987C695.171 155.997 695.434 155.955 695.681 155.861C695.929 155.767 696.154 155.625 696.345 155.441C696.535 155.258 696.687 155.039 696.79 154.795C696.894 154.552 696.947 154.291 696.947 154.026L697 154.053Z" fill="url(#paint1_linear)"/>
<path d="M71.9756 301.494C71.6338 301.494 71.3359 301.458 71.082 301.387V300.127C71.3424 300.192 71.5801 300.225 71.7949 300.225C72.127 300.225 72.3646 300.12 72.5078 299.912C72.651 299.707 72.7227 299.385 72.7227 298.945V292.256H74.2363V298.936C74.2363 299.769 74.0459 300.404 73.665 300.84C73.2842 301.276 72.721 301.494 71.9756 301.494ZM80.4033 299.395L79.8857 297.695H77.2832L76.7656 299.395H75.1348L77.6543 292.227H79.5049L82.0342 299.395H80.4033ZM79.5244 296.426C79.0459 294.886 78.7757 294.015 78.7139 293.813C78.6553 293.612 78.613 293.452 78.5869 293.335C78.4795 293.752 78.1719 294.782 77.6641 296.426H79.5244ZM89.2705 299.395H87.3467L84.2412 293.994H84.1973C84.2591 294.948 84.29 295.628 84.29 296.035V299.395H82.9375V292.256H84.8467L87.9473 297.603H87.9814C87.9326 296.675 87.9082 296.019 87.9082 295.635V292.256H89.2705V299.395Z" fill="white"/>
<path d="M123.12 299.395H121.631V292.256H125.723V293.496H123.12V295.337H125.542V296.572H123.12V299.395ZM131.23 299.395H127.119V292.256H131.23V293.496H128.633V295.063H131.05V296.304H128.633V298.145H131.23V299.395ZM132.725 292.256H134.946C135.959 292.256 136.693 292.401 137.148 292.69C137.607 292.977 137.837 293.434 137.837 294.062C137.837 294.489 137.736 294.839 137.534 295.112C137.336 295.386 137.07 295.55 136.738 295.605V295.654C137.191 295.755 137.516 295.944 137.715 296.221C137.917 296.497 138.018 296.865 138.018 297.324C138.018 297.975 137.782 298.483 137.31 298.848C136.841 299.212 136.203 299.395 135.396 299.395H132.725V292.256ZM134.238 295.083H135.117C135.527 295.083 135.824 295.02 136.006 294.893C136.191 294.766 136.284 294.556 136.284 294.263C136.284 293.989 136.183 293.794 135.981 293.677C135.783 293.556 135.467 293.496 135.034 293.496H134.238V295.083ZM134.238 296.284V298.145H135.225C135.641 298.145 135.949 298.065 136.147 297.905C136.346 297.746 136.445 297.502 136.445 297.173C136.445 296.58 136.022 296.284 135.176 296.284H134.238Z" fill="white"/>
<path d="M169.481 299.395L167.763 293.794H167.719C167.781 294.933 167.812 295.693 167.812 296.074V299.395H166.459V292.256H168.52L170.209 297.715H170.238L172.03 292.256H174.091V299.395H172.68V296.016C172.68 295.856 172.681 295.672 172.685 295.464C172.691 295.256 172.714 294.702 172.753 293.804H172.709L170.868 299.395H169.481ZM180.263 299.395L179.745 297.695H177.143L176.625 299.395H174.994L177.514 292.227H179.364L181.894 299.395H180.263ZM179.384 296.426C178.905 294.886 178.635 294.015 178.573 293.813C178.515 293.612 178.472 293.452 178.446 293.335C178.339 293.752 178.031 294.782 177.523 296.426H179.384ZM184.311 295.425H184.799C185.277 295.425 185.631 295.345 185.858 295.186C186.086 295.026 186.2 294.775 186.2 294.434C186.2 294.095 186.083 293.854 185.849 293.711C185.618 293.568 185.258 293.496 184.77 293.496H184.311V295.425ZM184.311 296.655V299.395H182.797V292.256H184.877C185.847 292.256 186.565 292.433 187.03 292.788C187.496 293.14 187.729 293.675 187.729 294.395C187.729 294.814 187.613 295.189 187.382 295.518C187.151 295.843 186.824 296.099 186.4 296.284C187.475 297.889 188.174 298.926 188.5 299.395H186.82L185.116 296.655H184.311Z" fill="white"/>
<path d="M228.32 299.395L227.803 297.695H225.2L224.683 299.395H223.052L225.571 292.227H227.422L229.951 299.395H228.32ZM227.441 296.426C226.963 294.886 226.693 294.015 226.631 293.813C226.572 293.612 226.53 293.452 226.504 293.335C226.396 293.752 226.089 294.782 225.581 296.426H227.441ZM232.368 295.615H232.866C233.332 295.615 233.68 295.524 233.911 295.342C234.142 295.156 234.258 294.888 234.258 294.536C234.258 294.181 234.16 293.919 233.965 293.75C233.773 293.581 233.47 293.496 233.057 293.496H232.368V295.615ZM235.786 294.482C235.786 295.251 235.545 295.838 235.063 296.245C234.585 296.652 233.903 296.855 233.018 296.855H232.368V299.395H230.854V292.256H233.135C234.001 292.256 234.658 292.443 235.107 292.817C235.56 293.188 235.786 293.743 235.786 294.482ZM238.647 295.425H239.136C239.614 295.425 239.967 295.345 240.195 295.186C240.423 295.026 240.537 294.775 240.537 294.434C240.537 294.095 240.42 293.854 240.186 293.711C239.954 293.568 239.595 293.496 239.106 293.496H238.647V295.425ZM238.647 296.655V299.395H237.134V292.256H239.214C240.184 292.256 240.902 292.433 241.367 292.788C241.833 293.14 242.065 293.675 242.065 294.395C242.065 294.814 241.95 295.189 241.719 295.518C241.488 295.843 241.16 296.099 240.737 296.284C241.812 297.889 242.511 298.926 242.837 299.395H241.157L239.453 296.655H238.647Z" fill="white"/>
<path d="M283.563 299.395L281.845 293.794H281.801C281.863 294.933 281.894 295.693 281.894 296.074V299.395H280.541V292.256H282.602L284.291 297.715H284.32L286.112 292.256H288.173V299.395H286.762V296.016C286.762 295.856 286.763 295.672 286.767 295.464C286.773 295.256 286.796 294.702 286.835 293.804H286.791L284.95 299.395H283.563ZM294.345 299.395L293.827 297.695H291.225L290.707 299.395H289.076L291.596 292.227H293.446L295.976 299.395H294.345ZM293.466 296.426C292.987 294.886 292.717 294.015 292.655 293.813C292.597 293.612 292.554 293.452 292.528 293.335C292.421 293.752 292.113 294.782 291.605 296.426H293.466ZM299.101 295.195L300.59 292.256H302.221L299.853 296.616V299.395H298.349V296.665L295.98 292.256H297.621L299.101 295.195Z" fill="white"/>
<path d="M330.953 301.494C330.611 301.494 330.313 301.458 330.06 301.387V300.127C330.32 300.192 330.558 300.225 330.772 300.225C331.104 300.225 331.342 300.12 331.485 299.912C331.629 299.707 331.7 299.385 331.7 298.945V292.256H333.214V298.936C333.214 299.769 333.023 300.404 332.643 300.84C332.262 301.276 331.699 301.494 330.953 301.494ZM340.821 292.256V296.875C340.821 297.402 340.702 297.865 340.465 298.262C340.23 298.659 339.89 298.963 339.444 299.175C338.998 299.386 338.471 299.492 337.862 299.492C336.944 299.492 336.231 299.258 335.724 298.789C335.216 298.317 334.962 297.673 334.962 296.855V292.256H336.471V296.626C336.471 297.176 336.581 297.58 336.803 297.837C337.024 298.094 337.39 298.223 337.901 298.223C338.396 298.223 338.754 298.094 338.976 297.837C339.2 297.576 339.312 297.17 339.312 296.616V292.256H340.821ZM348.902 299.395H346.979L343.873 293.994H343.829C343.891 294.948 343.922 295.628 343.922 296.035V299.395H342.569V292.256H344.479L347.579 297.603H347.613C347.564 296.675 347.54 296.019 347.54 295.635V292.256H348.902V299.395Z" fill="white"/>
<path d="M383.014 301.494C382.672 301.494 382.374 301.458 382.12 301.387V300.127C382.381 300.192 382.618 300.225 382.833 300.225C383.165 300.225 383.403 300.12 383.546 299.912C383.689 299.707 383.761 299.385 383.761 298.945V292.256H385.274V298.936C385.274 299.769 385.084 300.404 384.703 300.84C384.322 301.276 383.759 301.494 383.014 301.494ZM392.882 292.256V296.875C392.882 297.402 392.763 297.865 392.525 298.262C392.291 298.659 391.951 298.963 391.505 299.175C391.059 299.386 390.532 299.492 389.923 299.492C389.005 299.492 388.292 299.258 387.784 298.789C387.276 298.317 387.022 297.673 387.022 296.855V292.256H388.531V296.626C388.531 297.176 388.642 297.58 388.863 297.837C389.085 298.094 389.451 298.223 389.962 298.223C390.457 298.223 390.815 298.094 391.036 297.837C391.261 297.576 391.373 297.17 391.373 296.616V292.256H392.882ZM394.63 299.395V292.256H396.144V298.145H399.039V299.395H394.63Z" fill="white"/>
<path d="M432.508 299.395L431.99 297.695H429.388L428.87 299.395H427.239L429.759 292.227H431.609L434.139 299.395H432.508ZM431.629 296.426C431.15 294.886 430.88 294.015 430.818 293.813C430.76 293.612 430.717 293.452 430.691 293.335C430.584 293.752 430.276 294.782 429.769 296.426H431.629ZM440.853 292.256V296.875C440.853 297.402 440.734 297.865 440.496 298.262C440.262 298.659 439.922 298.963 439.476 299.175C439.03 299.386 438.502 299.492 437.894 299.492C436.976 299.492 436.263 299.258 435.755 298.789C435.247 298.317 434.993 297.673 434.993 296.855V292.256H436.502V296.626C436.502 297.176 436.613 297.58 436.834 297.837C437.055 298.094 437.422 298.223 437.933 298.223C438.427 298.223 438.785 298.094 439.007 297.837C439.231 297.576 439.344 297.17 439.344 296.616V292.256H440.853ZM445.311 295.386H448.143V299.087C447.684 299.237 447.251 299.341 446.844 299.399C446.44 299.461 446.027 299.492 445.604 299.492C444.526 299.492 443.702 299.176 443.133 298.545C442.566 297.91 442.283 297 442.283 295.815C442.283 294.663 442.612 293.765 443.27 293.12C443.93 292.476 444.845 292.153 446.014 292.153C446.746 292.153 447.452 292.3 448.133 292.593L447.63 293.804C447.109 293.543 446.567 293.413 446.004 293.413C445.35 293.413 444.826 293.633 444.432 294.072C444.038 294.512 443.841 295.103 443.841 295.845C443.841 296.619 443.999 297.212 444.314 297.622C444.633 298.029 445.096 298.232 445.701 298.232C446.017 298.232 446.338 298.2 446.663 298.135V296.646H445.311V295.386Z" fill="white"/>
<path d="M487.565 297.412C487.565 298.057 487.333 298.564 486.867 298.936C486.405 299.307 485.76 299.492 484.934 299.492C484.172 299.492 483.498 299.349 482.912 299.062V297.656C483.394 297.871 483.801 298.022 484.133 298.11C484.468 298.198 484.774 298.242 485.051 298.242C485.383 298.242 485.637 298.179 485.812 298.052C485.992 297.925 486.081 297.736 486.081 297.485C486.081 297.345 486.042 297.222 485.964 297.114C485.886 297.004 485.77 296.898 485.617 296.797C485.467 296.696 485.16 296.535 484.694 296.313C484.258 296.108 483.931 295.911 483.713 295.723C483.495 295.534 483.321 295.314 483.19 295.063C483.06 294.813 482.995 294.52 482.995 294.185C482.995 293.553 483.208 293.057 483.635 292.695C484.064 292.334 484.657 292.153 485.412 292.153C485.783 292.153 486.136 292.197 486.472 292.285C486.81 292.373 487.163 292.497 487.531 292.656L487.043 293.833C486.662 293.677 486.346 293.568 486.096 293.506C485.848 293.444 485.604 293.413 485.363 293.413C485.077 293.413 484.857 293.48 484.704 293.613C484.551 293.747 484.475 293.921 484.475 294.136C484.475 294.269 484.506 294.386 484.567 294.487C484.629 294.585 484.727 294.681 484.86 294.775C484.997 294.867 485.318 295.033 485.822 295.273C486.49 295.592 486.947 295.913 487.194 296.235C487.442 296.554 487.565 296.947 487.565 297.412ZM492.971 299.395H488.859V292.256H492.971V293.496H490.373V295.063H492.79V296.304H490.373V298.145H492.971V299.395ZM495.979 295.615H496.477C496.942 295.615 497.29 295.524 497.521 295.342C497.753 295.156 497.868 294.888 497.868 294.536C497.868 294.181 497.771 293.919 497.575 293.75C497.383 293.581 497.08 293.496 496.667 293.496H495.979V295.615ZM499.396 294.482C499.396 295.251 499.156 295.838 498.674 296.245C498.195 296.652 497.513 296.855 496.628 296.855H495.979V299.395H494.465V292.256H496.745C497.611 292.256 498.269 292.443 498.718 292.817C499.17 293.188 499.396 293.743 499.396 294.482Z" fill="white"/>
<path d="M540.328 295.815C540.328 296.997 540.035 297.905 539.449 298.54C538.863 299.175 538.023 299.492 536.93 299.492C535.836 299.492 534.996 299.175 534.41 298.54C533.824 297.905 533.531 296.994 533.531 295.806C533.531 294.618 533.824 293.711 534.41 293.086C534.999 292.458 535.842 292.144 536.939 292.144C538.036 292.144 538.875 292.459 539.454 293.091C540.037 293.722 540.328 294.631 540.328 295.815ZM535.118 295.815C535.118 296.613 535.27 297.214 535.572 297.617C535.875 298.021 536.327 298.223 536.93 298.223C538.137 298.223 538.741 297.42 538.741 295.815C538.741 294.207 538.141 293.403 536.939 293.403C536.337 293.403 535.883 293.607 535.577 294.014C535.271 294.417 535.118 295.018 535.118 295.815ZM544.84 293.413C544.27 293.413 543.829 293.628 543.517 294.058C543.204 294.484 543.048 295.08 543.048 295.845C543.048 297.437 543.645 298.232 544.84 298.232C545.341 298.232 545.948 298.107 546.661 297.856V299.126C546.075 299.37 545.421 299.492 544.698 299.492C543.66 299.492 542.866 299.178 542.315 298.55C541.765 297.918 541.49 297.013 541.49 295.835C541.49 295.093 541.625 294.443 541.896 293.887C542.166 293.327 542.553 292.899 543.058 292.603C543.565 292.303 544.16 292.153 544.84 292.153C545.533 292.153 546.23 292.321 546.93 292.656L546.441 293.887C546.174 293.76 545.906 293.649 545.636 293.555C545.366 293.46 545.1 293.413 544.84 293.413ZM550.938 299.395H549.425V293.516H547.486V292.256H552.877V293.516H550.938V299.395Z" fill="white"/>
<path d="M586.36 299.395H584.437L581.331 293.994H581.287C581.349 294.948 581.38 295.628 581.38 296.035V299.395H580.027V292.256H581.937L585.037 297.603H585.071C585.022 296.675 584.998 296.019 584.998 295.635V292.256H586.36V299.395ZM594.642 295.815C594.642 296.997 594.349 297.905 593.763 298.54C593.177 299.175 592.337 299.492 591.243 299.492C590.149 299.492 589.31 299.175 588.724 298.54C588.138 297.905 587.845 296.994 587.845 295.806C587.845 294.618 588.138 293.711 588.724 293.086C589.313 292.458 590.156 292.144 591.253 292.144C592.35 292.144 593.188 292.459 593.768 293.091C594.35 293.722 594.642 294.631 594.642 295.815ZM589.432 295.815C589.432 296.613 589.583 297.214 589.886 297.617C590.188 298.021 590.641 298.223 591.243 298.223C592.451 298.223 593.055 297.42 593.055 295.815C593.055 294.207 592.454 293.403 591.253 293.403C590.651 293.403 590.197 293.607 589.891 294.014C589.585 294.417 589.432 295.018 589.432 295.815ZM600.193 292.256H601.722L599.295 299.395H597.645L595.223 292.256H596.751L598.094 296.504C598.169 296.755 598.245 297.048 598.323 297.383C598.405 297.715 598.455 297.946 598.475 298.076C598.51 297.777 598.632 297.253 598.841 296.504L600.193 292.256Z" fill="white"/>
<path d="M642.753 295.757C642.753 296.932 642.418 297.832 641.747 298.457C641.08 299.082 640.115 299.395 638.852 299.395H636.83V292.256H639.071C640.237 292.256 641.142 292.563 641.786 293.179C642.431 293.794 642.753 294.653 642.753 295.757ZM641.181 295.796C641.181 294.263 640.504 293.496 639.149 293.496H638.344V298.145H638.993C640.451 298.145 641.181 297.362 641.181 295.796ZM648.344 299.395H644.232V292.256H648.344V293.496H645.746V295.063H648.163V296.304H645.746V298.145H648.344V299.395ZM652.87 293.413C652.3 293.413 651.859 293.628 651.547 294.058C651.234 294.484 651.078 295.08 651.078 295.845C651.078 297.437 651.675 298.232 652.87 298.232C653.371 298.232 653.979 298.107 654.691 297.856V299.126C654.105 299.37 653.451 299.492 652.729 299.492C651.69 299.492 650.896 299.178 650.346 298.55C649.796 297.918 649.521 297.013 649.521 295.835C649.521 295.093 649.656 294.443 649.926 293.887C650.196 293.327 650.583 292.899 651.088 292.603C651.596 292.303 652.19 292.153 652.87 292.153C653.563 292.153 654.26 292.321 654.96 292.656L654.472 293.887C654.205 293.76 653.936 293.649 653.666 293.555C653.396 293.46 653.131 293.413 652.87 293.413Z" fill="white"/>
<path d="M18.2803 271.454C18.2803 272.701 18.0752 273.624 17.665 274.223C17.2581 274.822 16.6299 275.121 15.7803 275.121C14.9567 275.121 14.335 274.812 13.915 274.193C13.4984 273.575 13.29 272.662 13.29 271.454C13.29 270.194 13.4935 269.267 13.9004 268.671C14.3073 268.072 14.9339 267.772 15.7803 267.772C16.6038 267.772 17.2256 268.085 17.6455 268.71C18.0687 269.335 18.2803 270.25 18.2803 271.454ZM14.7891 271.454C14.7891 272.33 14.8639 272.958 15.0137 273.339C15.1667 273.716 15.4222 273.905 15.7803 273.905C16.1318 273.905 16.3857 273.713 16.542 273.329C16.6982 272.945 16.7764 272.32 16.7764 271.454C16.7764 270.578 16.6966 269.95 16.5371 269.569C16.3809 269.185 16.1286 268.993 15.7803 268.993C15.4255 268.993 15.1715 269.185 15.0186 269.569C14.8656 269.95 14.7891 270.578 14.7891 271.454Z" fill="white"/>
<path d="M11.8291 220.713H6.83887V219.663L8.63086 217.852C9.16146 217.308 9.50814 216.932 9.6709 216.724C9.83366 216.512 9.95085 216.317 10.0225 216.138C10.0941 215.959 10.1299 215.773 10.1299 215.581C10.1299 215.295 10.0501 215.081 9.89062 214.941C9.73438 214.801 9.52441 214.731 9.26074 214.731C8.98405 214.731 8.71549 214.795 8.45508 214.922C8.19466 215.049 7.92285 215.229 7.63965 215.464L6.81934 214.492C7.1709 214.193 7.46224 213.981 7.69336 213.857C7.92448 213.734 8.17676 213.639 8.4502 213.574C8.72363 213.506 9.02962 213.472 9.36816 213.472C9.81413 213.472 10.208 213.553 10.5498 213.716C10.8916 213.879 11.1569 214.106 11.3457 214.399C11.5345 214.692 11.6289 215.028 11.6289 215.405C11.6289 215.734 11.5703 216.043 11.4531 216.333C11.3392 216.619 11.1602 216.914 10.916 217.217C10.6751 217.52 10.2487 217.951 9.63672 218.511L8.71875 219.375V219.443H11.8291V220.713ZM17.5029 217.144C17.5029 218.39 17.2979 219.313 16.8877 219.912C16.4808 220.511 15.8525 220.811 15.0029 220.811C14.1794 220.811 13.5576 220.501 13.1377 219.883C12.721 219.264 12.5127 218.351 12.5127 217.144C12.5127 215.884 12.7161 214.956 13.123 214.36C13.5299 213.761 14.1566 213.462 15.0029 213.462C15.8265 213.462 16.4482 213.774 16.8682 214.399C17.2913 215.024 17.5029 215.939 17.5029 217.144ZM14.0117 217.144C14.0117 218.019 14.0866 218.647 14.2363 219.028C14.3893 219.406 14.6449 219.595 15.0029 219.595C15.3545 219.595 15.6084 219.403 15.7646 219.019C15.9209 218.634 15.999 218.009 15.999 217.144C15.999 216.268 15.9193 215.64 15.7598 215.259C15.6035 214.875 15.3512 214.683 15.0029 214.683C14.6481 214.683 14.3942 214.875 14.2412 215.259C14.0882 215.64 14.0117 216.268 14.0117 217.144Z" fill="white"/>
<path d="M11.9902 166.249H11.1309V167.729H9.65625V166.249H6.60938V165.199L9.73926 160.59H11.1309V165.077H11.9902V166.249ZM9.65625 165.077V163.866C9.65625 163.664 9.66439 163.371 9.68066 162.987C9.69694 162.603 9.70996 162.38 9.71973 162.318H9.68066C9.56022 162.585 9.41536 162.846 9.24609 163.1L7.9375 165.077H9.65625ZM17.5029 164.159C17.5029 165.406 17.2979 166.329 16.8877 166.928C16.4808 167.527 15.8525 167.826 15.0029 167.826C14.1794 167.826 13.5576 167.517 13.1377 166.898C12.721 166.28 12.5127 165.367 12.5127 164.159C12.5127 162.899 12.7161 161.972 13.123 161.376C13.5299 160.777 14.1566 160.478 15.0029 160.478C15.8265 160.478 16.4482 160.79 16.8682 161.415C17.2913 162.04 17.5029 162.955 17.5029 164.159ZM14.0117 164.159C14.0117 165.035 14.0866 165.663 14.2363 166.044C14.3893 166.422 14.6449 166.61 15.0029 166.61C15.3545 166.61 15.6084 166.418 15.7646 166.034C15.9209 165.65 15.999 165.025 15.999 164.159C15.999 163.284 15.9193 162.655 15.7598 162.274C15.6035 161.89 15.3512 161.698 15.0029 161.698C14.6481 161.698 14.3942 161.89 14.2412 162.274C14.0882 162.655 14.0117 163.284 14.0117 164.159Z" fill="white"/>
<path d="M6.79004 114.521C6.79004 113.108 7.08789 112.056 7.68359 111.366C8.28255 110.676 9.17773 110.331 10.3691 110.331C10.776 110.331 11.0951 110.355 11.3262 110.404V111.61C11.0365 111.545 10.75 111.513 10.4668 111.513C9.94922 111.513 9.52604 111.591 9.19727 111.747C8.87174 111.903 8.6276 112.134 8.46484 112.44C8.30208 112.746 8.20605 113.181 8.17676 113.744H8.24023C8.5625 113.191 9.07845 112.914 9.78809 112.914C10.4261 112.914 10.9258 113.114 11.2871 113.515C11.6484 113.915 11.8291 114.468 11.8291 115.175C11.8291 115.937 11.6143 116.54 11.1846 116.986C10.7549 117.429 10.1592 117.65 9.39746 117.65C8.87012 117.65 8.40951 117.528 8.01562 117.284C7.625 117.04 7.32227 116.684 7.10742 116.215C6.89583 115.746 6.79004 115.181 6.79004 114.521ZM9.36816 116.444C9.69043 116.444 9.93783 116.337 10.1104 116.122C10.2829 115.904 10.3691 115.595 10.3691 115.194C10.3691 114.846 10.2878 114.573 10.125 114.374C9.96549 114.172 9.72298 114.071 9.39746 114.071C9.09147 114.071 8.82943 114.171 8.61133 114.369C8.39648 114.568 8.28906 114.799 8.28906 115.062C8.28906 115.45 8.38997 115.777 8.5918 116.044C8.79688 116.311 9.05566 116.444 9.36816 116.444ZM17.5029 113.983C17.5029 115.23 17.2979 116.153 16.8877 116.752C16.4808 117.351 15.8525 117.65 15.0029 117.65C14.1794 117.65 13.5576 117.341 13.1377 116.723C12.721 116.104 12.5127 115.191 12.5127 113.983C12.5127 112.724 12.7161 111.796 13.123 111.2C13.5299 110.601 14.1566 110.302 15.0029 110.302C15.8265 110.302 16.4482 110.614 16.8682 111.239C17.2913 111.864 17.5029 112.779 17.5029 113.983ZM14.0117 113.983C14.0117 114.859 14.0866 115.487 14.2363 115.868C14.3893 116.246 14.6449 116.435 15.0029 116.435C15.3545 116.435 15.6084 116.243 15.7646 115.858C15.9209 115.474 15.999 114.849 15.999 113.983C15.999 113.108 15.9193 112.479 15.7598 112.099C15.6035 111.715 15.3512 111.522 15.0029 111.522C14.6481 111.522 14.3942 111.715 14.2412 112.099C14.0882 112.479 14.0117 113.108 14.0117 113.983Z" fill="white"/>
<path d="M9.2998 56.7529C9.9834 56.7529 10.5335 56.9092 10.9502 57.2217C11.3701 57.5309 11.5801 57.9492 11.5801 58.4766C11.5801 58.8411 11.4792 59.1667 11.2773 59.4531C11.0755 59.7363 10.75 59.9902 10.3008 60.2148C10.8346 60.5013 11.2171 60.8008 11.4482 61.1133C11.6826 61.4225 11.7998 61.7627 11.7998 62.1338C11.7998 62.7197 11.5703 63.1917 11.1113 63.5498C10.6523 63.9046 10.0485 64.082 9.2998 64.082C8.51855 64.082 7.90495 63.916 7.45898 63.584C7.01302 63.252 6.79004 62.7816 6.79004 62.1729C6.79004 61.766 6.89746 61.4046 7.1123 61.0889C7.3304 60.7731 7.67871 60.4948 8.15723 60.2539C7.75033 59.9967 7.45736 59.7217 7.27832 59.4287C7.09928 59.1357 7.00977 58.8151 7.00977 58.4668C7.00977 57.9557 7.22135 57.5423 7.64453 57.2266C8.06771 56.9108 8.61947 56.7529 9.2998 56.7529ZM8.18652 62.085C8.18652 62.3649 8.28418 62.583 8.47949 62.7393C8.6748 62.8955 8.94173 62.9736 9.28027 62.9736C9.65462 62.9736 9.93457 62.8939 10.1201 62.7344C10.3057 62.5716 10.3984 62.3584 10.3984 62.0947C10.3984 61.8766 10.3057 61.6732 10.1201 61.4844C9.93783 61.2923 9.63997 61.0889 9.22656 60.874C8.5332 61.193 8.18652 61.5967 8.18652 62.085ZM9.29004 57.8564C9.03288 57.8564 8.82454 57.9232 8.66504 58.0566C8.50879 58.1868 8.43066 58.3626 8.43066 58.584C8.43066 58.7793 8.49251 58.9551 8.61621 59.1113C8.74316 59.2643 8.97103 59.4222 9.2998 59.585C9.61882 59.4352 9.8418 59.2822 9.96875 59.126C10.0957 58.9697 10.1592 58.7891 10.1592 58.584C10.1592 58.3594 10.0778 58.182 9.91504 58.0518C9.75228 57.9215 9.54395 57.8564 9.29004 57.8564ZM17.5029 60.415C17.5029 61.6618 17.2979 62.5846 16.8877 63.1836C16.4808 63.7826 15.8525 64.082 15.0029 64.082C14.1794 64.082 13.5576 63.7728 13.1377 63.1543C12.721 62.5358 12.5127 61.6227 12.5127 60.415C12.5127 59.1553 12.7161 58.2275 13.123 57.6318C13.5299 57.0329 14.1566 56.7334 15.0029 56.7334C15.8265 56.7334 16.4482 57.0459 16.8682 57.6709C17.2913 58.2959 17.5029 59.2106 17.5029 60.415ZM14.0117 60.415C14.0117 61.2907 14.0866 61.9189 14.2363 62.2998C14.3893 62.6774 14.6449 62.8662 15.0029 62.8662C15.3545 62.8662 15.6084 62.6742 15.7646 62.29C15.9209 61.9059 15.999 61.2809 15.999 60.415C15.999 59.5394 15.9193 58.9111 15.7598 58.5303C15.6035 58.1462 15.3512 57.9541 15.0029 57.9541C14.6481 57.9541 14.3942 58.1462 14.2412 58.5303C14.0882 58.9111 14.0117 59.5394 14.0117 60.415Z" fill="white"/>
<path d="M4.13086 11H2.62207V6.86914L2.63672 6.19043L2.66113 5.44824C2.41048 5.69889 2.23633 5.86328 2.13867 5.94141L1.31836 6.60059L0.59082 5.69238L2.89062 3.86133H4.13086V11ZM11.0645 7.43066C11.0645 8.67741 10.8594 9.60026 10.4492 10.1992C10.0423 10.7982 9.41406 11.0977 8.56445 11.0977C7.74089 11.0977 7.11914 10.7884 6.69922 10.1699C6.28255 9.55143 6.07422 8.63835 6.07422 7.43066C6.07422 6.1709 6.27767 5.24316 6.68457 4.64746C7.09147 4.0485 7.7181 3.74902 8.56445 3.74902C9.38802 3.74902 10.0098 4.06152 10.4297 4.68652C10.8529 5.31152 11.0645 6.22624 11.0645 7.43066ZM7.57324 7.43066C7.57324 8.30632 7.64811 8.93457 7.79785 9.31543C7.95085 9.69303 8.20638 9.88184 8.56445 9.88184C8.91602 9.88184 9.16992 9.68978 9.32617 9.30566C9.48242 8.92155 9.56055 8.29655 9.56055 7.43066C9.56055 6.55501 9.48079 5.92676 9.32129 5.5459C9.16504 5.16178 8.91276 4.96973 8.56445 4.96973C8.20964 4.96973 7.95573 5.16178 7.80273 5.5459C7.64974 5.92676 7.57324 6.55501 7.57324 7.43066ZM16.7773 7.43066C16.7773 8.67741 16.5723 9.60026 16.1621 10.1992C15.7552 10.7982 15.127 11.0977 14.2773 11.0977C13.4538 11.0977 12.832 10.7884 12.4121 10.1699C11.9954 9.55143 11.7871 8.63835 11.7871 7.43066C11.7871 6.1709 11.9906 5.24316 12.3975 4.64746C12.8044 4.0485 13.431 3.74902 14.2773 3.74902C15.1009 3.74902 15.7227 4.06152 16.1426 4.68652C16.5658 5.31152 16.7773 6.22624 16.7773 7.43066ZM13.2861 7.43066C13.2861 8.30632 13.361 8.93457 13.5107 9.31543C13.6637 9.69303 13.9193 9.88184 14.2773 9.88184C14.6289 9.88184 14.8828 9.68978 15.0391 9.30566C15.1953 8.92155 15.2734 8.29655 15.2734 7.43066C15.2734 6.55501 15.1937 5.92676 15.0342 5.5459C14.8779 5.16178 14.6257 4.96973 14.2773 4.96973C13.9225 4.96973 13.6686 5.16178 13.5156 5.5459C13.3626 5.92676 13.2861 6.55501 13.2861 7.43066Z" fill="white"/>
<path d="M606.754 66.5519C600.262 64.8713 596.362 58.2462 598.043 51.7544C599.723 45.2625 606.348 41.3623 612.84 43.0429C619.332 44.7235 623.232 51.3486 621.552 57.8404C619.871 64.3322 613.246 68.2325 606.754 66.5519Z" stroke="url(#paint2_linear)" stroke-width="1.12" stroke-miterlimit="10"/>
<path d="M421.253 202.38C407.356 203.336 395.315 192.845 394.359 178.948C393.403 165.051 403.894 153.01 417.791 152.054C431.688 151.097 443.729 161.588 444.685 175.486C445.641 189.383 435.151 201.424 421.253 202.38Z" stroke="#0A6AF1" stroke-miterlimit="10"/>
<path d="M347.372 60.8232L345.204 66.0465C344.335 68.1459 342.537 69.891 339.785 71.0574C330.781 74.9019 314.97 71.1766 304.47 62.7342C297.177 56.8784 294.372 50.2831 296.344 45.5124L298.511 40.2891C296.532 45.0597 299.353 51.6481 306.636 57.5229C317.136 65.9653 332.949 69.6906 341.953 65.8461C344.699 64.6659 346.501 62.9208 347.372 60.8232Z" fill="#06D69D"/>
<path d="M347.377 60.8127C350.425 53.4652 341.959 42.9177 328.467 37.2543C314.975 31.5908 301.567 32.956 298.519 40.3036C295.471 47.6511 303.937 58.1986 317.429 63.862C330.921 69.5254 344.329 68.1602 347.377 60.8127Z" fill="#136C54"/>
<path d="M335.356 44.933C327.194 38.5174 315.017 35.72 308.16 38.6764C301.303 41.6328 302.363 49.2303 310.526 55.6424C318.688 62.0546 330.864 64.8555 337.721 61.8973C344.578 58.9392 343.52 51.3452 335.356 44.933Z" fill="url(#paint3_linear)"/>
<path d="M328.149 49.7575C328.58 49.0433 328.378 48.007 327.405 46.8384C325.898 45.0294 323.077 43.5192 320.615 43.0843L318.879 41H316.437L318.058 42.9461H316.836L315.216 41H312.773L314.394 42.9461H311.952L313.573 44.8922H314.794L322.898 54.6228H321.677L323.298 56.5689H325.74L327.361 58.5151H329.803L328.183 56.5689H329.404L331.025 58.5151H333.467L331.731 56.4308C333.469 55.9958 333.774 54.4856 332.268 52.6767C331.294 51.5081 329.769 50.4718 328.149 49.7575ZM320.9 44.8922C322.246 44.8922 324.069 45.7651 324.963 46.8384C325.857 47.9116 325.488 48.7845 324.141 48.7845H320.478L317.236 44.8922H320.9ZM329.004 54.6228H325.341L322.099 50.7306H325.762C327.109 50.7306 328.931 51.6034 329.825 52.6767C330.719 53.75 330.351 54.6228 329.004 54.6228Z" fill="white"/>
<path d="M339.858 43.9798C339.629 43.7908 339.4 43.6042 339.171 43.4199C339.405 43.6077 339.634 43.7943 339.858 43.9798Z" fill="#FFC31B"/>
<path d="M305.431 36.532C314.097 32.7946 329.306 36.1398 339.882 43.9982C349.726 52.178 350.801 61.6225 342.132 65.3634C333.463 69.1042 318.257 65.7539 307.671 57.8903C297.835 49.7123 296.765 40.2694 305.431 36.532ZM337.723 61.8973C344.58 58.9409 343.522 51.3451 335.358 44.933C327.194 38.5208 315.017 35.7199 308.16 38.6763C301.303 41.6327 302.363 49.2302 310.526 55.6424C318.688 62.0545 330.864 64.8554 337.721 61.8973H337.723Z" fill="#06D69D"/>
<path d="M307.676 57.8936L307.648 57.873L307.671 57.8902L307.676 57.8936Z" fill="#FFC31B"/>
<path d="M307.648 57.868C307.406 57.6953 307.164 57.5052 306.925 57.3203C307.164 57.5087 307.406 57.6953 307.648 57.868Z" fill="#FFC31B"/>
<path d="M339.857 43.9785L339.886 44.0008L339.857 43.9785Z" fill="url(#paint4_linear)"/>
<path d="M163.749 144.315C149.73 148.072 141.429 162.549 145.207 176.651C148.986 190.753 163.414 199.14 177.432 195.383C191.451 191.627 199.752 177.15 195.974 163.048C192.195 148.946 177.767 140.559 163.749 144.315Z" fill="#0A6AF1"/>
<path d="M162.972 141.418C147.337 145.607 138.107 161.741 142.31 177.427C146.513 193.113 162.574 202.471 178.209 198.281C193.844 194.092 203.074 177.958 198.871 162.272C194.668 146.585 178.608 137.228 162.972 141.418Z" stroke="url(#paint5_linear)" stroke-opacity="0.2" stroke-width="6"/>
<path d="M170.592 145.733C177.361 145.734 183.869 148.363 188.759 153.072C193.649 157.78 196.544 164.205 196.841 171.008C196.857 170.625 196.867 170.238 196.867 169.851C196.867 162.839 194.098 156.115 189.17 151.157C184.241 146.199 177.557 143.414 170.587 143.414C163.617 143.414 156.932 146.199 152.004 151.157C147.075 156.115 144.307 162.839 144.307 169.851C144.307 170.238 144.317 170.625 144.332 171.008C144.63 164.204 147.527 157.777 152.419 153.068C157.311 148.359 163.821 145.732 170.592 145.733Z" fill="#0856C4"/>
<path d="M170.59 190.208C181.767 190.208 190.827 181.093 190.827 169.85C190.827 158.607 181.767 149.492 170.59 149.492C159.413 149.492 150.353 158.607 150.353 169.85C150.353 181.093 159.413 190.208 170.59 190.208Z" fill="#0A6AF1"/>
<path d="M170.59 193.208C183.44 193.208 193.827 182.733 193.827 169.85C193.827 156.967 183.44 146.492 170.59 146.492C157.74 146.492 147.353 156.967 147.353 169.85C147.353 182.733 157.74 193.208 170.59 193.208Z" stroke="url(#paint6_linear)" stroke-opacity="0.2" stroke-width="6"/>
<g clip-path="url(#clip0)">
<path d="M170.918 176.954L159.867 170.432L170.911 186.001L181.968 170.432L170.911 176.954H170.918ZM171.082 150L160.036 168.334L171.082 174.867L182.133 168.341L171.082 150Z" fill="white"/>
</g>
<path d="M584.313 194.979L587.711 201.36C589.764 205.204 589.718 210.218 587.106 215.843C580.858 229.288 562.29 241.139 545.629 242.32C535.94 243.003 529.03 239.915 526.176 234.571L522.777 228.19C525.632 233.536 532.542 236.622 542.233 235.938C558.892 234.767 577.462 222.912 583.71 209.461C586.322 203.846 586.365 198.832 584.313 194.979Z" fill="url(#paint7_linear)"/>
<path d="M582.859 210.397C583.043 210.042 583.219 209.686 583.387 209.329C577.138 222.775 558.568 234.625 541.91 235.803C525.694 236.943 517.266 227.54 522.594 214.634C529.314 201.63 547.336 190.37 563.548 189.23C579.76 188.091 588.192 197.485 582.859 210.397ZM544.518 230.206C557.347 229.295 571.647 220.179 576.461 209.816C581.275 199.454 574.769 191.787 561.939 192.699C549.11 193.61 534.812 202.726 529.996 213.089C525.179 223.451 531.684 231.113 544.513 230.211L544.518 230.206Z" fill="url(#paint8_linear)"/>
<path d="M561.94 192.7C574.77 191.789 581.269 199.462 576.457 209.822C571.646 220.183 557.348 229.31 544.514 230.212C531.68 231.115 525.185 223.448 529.997 213.09C534.809 202.732 549.104 193.598 561.94 192.7Z" fill="#0A6AF1"/>
<path d="M557.856 216.464C560.197 212.746 557.346 211.695 555.108 210.665L557.909 206.219C558.414 206.359 558.775 206.639 558.948 207.025C559.091 207.325 559.406 207.524 559.84 207.59C560.275 207.657 560.803 207.586 561.339 207.391C561.696 207.262 562.046 207.082 562.363 206.864C562.679 206.646 562.954 206.396 563.167 206.132C563.38 205.867 563.526 205.596 563.594 205.337C563.663 205.078 563.651 204.839 563.561 204.637C563.051 203.494 561.849 202.824 560.193 202.594L560.935 201.416C561.033 201.259 561.095 201.103 561.116 200.957C561.136 200.81 561.116 200.676 561.056 200.562C560.996 200.448 560.897 200.356 560.764 200.292C560.632 200.228 560.47 200.192 560.286 200.187C559.915 200.178 559.48 200.294 559.076 200.51C558.673 200.727 558.335 201.026 558.135 201.342L557.377 202.547C554.103 202.919 550.451 204.625 548.518 207.694C546.441 210.99 548.439 212.327 550.583 213.331L547.623 218.03C547.005 217.837 546.574 217.471 546.381 216.974C546.264 216.643 545.958 216.414 545.516 216.327C545.074 216.24 544.524 216.3 543.96 216.496L543.769 216.567C543.426 216.687 543.09 216.856 542.782 217.06C542.475 217.265 542.204 217.501 541.988 217.752C541.772 218.002 541.616 218.263 541.531 218.514C541.445 218.766 541.433 219.003 541.494 219.209C541.916 220.528 543.223 221.4 545.305 221.715L544.51 222.979C544.31 223.295 544.267 223.602 544.388 223.832C544.51 224.063 544.787 224.198 545.158 224.208C545.529 224.218 545.965 224.101 546.368 223.884C546.771 223.667 547.11 223.368 547.309 223.052L548.087 221.817C551.931 221.543 555.833 219.675 557.856 216.464ZM552.776 207.842C552.985 207.496 553.314 207.16 553.718 206.877C554.122 206.593 554.583 206.376 555.041 206.254L553.018 209.465C552.42 208.947 552.381 208.468 552.779 207.837L552.776 207.842ZM550.371 218.185L552.781 214.359C553.736 214.896 554.115 215.445 553.531 216.373C553.013 217.194 551.939 217.947 550.374 218.18L550.371 218.185Z" fill="white"/>
<path d="M564.541 187.094C581.202 185.922 589.641 195.875 583.395 209.334C583.227 209.693 583.051 210.049 582.867 210.403C588.193 197.483 579.765 188.087 563.549 189.229C547.332 190.371 529.313 201.631 522.598 214.635C522.745 214.282 522.897 213.929 523.064 213.571C529.315 200.118 547.883 188.265 564.541 187.094Z" fill="#0A6AF1"/>
<defs>
<linearGradient id="paint0_linear" x1="365.27" y1="132" x2="365.27" y2="274.277" gradientUnits="userSpaceOnUse">
<stop stop-color="#021D43"/>
<stop offset="1" stop-color="#021D43" stop-opacity="0"/>
</linearGradient>
<linearGradient id="paint1_linear" x1="34" y1="113.961" x2="697" y2="113.961" gradientUnits="userSpaceOnUse">
<stop stop-color="#0A6AF1"/>
<stop offset="1" stop-color="#0A6AF1"/>
</linearGradient>
<linearGradient id="paint2_linear" x1="612.84" y1="43.0429" x2="606.754" y2="66.5519" gradientUnits="userSpaceOnUse">
<stop stop-color="#3EA88B"/>
<stop offset="1" stop-color="#06D69D"/>
</linearGradient>
<linearGradient id="paint3_linear" x1="322.941" y1="37.498" x2="322.941" y2="63.0762" gradientUnits="userSpaceOnUse">
<stop stop-color="#3EA88B"/>
<stop offset="1" stop-color="#06D69D"/>
</linearGradient>
<linearGradient id="paint4_linear" x1="339.872" y1="43.9785" x2="339.872" y2="44.0008" gradientUnits="userSpaceOnUse">
<stop stop-color="#3EA88B"/>
<stop offset="1" stop-color="#06D69D"/>
</linearGradient>
<linearGradient id="paint5_linear" x1="177.432" y1="195.383" x2="163.749" y2="144.315" gradientUnits="userSpaceOnUse">
<stop stop-color="#FAD5C8"/>
<stop offset="1" stop-color="#F9B8B5"/>
</linearGradient>
<linearGradient id="paint6_linear" x1="170.59" y1="149.492" x2="170.59" y2="190.208" gradientUnits="userSpaceOnUse">
<stop stop-color="#FAD5C8"/>
<stop offset="1" stop-color="#F9B8B5"/>
</linearGradient>
<linearGradient id="paint7_linear" x1="522.777" y1="218.703" x2="589.172" y2="218.703" gradientUnits="userSpaceOnUse">
<stop stop-color="#0057D1"/>
<stop offset="0.26" stop-color="#0856C4"/>
<stop offset="0.5" stop-color="#00A0FF"/>
<stop offset="1" stop-color="#0856C4"/>
</linearGradient>
<linearGradient id="paint8_linear" x1="552.727" y1="189.137" x2="552.727" y2="235.897" gradientUnits="userSpaceOnUse">
<stop stop-color="#1C6CDD"/>
<stop offset="1" stop-color="#014CB6"/>
</linearGradient>
<clipPath id="clip0">
<rect x="153" y="150" width="36" height="36" fill="white"/>
</clipPath>
</defs>
</svg>
