<svg width="32" height="26" viewBox="0 0 32 26" fill="none" xmlns="http://www.w3.org/2000/svg">
<path d="M9.48162 24.8871C14.3908 24.8871 18.3705 20.9074 18.3705 15.9982C18.3705 11.089 14.3908 7.10938 9.48162 7.10938C4.57245 7.10938 0.592773 11.089 0.592773 15.9982C0.592773 20.9074 4.57245 24.8871 9.48162 24.8871Z" fill="#06D69D"/>
<path d="M11.6255 15.9993C12.1233 15.5644 12.4445 14.9333 12.4445 14.2216C12.4445 13.1199 11.6859 12.2002 10.6667 11.9353V10.666H9.48151V11.8512H8.88892V10.666H7.70373V11.8512H6.51855V13.0364H7.11114V18.9623H6.51855V20.1475H7.70373V21.3326H8.88892V20.1475H9.48151V21.3326H10.6667V20.0633C11.6859 19.7984 12.4445 18.8787 12.4445 17.7771C12.4445 17.0654 12.1233 16.4343 11.6255 15.9993ZM10.0741 13.0364C10.7277 13.0364 11.2593 13.5679 11.2593 14.2216C11.2593 14.8752 10.7277 15.4067 10.0741 15.4067H8.29632V13.0364H10.0741ZM10.0741 18.9623H8.29632V16.5919H10.0741C10.7277 16.5919 11.2593 17.1235 11.2593 17.7771C11.2593 18.4307 10.7277 18.9623 10.0741 18.9623Z" fill="black"/>
<path d="M9.48145 6.51758C14.7093 6.51759 18.9629 10.7712 18.9629 15.999C18.9629 21.2269 14.7093 25.4805 9.48145 25.4805C4.25362 25.4805 8.00126e-06 21.2269 8.45829e-06 15.999C8.91532e-06 10.7712 4.25362 6.51758 9.48145 6.51758ZM9.48145 24.2953C14.0562 24.2953 17.7777 20.5738 17.7777 15.999C17.7777 11.4242 14.0562 7.70277 9.48145 7.70277C4.90665 7.70277 1.18519 11.4242 1.18519 15.999C1.18519 20.5738 4.90665 24.2953 9.48145 24.2953Z" fill="black"/>
<path d="M22.5178 18.3695C27.4269 18.3695 31.4066 14.3898 31.4066 9.48065C31.4066 4.57147 27.4269 0.591797 22.5178 0.591797C17.6086 0.591797 13.6289 4.57147 13.6289 9.48065C13.6289 14.3898 17.6086 18.3695 22.5178 18.3695Z" fill="#06D69D"/>
<path d="M22.5186 6.8005e-06C27.7464 7.25753e-06 32 4.25362 32 9.48145C32 14.7093 27.7464 18.9629 22.5186 18.9629C17.2907 18.9629 13.0371 14.7093 13.0371 9.48145C13.0371 4.25362 17.2907 6.34347e-06 22.5186 6.8005e-06ZM22.5186 17.7777C27.0934 17.7777 30.8148 14.0562 30.8148 9.48145C30.8148 4.90665 27.0934 1.18519 22.5186 1.18519C17.9438 1.18519 14.2223 4.90665 14.2223 9.48145C14.2223 14.0562 17.9438 17.7777 22.5186 17.7777Z" fill="black"/>
<path d="M22.5178 8.88916C21.8642 8.88916 21.3326 8.3576 21.3326 7.70398C21.3326 7.05035 21.8642 6.5188 22.5178 6.5188C23.1714 6.5188 23.703 7.05035 23.703 7.70398H24.8882C24.8882 6.60235 24.1297 5.68265 23.1104 5.41777V4.14844H21.9252V5.41777C20.906 5.68265 20.1475 6.60235 20.1475 7.70398C20.1475 9.01123 21.2106 10.0743 22.5178 10.0743C23.1714 10.0743 23.703 10.6059 23.703 11.2595C23.703 11.9131 23.1714 12.4447 22.5178 12.4447C21.8642 12.4447 21.3326 11.9131 21.3326 11.2595H20.1475C20.1475 12.3611 20.906 13.2808 21.9252 13.5457V14.8151H23.1104V13.5457C24.1297 13.2808 24.8882 12.3611 24.8882 11.2595C24.8882 9.95226 23.8251 8.88916 22.5178 8.88916Z" fill="black"/>
</svg>
