<svg width="32" height="32" viewBox="0 0 32 32" fill="none" xmlns="http://www.w3.org/2000/svg">
<path d="M20.8158 23.1665C20.7544 23.1677 20.693 23.1688 20.6316 23.1688C20.5696 23.1688 20.5082 23.1676 20.4468 23.1665C20.4186 23.166 20.3905 23.1648 20.3628 23.1643C14.8367 22.9789 11.5527 16.859 14.3865 12.0872L15.3837 10.4088L20.2502 2.21677C20.422 1.92774 20.8406 1.92774 21.0124 2.21677L26.8761 12.0872C29.7245 16.8832 26.3927 23.0409 20.8158 23.1665Z" fill="#06D69D"/>
<path d="M20.3628 23.1636C14.8367 22.9783 11.5527 16.8583 14.3865 12.0865L15.3837 10.4082L19.5853 17.4814C20.6738 19.3141 20.8597 21.3456 20.3628 23.1636Z" fill="url(#paint0_linear)"/>
<path d="M17.6133 18.9196C20.5124 23.8001 17.014 30.1299 11.1841 29.9986C5.6073 29.8731 2.27536 23.7155 5.12419 18.9196L10.9875 9.04904C11.1593 8.75969 11.5782 8.75969 11.75 9.04904L17.6133 18.9196Z" fill="#06D69D"/>
<defs>
<linearGradient id="paint0_linear" x1="16.986" y1="10.4082" x2="16.986" y2="23.1636" gradientUnits="userSpaceOnUse">
<stop stop-color="#3EA88B"/>
<stop offset="1" stop-color="#06D69D"/>
</linearGradient>
</defs>
</svg>
