<svg width="31" height="18" viewBox="0 0 31 18" fill="none" xmlns="http://www.w3.org/2000/svg">
<path d="M2.02597 18C1.41991 18 0.926407 17.8243 0.545455 17.4728C0.181818 17.1046 0 16.6276 0 16.0418V1.98326C0 1.39749 0.164502 0.945606 0.493507 0.627615C0.822511 0.309623 1.29004 0.150627 1.8961 0.150627H10.8312C11.4892 0.150627 11.974 0.27615 12.2857 0.527196C12.5974 0.778243 12.7532 1.17155 12.7532 1.70711C12.7532 2.22594 12.5974 2.61088 12.2857 2.86193C11.974 3.11297 11.4892 3.23849 10.8312 3.23849H4V7.30544H10.3117C10.9697 7.30544 11.4545 7.43096 11.7662 7.68201C12.0779 7.93306 12.2338 8.32636 12.2338 8.86193C12.2338 9.38075 12.0779 9.76569 11.7662 10.0167C11.4545 10.2678 10.9697 10.3933 10.3117 10.3933H4V16.0418C4 16.6444 3.81818 17.1213 3.45455 17.4728C3.10823 17.8243 2.63203 18 2.02597 18Z" fill="#06D69D"/>
<path d="M30.5065 15.0377C30.8355 15.4059 31 15.7908 31 16.1925C31 16.6778 30.8009 17.1046 30.4026 17.4728C30.0216 17.8243 29.5801 18 29.0779 18C28.5584 18 28.1169 17.7908 27.7532 17.3724L22.8701 11.5983L17.9351 17.3724C17.5541 17.7908 17.1126 18 16.6104 18C16.1255 18 15.684 17.8243 15.2857 17.4728C14.9048 17.1046 14.7143 16.6778 14.7143 16.1925C14.7143 15.7741 14.8701 15.3891 15.1818 15.0377L20.5065 8.91213L15.3636 2.96234C15.0346 2.59414 14.8701 2.2092 14.8701 1.80753C14.8701 1.32217 15.0606 0.903766 15.4416 0.552302C15.8398 0.184101 16.2814 0 16.7662 0C17.2857 0 17.7359 0.217573 18.1169 0.652719L22.8701 6.20084L27.5714 0.652719C27.9524 0.217573 28.4026 0 28.9221 0C29.4069 0 29.8398 0.184101 30.2208 0.552302C30.6191 0.903766 30.8182 1.32217 30.8182 1.80753C30.8182 2.22594 30.6623 2.61088 30.3507 2.96234L25.2078 8.91213L30.5065 15.0377Z" fill="#06D69D"/>
</svg>
